<?xml version="1.0" encoding="utf-8"?>
<!-- Generator: Adobe Illustrator 19.2.1, SVG Export Plug-In . SVG Version: 6.00 Build 0)  -->
<svg version="1.1" id="Capa_1" xmlns="http://www.w3.org/2000/svg" xmlns:xlink="http://www.w3.org/1999/xlink" x="0px" y="0px"
	 viewBox="0 0 988.5 438" style="enable-background:new 0 0 988.5 438;" xml:space="preserve">
<style type="text/css">
	.st0{clip-path:url(#SVGID_2_);fill:#FFFFFF;}
	.st1{clip-path:url(#SVGID_2_);}
	.st2{fill:#BDBDBD;}
	.st3{fill:#FFFFFF;}
	.st4{clip-path:url(#SVGID_2_);fill:#20344F;}
</style>
<g>
	<defs>
		<rect id="SVGID_1_" width="988.5" height="438"/>
	</defs>
	<clipPath id="SVGID_2_">
		<use xlink:href="#SVGID_1_"  style="overflow:visible;"/>
	</clipPath>
	<path class="st0" d="M906,45.7c0,0.2,0.1,0.3,0.2,0.4l21.1,14.1c0,0,0.1,0,0.1,0.1c0,0,0,0,0,0c0,0,0,0,0,0c0.1,0,0.1,0,0.2,0l0,0
		h0l22.6-11.2c0.1-0.1,0.2-0.2,0.2-0.4l1.8-25.2l0,0l0,0c0,0,0-0.1,0-0.1c0-0.1-0.1-0.2-0.2-0.3L931.1,9c-0.1-0.1-0.3-0.1-0.4,0
		L908,20.2c0,0-0.1,0.1-0.1,0.1c0,0-0.1,0-0.1,0.1c0,0,0,0.1,0,0.1c0,0,0,0.1,0,0.1L906,45.7z M951,23.4l-21.7,10.8l-13-8.7
		l-7.3-4.9l21.7-10.8L951,23.4z M928,59.2l1.2-17.9l0.4-6.3l21.7-10.8l-1.7,24.2L928,59.2z M906.9,45.5l1.7-24.2l20.3,13.6l-0.2,3.4
		l-1.5,20.8L906.9,45.5z"/>
	<g class="st1">
		<circle class="st2" cx="373.7" cy="-147.2" r="1"/>
		<circle class="st2" cx="391.6" cy="-147.2" r="1"/>
		<circle class="st2" cx="409.5" cy="-147.2" r="1"/>
		<circle class="st2" cx="427.4" cy="-147.2" r="1"/>
		<circle class="st2" cx="445.3" cy="-147.2" r="1"/>
		<circle class="st2" cx="463.3" cy="-147.2" r="1"/>
		<circle class="st2" cx="481.2" cy="-147.2" r="1"/>
		<circle class="st2" cx="499.1" cy="-147.2" r="1"/>
		<circle class="st2" cx="517" cy="-147.2" r="1"/>
		<circle class="st2" cx="534.9" cy="-147.2" r="1"/>
		<circle class="st2" cx="552.8" cy="-147.2" r="1"/>
		<circle class="st2" cx="570.7" cy="-147.2" r="1"/>
		<circle class="st2" cx="588.7" cy="-147.2" r="1"/>
		<circle class="st2" cx="373.7" cy="-129.3" r="1"/>
		<circle class="st2" cx="391.6" cy="-129.3" r="1"/>
		<circle class="st2" cx="409.5" cy="-129.3" r="1"/>
		<circle class="st2" cx="427.4" cy="-129.3" r="1"/>
		<circle class="st2" cx="445.3" cy="-129.3" r="1"/>
		<circle class="st2" cx="463.3" cy="-129.3" r="1"/>
		<circle class="st2" cx="481.2" cy="-129.3" r="1"/>
		<circle class="st2" cx="499.1" cy="-129.3" r="1"/>
		<circle class="st2" cx="517" cy="-129.3" r="1"/>
		<circle class="st2" cx="534.9" cy="-129.3" r="1"/>
		<circle class="st2" cx="552.8" cy="-129.3" r="1"/>
		<circle class="st2" cx="570.7" cy="-129.3" r="1"/>
		<circle class="st2" cx="588.7" cy="-129.3" r="1"/>
		<circle class="st2" cx="355.8" cy="-111.4" r="1"/>
		<circle class="st2" cx="373.7" cy="-111.4" r="1"/>
		<circle class="st2" cx="391.6" cy="-111.4" r="1"/>
		<circle class="st2" cx="409.5" cy="-111.4" r="1"/>
		<circle class="st2" cx="427.4" cy="-111.4" r="1"/>
		<circle class="st2" cx="445.3" cy="-111.4" r="1"/>
		<circle class="st2" cx="463.3" cy="-111.4" r="1"/>
		<circle class="st2" cx="481.2" cy="-111.4" r="1"/>
		<circle class="st2" cx="499.1" cy="-111.4" r="1"/>
		<circle class="st2" cx="517" cy="-111.4" r="1"/>
		<circle class="st2" cx="534.9" cy="-111.4" r="1"/>
		<circle class="st2" cx="552.8" cy="-111.4" r="1"/>
		<circle class="st2" cx="570.7" cy="-111.4" r="1"/>
		<circle class="st2" cx="588.7" cy="-111.4" r="1"/>
		<circle class="st2" cx="319.9" cy="-93.5" r="1"/>
		<circle class="st2" cx="337.8" cy="-93.5" r="1"/>
		<circle class="st2" cx="355.8" cy="-93.5" r="1"/>
		<circle class="st2" cx="373.7" cy="-93.5" r="1"/>
		<circle class="st2" cx="391.6" cy="-93.5" r="1"/>
		<circle class="st2" cx="409.5" cy="-93.5" r="1"/>
		<circle class="st2" cx="427.4" cy="-93.5" r="1"/>
		<circle class="st2" cx="445.3" cy="-93.5" r="1"/>
		<circle class="st2" cx="463.3" cy="-93.5" r="1"/>
		<circle class="st2" cx="481.2" cy="-93.5" r="1"/>
		<circle class="st2" cx="499.1" cy="-93.5" r="1"/>
		<circle class="st2" cx="517" cy="-93.5" r="1"/>
		<circle class="st2" cx="534.9" cy="-93.5" r="1"/>
		<circle class="st2" cx="552.8" cy="-93.5" r="1"/>
		<circle class="st2" cx="570.7" cy="-93.5" r="1"/>
		<circle class="st2" cx="302" cy="-75.5" r="1"/>
		<circle class="st2" cx="319.9" cy="-75.5" r="1"/>
		<circle class="st2" cx="337.8" cy="-75.5" r="1"/>
		<circle class="st2" cx="355.8" cy="-75.5" r="1"/>
		<circle class="st2" cx="373.7" cy="-75.5" r="1"/>
		<circle class="st2" cx="391.6" cy="-75.5" r="1"/>
		<circle class="st2" cx="409.5" cy="-75.5" r="1"/>
		<circle class="st2" cx="427.4" cy="-75.5" r="1"/>
		<circle class="st2" cx="445.3" cy="-75.5" r="1"/>
		<circle class="st2" cx="463.3" cy="-75.5" r="1"/>
		<circle class="st2" cx="481.2" cy="-75.5" r="1"/>
		<circle class="st2" cx="499.1" cy="-75.5" r="1"/>
		<circle class="st2" cx="517" cy="-75.5" r="1"/>
		<circle class="st2" cx="534.9" cy="-75.5" r="1"/>
		<circle class="st2" cx="552.8" cy="-75.5" r="1"/>
		<circle class="st2" cx="570.7" cy="-75.5" r="1"/>
		<circle class="st2" cx="284.1" cy="-57.6" r="1"/>
		<circle class="st2" cx="302" cy="-57.6" r="1"/>
		<circle class="st2" cx="319.9" cy="-57.6" r="1"/>
		<circle class="st2" cx="337.8" cy="-57.6" r="1"/>
		<circle class="st2" cx="355.8" cy="-57.6" r="1"/>
		<circle class="st2" cx="373.7" cy="-57.6" r="1"/>
		<circle class="st2" cx="391.6" cy="-57.6" r="1"/>
		<circle class="st2" cx="409.5" cy="-57.6" r="1"/>
		<circle class="st2" cx="427.4" cy="-57.6" r="1"/>
		<circle class="st2" cx="445.3" cy="-57.6" r="1"/>
		<circle class="st2" cx="463.3" cy="-57.6" r="1"/>
		<circle class="st2" cx="481.2" cy="-57.6" r="1"/>
		<circle class="st2" cx="499.1" cy="-57.6" r="1"/>
		<circle class="st2" cx="517" cy="-57.6" r="1"/>
		<circle class="st2" cx="534.9" cy="-57.6" r="1"/>
		<circle class="st2" cx="552.8" cy="-57.6" r="1"/>
		<circle class="st2" cx="266.2" cy="-39.7" r="1"/>
		<circle class="st2" cx="284.1" cy="-39.7" r="1"/>
		<circle class="st2" cx="302" cy="-39.7" r="1"/>
		<circle class="st2" cx="319.9" cy="-39.7" r="1"/>
		<circle class="st2" cx="337.8" cy="-39.7" r="1"/>
		<circle class="st2" cx="355.8" cy="-39.7" r="1"/>
		<circle class="st2" cx="373.7" cy="-39.7" r="1"/>
		<circle class="st2" cx="391.6" cy="-39.7" r="1"/>
		<circle class="st2" cx="409.5" cy="-39.7" r="1"/>
		<circle class="st2" cx="427.4" cy="-39.7" r="1"/>
		<circle class="st2" cx="445.3" cy="-39.7" r="1"/>
		<circle class="st2" cx="463.3" cy="-39.7" r="1"/>
		<circle class="st2" cx="481.2" cy="-39.7" r="1"/>
		<circle class="st2" cx="499.1" cy="-39.7" r="1"/>
		<circle class="st2" cx="517" cy="-39.7" r="1"/>
		<circle class="st2" cx="534.9" cy="-39.7" r="1"/>
		<circle class="st2" cx="248.3" cy="-21.8" r="1"/>
		<circle class="st2" cx="266.2" cy="-21.8" r="1"/>
		<circle class="st2" cx="284.1" cy="-21.8" r="1"/>
		<circle class="st2" cx="302" cy="-21.8" r="1"/>
		<circle class="st2" cx="319.9" cy="-21.8" r="1"/>
		<circle class="st2" cx="337.8" cy="-21.8" r="1"/>
		<circle class="st2" cx="355.8" cy="-21.8" r="1"/>
		<circle class="st2" cx="373.7" cy="-21.8" r="1"/>
		<circle class="st2" cx="391.6" cy="-21.8" r="1"/>
		<circle class="st2" cx="409.5" cy="-21.8" r="1"/>
		<circle class="st2" cx="427.4" cy="-21.8" r="1"/>
		<circle class="st2" cx="445.3" cy="-21.8" r="1"/>
		<circle class="st2" cx="463.3" cy="-21.8" r="1"/>
		<circle class="st2" cx="481.2" cy="-21.8" r="1"/>
		<circle class="st2" cx="499.1" cy="-21.8" r="1"/>
		<circle class="st2" cx="517" cy="-21.8" r="1"/>
		<circle class="st2" cx="534.9" cy="-21.8" r="1"/>
		<circle class="st2" cx="230.4" cy="-3.9" r="1"/>
		<circle class="st2" cx="248.3" cy="-3.9" r="1"/>
		<circle class="st2" cx="266.2" cy="-3.9" r="1"/>
		<circle class="st2" cx="284.1" cy="-3.9" r="1"/>
		<circle class="st2" cx="302" cy="-3.9" r="1"/>
		<circle class="st2" cx="319.9" cy="-3.9" r="1"/>
		<circle class="st2" cx="337.8" cy="-3.9" r="1"/>
		<circle class="st2" cx="355.8" cy="-3.9" r="1"/>
		<circle class="st2" cx="373.7" cy="-3.9" r="1"/>
		<circle class="st2" cx="391.6" cy="-3.9" r="1"/>
		<circle class="st2" cx="409.5" cy="-3.9" r="1"/>
		<circle class="st2" cx="427.4" cy="-3.9" r="1"/>
		<circle class="st2" cx="445.3" cy="-3.9" r="1"/>
		<circle class="st2" cx="463.3" cy="-3.9" r="1"/>
		<circle class="st2" cx="481.2" cy="-3.9" r="1"/>
		<circle class="st2" cx="499.1" cy="-3.9" r="1"/>
		<circle class="st2" cx="517" cy="-3.9" r="1"/>
		<circle class="st2" cx="212.4" cy="14" r="1"/>
		<circle class="st2" cx="230.4" cy="14" r="1"/>
		<circle class="st2" cx="248.3" cy="14" r="1"/>
		<circle class="st2" cx="266.2" cy="14" r="1"/>
		<circle class="st2" cx="284.1" cy="14" r="1"/>
		<circle class="st2" cx="302" cy="14" r="1"/>
		<circle class="st2" cx="319.9" cy="14" r="1"/>
		<circle class="st2" cx="337.8" cy="14" r="1"/>
		<circle class="st2" cx="355.8" cy="14" r="1"/>
		<circle class="st2" cx="373.7" cy="14" r="1"/>
		<circle class="st2" cx="391.6" cy="14" r="1"/>
		<circle class="st2" cx="409.5" cy="14" r="1"/>
		<circle class="st2" cx="427.4" cy="14" r="1"/>
		<circle class="st2" cx="445.3" cy="14" r="1"/>
		<circle class="st2" cx="463.3" cy="14" r="1"/>
		<circle class="st2" cx="481.2" cy="14" r="1"/>
		<circle class="st2" cx="499.1" cy="14" r="1"/>
		<circle class="st2" cx="517" cy="14" r="1"/>
		<circle class="st2" cx="194.5" cy="31.9" r="1"/>
		<circle class="st2" cx="212.4" cy="31.9" r="1"/>
		<circle class="st2" cx="230.4" cy="31.9" r="1"/>
		<circle class="st2" cx="248.3" cy="31.9" r="1"/>
		<circle class="st2" cx="266.2" cy="31.9" r="1"/>
		<circle class="st2" cx="284.1" cy="31.9" r="1"/>
		<circle class="st2" cx="302" cy="31.9" r="1"/>
		<circle class="st2" cx="319.9" cy="31.9" r="1"/>
		<circle class="st2" cx="337.8" cy="31.9" r="1"/>
		<circle class="st2" cx="355.8" cy="31.9" r="1"/>
		<circle class="st2" cx="373.7" cy="31.9" r="1"/>
		<circle class="st2" cx="391.6" cy="31.9" r="1"/>
		<circle class="st2" cx="409.5" cy="31.9" r="1"/>
		<circle class="st2" cx="427.4" cy="31.9" r="1"/>
		<circle class="st2" cx="445.3" cy="31.9" r="1"/>
		<circle class="st2" cx="463.3" cy="31.9" r="1"/>
		<circle class="st2" cx="481.2" cy="31.9" r="1"/>
		<circle class="st2" cx="499.1" cy="31.9" r="1"/>
		<circle class="st2" cx="176.6" cy="49.9" r="1"/>
		<circle class="st2" cx="194.5" cy="49.9" r="1"/>
		<circle class="st2" cx="212.4" cy="49.9" r="1"/>
		<circle class="st2" cx="230.4" cy="49.9" r="1"/>
		<circle class="st2" cx="248.3" cy="49.9" r="1"/>
		<circle class="st2" cx="266.2" cy="49.9" r="1"/>
		<circle class="st2" cx="284.1" cy="49.9" r="1"/>
		<circle class="st2" cx="302" cy="49.9" r="1"/>
		<circle class="st2" cx="319.9" cy="49.9" r="1"/>
		<circle class="st2" cx="337.8" cy="49.9" r="1"/>
		<circle class="st2" cx="355.8" cy="49.9" r="1"/>
		<circle class="st2" cx="373.7" cy="49.9" r="1"/>
		<circle class="st2" cx="391.6" cy="49.9" r="1"/>
		<circle class="st2" cx="409.5" cy="49.9" r="1"/>
		<circle class="st2" cx="427.4" cy="49.9" r="1"/>
		<circle class="st2" cx="445.3" cy="49.9" r="1"/>
		<circle class="st2" cx="463.3" cy="49.9" r="1"/>
		<circle class="st2" cx="481.2" cy="49.9" r="1"/>
		<circle class="st2" cx="140.8" cy="67.8" r="1"/>
		<circle class="st2" cx="158.7" cy="67.8" r="1"/>
		<circle class="st2" cx="176.6" cy="67.8" r="1"/>
		<circle class="st2" cx="194.5" cy="67.8" r="1"/>
		<circle class="st2" cx="212.4" cy="67.8" r="1"/>
		<circle class="st2" cx="230.4" cy="67.8" r="1"/>
		<circle class="st2" cx="248.3" cy="67.8" r="1"/>
		<circle class="st2" cx="266.2" cy="67.8" r="1"/>
		<circle class="st2" cx="284.1" cy="67.8" r="1"/>
		<circle class="st2" cx="302" cy="67.8" r="1"/>
		<circle class="st2" cx="319.9" cy="67.8" r="1"/>
		<circle class="st2" cx="337.8" cy="67.8" r="1"/>
		<circle class="st2" cx="355.8" cy="67.8" r="1"/>
		<circle class="st2" cx="373.7" cy="67.8" r="1"/>
		<circle class="st2" cx="391.6" cy="67.8" r="1"/>
		<circle class="st2" cx="409.5" cy="67.8" r="1"/>
		<circle class="st2" cx="427.4" cy="67.8" r="1"/>
		<circle class="st2" cx="445.3" cy="67.8" r="1"/>
		<circle class="st2" cx="463.3" cy="67.8" r="1"/>
		<circle class="st2" cx="481.2" cy="67.8" r="1"/>
		<circle class="st2" cx="122.9" cy="85.7" r="1"/>
		<circle class="st2" cx="140.8" cy="85.7" r="1"/>
		<circle class="st2" cx="158.7" cy="85.7" r="1"/>
		<circle class="st2" cx="176.6" cy="85.7" r="1"/>
		<circle class="st2" cx="194.5" cy="85.7" r="1"/>
		<circle class="st2" cx="212.4" cy="85.7" r="1"/>
		<circle class="st2" cx="230.4" cy="85.7" r="1"/>
		<circle class="st2" cx="248.3" cy="85.7" r="1"/>
		<circle class="st2" cx="266.2" cy="85.7" r="1"/>
		<circle class="st2" cx="284.1" cy="85.7" r="1"/>
		<circle class="st2" cx="302" cy="85.7" r="1"/>
		<circle class="st2" cx="319.9" cy="85.7" r="1"/>
		<circle class="st2" cx="337.8" cy="85.7" r="1"/>
		<circle class="st2" cx="355.8" cy="85.7" r="1"/>
		<circle class="st2" cx="373.7" cy="85.7" r="1"/>
		<circle class="st2" cx="391.6" cy="85.7" r="1"/>
		<circle class="st2" cx="409.5" cy="85.7" r="1"/>
		<circle class="st2" cx="427.4" cy="85.7" r="1"/>
		<circle class="st2" cx="445.3" cy="85.7" r="1"/>
		<circle class="st2" cx="463.3" cy="85.7" r="1"/>
		<circle class="st2" cx="105" cy="103.6" r="1"/>
		<circle class="st2" cx="122.9" cy="103.6" r="1"/>
		<circle class="st2" cx="140.8" cy="103.6" r="1"/>
		<circle class="st2" cx="158.7" cy="103.6" r="1"/>
		<circle class="st2" cx="176.6" cy="103.6" r="1"/>
		<circle class="st2" cx="194.5" cy="103.6" r="1"/>
		<circle class="st2" cx="212.4" cy="103.6" r="1"/>
		<circle class="st2" cx="230.4" cy="103.6" r="1"/>
		<circle class="st2" cx="248.3" cy="103.6" r="1"/>
		<circle class="st2" cx="266.2" cy="103.6" r="1"/>
		<circle class="st2" cx="284.1" cy="103.6" r="1"/>
		<circle class="st2" cx="302" cy="103.6" r="1"/>
		<circle class="st2" cx="319.9" cy="103.6" r="1"/>
		<circle class="st2" cx="337.8" cy="103.6" r="1"/>
		<circle class="st2" cx="355.8" cy="103.6" r="1"/>
		<circle class="st2" cx="373.7" cy="103.6" r="1"/>
		<circle class="st2" cx="391.6" cy="103.6" r="1"/>
		<circle class="st2" cx="409.5" cy="103.6" r="1"/>
		<circle class="st2" cx="427.4" cy="103.6" r="1"/>
		<circle class="st2" cx="445.3" cy="103.6" r="1"/>
		<circle class="st2" cx="463.3" cy="103.6" r="1"/>
		<circle class="st2" cx="87" cy="121.5" r="1"/>
		<circle class="st2" cx="105" cy="121.5" r="1"/>
		<circle class="st2" cx="122.9" cy="121.5" r="1"/>
		<circle class="st2" cx="140.8" cy="121.5" r="1"/>
		<circle class="st2" cx="158.7" cy="121.5" r="1"/>
		<circle class="st2" cx="176.6" cy="121.5" r="1"/>
		<circle class="st2" cx="194.5" cy="121.5" r="1"/>
		<circle class="st2" cx="212.4" cy="121.5" r="1"/>
		<circle class="st2" cx="230.4" cy="121.5" r="1"/>
		<circle class="st2" cx="248.3" cy="121.5" r="1"/>
		<circle class="st2" cx="266.2" cy="121.5" r="1"/>
		<circle class="st2" cx="284.1" cy="121.5" r="1"/>
		<circle class="st2" cx="302" cy="121.5" r="1"/>
		<circle class="st2" cx="319.9" cy="121.5" r="1"/>
		<circle class="st2" cx="337.8" cy="121.5" r="1"/>
		<circle class="st2" cx="355.8" cy="121.5" r="1"/>
		<circle class="st2" cx="373.7" cy="121.5" r="1"/>
		<circle class="st2" cx="391.6" cy="121.5" r="1"/>
		<circle class="st2" cx="409.5" cy="121.5" r="1"/>
		<circle class="st2" cx="427.4" cy="121.5" r="1"/>
		<circle class="st2" cx="445.3" cy="121.5" r="1"/>
		<circle class="st2" cx="69.1" cy="139.4" r="1"/>
		<circle class="st2" cx="87" cy="139.4" r="1"/>
		<circle class="st2" cx="105" cy="139.4" r="1"/>
		<circle class="st2" cx="122.9" cy="139.4" r="1"/>
		<circle class="st2" cx="140.8" cy="139.4" r="1"/>
		<circle class="st2" cx="158.7" cy="139.4" r="1"/>
		<circle class="st2" cx="176.6" cy="139.4" r="1"/>
		<circle class="st2" cx="194.5" cy="139.4" r="1"/>
		<circle class="st2" cx="212.4" cy="139.4" r="1"/>
		<circle class="st2" cx="230.4" cy="139.4" r="1"/>
		<circle class="st2" cx="248.3" cy="139.4" r="1"/>
		<circle class="st2" cx="266.2" cy="139.4" r="1"/>
		<circle class="st2" cx="284.1" cy="139.4" r="1"/>
		<circle class="st2" cx="302" cy="139.4" r="1"/>
		<circle class="st2" cx="319.9" cy="139.4" r="1"/>
		<circle class="st2" cx="337.8" cy="139.4" r="1"/>
		<circle class="st2" cx="355.8" cy="139.4" r="1"/>
		<circle class="st2" cx="373.7" cy="139.4" r="1"/>
		<circle class="st2" cx="391.6" cy="139.4" r="1"/>
		<circle class="st2" cx="409.5" cy="139.4" r="1"/>
		<circle class="st2" cx="427.4" cy="139.4" r="1"/>
		<circle class="st2" cx="51.2" cy="157.4" r="1"/>
		<circle class="st2" cx="69.1" cy="157.4" r="1"/>
		<circle class="st2" cx="87" cy="157.4" r="1"/>
		<circle class="st2" cx="105" cy="157.4" r="1"/>
		<circle class="st2" cx="122.9" cy="157.4" r="1"/>
		<circle class="st2" cx="140.8" cy="157.4" r="1"/>
		<circle class="st2" cx="158.7" cy="157.4" r="1"/>
		<circle class="st2" cx="176.6" cy="157.4" r="1"/>
		<circle class="st2" cx="194.5" cy="157.4" r="1"/>
		<circle class="st2" cx="212.4" cy="157.4" r="1"/>
		<circle class="st2" cx="230.4" cy="157.4" r="1"/>
		<circle class="st2" cx="248.3" cy="157.4" r="1"/>
		<circle class="st2" cx="266.2" cy="157.4" r="1"/>
		<circle class="st2" cx="284.1" cy="157.4" r="1"/>
		<circle class="st2" cx="302" cy="157.4" r="1"/>
		<circle class="st2" cx="319.9" cy="157.4" r="1"/>
		<circle class="st2" cx="337.8" cy="157.4" r="1"/>
		<circle class="st2" cx="355.8" cy="157.4" r="1"/>
		<circle class="st2" cx="373.7" cy="157.4" r="1"/>
		<circle class="st2" cx="391.6" cy="157.4" r="1"/>
		<circle class="st2" cx="409.5" cy="157.4" r="1"/>
		<circle class="st2" cx="427.4" cy="157.4" r="1"/>
		<circle class="st2" cx="33.3" cy="175.3" r="1"/>
		<circle class="st2" cx="51.2" cy="175.3" r="1"/>
		<circle class="st2" cx="69.1" cy="175.3" r="1"/>
		<circle class="st2" cx="87" cy="175.3" r="1"/>
		<circle class="st2" cx="105" cy="175.3" r="1"/>
		<circle class="st2" cx="122.9" cy="175.3" r="1"/>
		<circle class="st2" cx="140.8" cy="175.3" r="1"/>
		<circle class="st2" cx="158.7" cy="175.3" r="1"/>
		<circle class="st2" cx="176.6" cy="175.3" r="1"/>
		<circle class="st2" cx="194.5" cy="175.3" r="1"/>
		<circle class="st2" cx="212.4" cy="175.3" r="1"/>
		<circle class="st2" cx="230.4" cy="175.3" r="1"/>
		<circle class="st2" cx="248.3" cy="175.3" r="1"/>
		<circle class="st2" cx="266.2" cy="175.3" r="1"/>
		<circle class="st2" cx="284.1" cy="175.3" r="1"/>
		<circle class="st2" cx="302" cy="175.3" r="1"/>
		<circle class="st2" cx="319.9" cy="175.3" r="1"/>
		<circle class="st2" cx="337.8" cy="175.3" r="1"/>
		<circle class="st2" cx="355.8" cy="175.3" r="1"/>
		<circle class="st2" cx="373.7" cy="175.3" r="1"/>
		<circle class="st2" cx="391.6" cy="175.3" r="1"/>
		<circle class="st2" cx="409.5" cy="175.3" r="1"/>
		<circle class="st2" cx="15.4" cy="193.2" r="1"/>
		<circle class="st2" cx="33.3" cy="193.2" r="1"/>
		<circle class="st2" cx="51.2" cy="193.2" r="1"/>
		<circle class="st2" cx="69.1" cy="193.2" r="1"/>
		<circle class="st2" cx="87" cy="193.2" r="1"/>
		<circle class="st2" cx="105" cy="193.2" r="1"/>
		<circle class="st2" cx="122.9" cy="193.2" r="1"/>
		<circle class="st2" cx="140.8" cy="193.2" r="1"/>
		<circle class="st2" cx="158.7" cy="193.2" r="1"/>
		<circle class="st2" cx="176.6" cy="193.2" r="1"/>
		<circle class="st2" cx="194.5" cy="193.2" r="1"/>
		<circle class="st2" cx="212.4" cy="193.2" r="1"/>
		<circle class="st2" cx="230.4" cy="193.2" r="1"/>
		<circle class="st2" cx="248.3" cy="193.2" r="1"/>
		<circle class="st2" cx="266.2" cy="193.2" r="1"/>
		<circle class="st2" cx="284.1" cy="193.2" r="1"/>
		<circle class="st2" cx="302" cy="193.2" r="1"/>
		<circle class="st2" cx="319.9" cy="193.2" r="1"/>
		<circle class="st2" cx="337.8" cy="193.2" r="1"/>
		<circle class="st2" cx="355.8" cy="193.2" r="1"/>
		<circle class="st2" cx="373.7" cy="193.2" r="1"/>
		<circle class="st2" cx="391.6" cy="193.2" r="1"/>
		<circle class="st2" cx="409.5" cy="193.2" r="1"/>
		<circle class="st2" cx="-2.5" cy="211.1" r="1"/>
		<circle class="st2" cx="15.4" cy="211.1" r="1"/>
		<circle class="st2" cx="33.3" cy="211.1" r="1"/>
		<circle class="st2" cx="51.2" cy="211.1" r="1"/>
		<circle class="st2" cx="69.1" cy="211.1" r="1"/>
		<circle class="st2" cx="87" cy="211.1" r="1"/>
		<circle class="st2" cx="105" cy="211.1" r="1"/>
		<circle class="st2" cx="122.9" cy="211.1" r="1"/>
		<circle class="st2" cx="140.8" cy="211.1" r="1"/>
		<circle class="st2" cx="158.7" cy="211.1" r="1"/>
		<circle class="st2" cx="176.6" cy="211.1" r="1"/>
		<circle class="st2" cx="194.5" cy="211.1" r="1"/>
		<circle class="st2" cx="212.4" cy="211.1" r="1"/>
		<circle class="st2" cx="230.4" cy="211.1" r="1"/>
		<circle class="st2" cx="248.3" cy="211.1" r="1"/>
		<circle class="st2" cx="266.2" cy="211.1" r="1"/>
		<circle class="st2" cx="284.1" cy="211.1" r="1"/>
		<circle class="st2" cx="302" cy="211.1" r="1"/>
		<circle class="st2" cx="319.9" cy="211.1" r="1"/>
		<circle class="st2" cx="337.8" cy="211.1" r="1"/>
		<circle class="st2" cx="355.8" cy="211.1" r="1"/>
		<circle class="st2" cx="373.7" cy="211.1" r="1"/>
		<circle class="st2" cx="391.6" cy="211.1" r="1"/>
		<circle class="st2" cx="-38.4" cy="229" r="1"/>
		<circle class="st2" cx="-20.5" cy="229" r="1"/>
		<circle class="st2" cx="-2.5" cy="229" r="1"/>
		<circle class="st2" cx="15.4" cy="229" r="1"/>
		<circle class="st2" cx="33.3" cy="229" r="1"/>
		<circle class="st2" cx="51.2" cy="229" r="1"/>
		<circle class="st2" cx="69.1" cy="229" r="1"/>
		<circle class="st2" cx="87" cy="229" r="1"/>
		<circle class="st2" cx="105" cy="229" r="1"/>
		<circle class="st2" cx="122.9" cy="229" r="1"/>
		<circle class="st2" cx="140.8" cy="229" r="1"/>
		<circle class="st2" cx="158.7" cy="229" r="1"/>
		<circle class="st2" cx="176.6" cy="229" r="1"/>
		<circle class="st2" cx="194.5" cy="229" r="1"/>
		<circle class="st2" cx="212.4" cy="229" r="1"/>
		<circle class="st2" cx="230.4" cy="229" r="1"/>
		<circle class="st2" cx="248.3" cy="229" r="1"/>
		<circle class="st2" cx="266.2" cy="229" r="1"/>
		<circle class="st2" cx="284.1" cy="229" r="1"/>
		<circle class="st2" cx="302" cy="229" r="1"/>
		<circle class="st2" cx="319.9" cy="229" r="1"/>
		<circle class="st2" cx="337.8" cy="229" r="1"/>
		<circle class="st2" cx="355.8" cy="229" r="1"/>
		<circle class="st2" cx="373.7" cy="229" r="1"/>
		<circle class="st2" cx="-38.4" cy="246.9" r="1"/>
		<circle class="st2" cx="-20.5" cy="246.9" r="1"/>
		<circle class="st2" cx="-2.5" cy="246.9" r="1"/>
		<circle class="st2" cx="15.4" cy="246.9" r="1"/>
		<circle class="st2" cx="33.3" cy="246.9" r="1"/>
		<circle class="st2" cx="51.2" cy="246.9" r="1"/>
		<circle class="st2" cx="69.1" cy="246.9" r="1"/>
		<circle class="st2" cx="87" cy="246.9" r="1"/>
		<circle class="st2" cx="105" cy="246.9" r="1"/>
		<circle class="st2" cx="122.9" cy="246.9" r="1"/>
		<circle class="st2" cx="140.8" cy="246.9" r="1"/>
		<circle class="st2" cx="158.7" cy="246.9" r="1"/>
		<circle class="st2" cx="176.6" cy="246.9" r="1"/>
		<circle class="st2" cx="194.5" cy="246.9" r="1"/>
		<circle class="st2" cx="212.4" cy="246.9" r="1"/>
		<circle class="st2" cx="230.4" cy="246.9" r="1"/>
		<circle class="st2" cx="248.3" cy="246.9" r="1"/>
		<circle class="st2" cx="266.2" cy="246.9" r="1"/>
		<circle class="st2" cx="284.1" cy="246.9" r="1"/>
		<circle class="st2" cx="302" cy="246.9" r="1"/>
		<circle class="st2" cx="319.9" cy="246.9" r="1"/>
		<circle class="st2" cx="337.8" cy="246.9" r="1"/>
		<circle class="st2" cx="355.8" cy="246.9" r="1"/>
		<circle class="st2" cx="373.7" cy="246.9" r="1"/>
		<circle class="st2" cx="-38.4" cy="264.8" r="1"/>
		<circle class="st2" cx="-20.5" cy="264.8" r="1"/>
		<circle class="st2" cx="-2.5" cy="264.8" r="1"/>
		<circle class="st2" cx="15.4" cy="264.8" r="1"/>
		<circle class="st2" cx="33.3" cy="264.8" r="1"/>
		<circle class="st2" cx="51.2" cy="264.8" r="1"/>
		<circle class="st2" cx="69.1" cy="264.8" r="1"/>
		<circle class="st2" cx="87" cy="264.8" r="1"/>
		<circle class="st2" cx="105" cy="264.8" r="1"/>
		<circle class="st2" cx="122.9" cy="264.8" r="1"/>
		<circle class="st2" cx="140.8" cy="264.8" r="1"/>
		<circle class="st2" cx="158.7" cy="264.8" r="1"/>
		<circle class="st2" cx="176.6" cy="264.8" r="1"/>
		<circle class="st2" cx="194.5" cy="264.8" r="1"/>
		<circle class="st2" cx="212.4" cy="264.8" r="1"/>
		<circle class="st2" cx="230.4" cy="264.8" r="1"/>
		<circle class="st2" cx="248.3" cy="264.8" r="1"/>
		<circle class="st2" cx="266.2" cy="264.8" r="1"/>
		<circle class="st2" cx="284.1" cy="264.8" r="1"/>
		<circle class="st2" cx="302" cy="264.8" r="1"/>
		<circle class="st2" cx="319.9" cy="264.8" r="1"/>
		<circle class="st2" cx="337.8" cy="264.8" r="1"/>
		<circle class="st2" cx="355.8" cy="264.8" r="1"/>
		<circle class="st2" cx="-38.4" cy="282.8" r="1"/>
		<circle class="st2" cx="-20.5" cy="282.8" r="1"/>
		<circle class="st2" cx="-2.5" cy="282.8" r="1"/>
		<circle class="st2" cx="15.4" cy="282.8" r="1"/>
		<circle class="st2" cx="33.3" cy="282.8" r="1"/>
		<circle class="st2" cx="51.2" cy="282.8" r="1"/>
		<circle class="st2" cx="69.1" cy="282.8" r="1"/>
		<circle class="st2" cx="87" cy="282.8" r="1"/>
		<circle class="st2" cx="105" cy="282.8" r="1"/>
		<circle class="st2" cx="122.9" cy="282.8" r="1"/>
		<circle class="st2" cx="140.8" cy="282.8" r="1"/>
		<circle class="st2" cx="158.7" cy="282.8" r="1"/>
		<circle class="st2" cx="176.6" cy="282.8" r="1"/>
		<circle class="st2" cx="194.5" cy="282.8" r="1"/>
		<circle class="st2" cx="212.4" cy="282.8" r="1"/>
		<circle class="st2" cx="230.4" cy="282.8" r="1"/>
		<circle class="st2" cx="248.3" cy="282.8" r="1"/>
		<circle class="st2" cx="266.2" cy="282.8" r="1"/>
		<circle class="st2" cx="284.1" cy="282.8" r="1"/>
		<circle class="st2" cx="302" cy="282.8" r="1"/>
		<circle class="st2" cx="319.9" cy="282.8" r="1"/>
		<circle class="st2" cx="337.8" cy="282.8" r="1"/>
		<circle class="st2" cx="355.8" cy="282.8" r="1"/>
		<circle class="st2" cx="-38.4" cy="300.7" r="1"/>
		<circle class="st2" cx="-20.5" cy="300.7" r="1"/>
		<circle class="st2" cx="-2.5" cy="300.7" r="1"/>
		<circle class="st2" cx="15.4" cy="300.7" r="1"/>
		<circle class="st2" cx="33.3" cy="300.7" r="1"/>
		<circle class="st2" cx="51.2" cy="300.7" r="1"/>
		<circle class="st2" cx="69.1" cy="300.7" r="1"/>
		<circle class="st2" cx="87" cy="300.7" r="1"/>
		<circle class="st2" cx="105" cy="300.7" r="1"/>
		<circle class="st2" cx="122.9" cy="300.7" r="1"/>
		<circle class="st2" cx="140.8" cy="300.7" r="1"/>
		<circle class="st2" cx="158.7" cy="300.7" r="1"/>
		<circle class="st2" cx="176.6" cy="300.7" r="1"/>
		<circle class="st2" cx="194.5" cy="300.7" r="1"/>
		<circle class="st2" cx="212.4" cy="300.7" r="1"/>
		<circle class="st2" cx="230.4" cy="300.7" r="1"/>
		<circle class="st2" cx="248.3" cy="300.7" r="1"/>
		<circle class="st2" cx="266.2" cy="300.7" r="1"/>
		<circle class="st2" cx="284.1" cy="300.7" r="1"/>
		<circle class="st2" cx="302" cy="300.7" r="1"/>
		<circle class="st2" cx="319.9" cy="300.7" r="1"/>
		<circle class="st2" cx="337.8" cy="300.7" r="1"/>
		<circle class="st2" cx="-38.4" cy="318.6" r="1"/>
		<circle class="st2" cx="-20.5" cy="318.6" r="1"/>
		<circle class="st2" cx="-2.5" cy="318.6" r="1"/>
		<circle class="st2" cx="15.4" cy="318.6" r="1"/>
		<circle class="st2" cx="33.3" cy="318.6" r="1"/>
		<circle class="st2" cx="51.2" cy="318.6" r="1"/>
		<circle class="st2" cx="69.1" cy="318.6" r="1"/>
		<circle class="st2" cx="87" cy="318.6" r="1"/>
		<circle class="st2" cx="105" cy="318.6" r="1"/>
		<circle class="st2" cx="122.9" cy="318.6" r="1"/>
		<circle class="st2" cx="140.8" cy="318.6" r="1"/>
		<circle class="st2" cx="158.7" cy="318.6" r="1"/>
		<circle class="st2" cx="176.6" cy="318.6" r="1"/>
		<circle class="st2" cx="194.5" cy="318.6" r="1"/>
		<circle class="st2" cx="212.4" cy="318.6" r="1"/>
		<circle class="st2" cx="230.4" cy="318.6" r="1"/>
		<circle class="st2" cx="248.3" cy="318.6" r="1"/>
		<circle class="st2" cx="266.2" cy="318.6" r="1"/>
		<circle class="st2" cx="284.1" cy="318.6" r="1"/>
		<circle class="st2" cx="302" cy="318.6" r="1"/>
		<circle class="st2" cx="319.9" cy="318.6" r="1"/>
		<circle class="st2" cx="-38.4" cy="336.5" r="1"/>
		<circle class="st2" cx="-20.5" cy="336.5" r="1"/>
		<circle class="st2" cx="-2.5" cy="336.5" r="1"/>
		<circle class="st2" cx="15.4" cy="336.5" r="1"/>
		<circle class="st2" cx="33.3" cy="336.5" r="1"/>
		<circle class="st2" cx="51.2" cy="336.5" r="1"/>
		<circle class="st2" cx="69.1" cy="336.5" r="1"/>
		<circle class="st2" cx="87" cy="336.5" r="1"/>
		<circle class="st2" cx="105" cy="336.5" r="1"/>
		<circle class="st2" cx="122.9" cy="336.5" r="1"/>
		<circle class="st2" cx="140.8" cy="336.5" r="1"/>
		<circle class="st2" cx="158.7" cy="336.5" r="1"/>
		<circle class="st2" cx="176.6" cy="336.5" r="1"/>
		<circle class="st2" cx="194.5" cy="336.5" r="1"/>
		<circle class="st2" cx="212.4" cy="336.5" r="1"/>
		<circle class="st2" cx="230.4" cy="336.5" r="1"/>
		<circle class="st2" cx="248.3" cy="336.5" r="1"/>
		<circle class="st2" cx="266.2" cy="336.5" r="1"/>
		<circle class="st2" cx="284.1" cy="336.5" r="1"/>
		<circle class="st2" cx="302" cy="336.5" r="1"/>
		<circle class="st2" cx="319.9" cy="336.5" r="1"/>
		<circle class="st2" cx="-38.4" cy="354.4" r="1"/>
		<circle class="st2" cx="-20.5" cy="354.4" r="1"/>
		<circle class="st2" cx="-2.5" cy="354.4" r="1"/>
		<circle class="st2" cx="15.4" cy="354.4" r="1"/>
		<circle class="st2" cx="33.3" cy="354.4" r="1"/>
		<circle class="st2" cx="51.2" cy="354.4" r="1"/>
		<circle class="st2" cx="69.1" cy="354.4" r="1"/>
		<circle class="st2" cx="87" cy="354.4" r="1"/>
		<circle class="st2" cx="105" cy="354.4" r="1"/>
		<circle class="st2" cx="122.9" cy="354.4" r="1"/>
		<circle class="st2" cx="140.8" cy="354.4" r="1"/>
		<circle class="st2" cx="158.7" cy="354.4" r="1"/>
		<circle class="st2" cx="176.6" cy="354.4" r="1"/>
		<circle class="st2" cx="194.5" cy="354.4" r="1"/>
		<circle class="st2" cx="212.4" cy="354.4" r="1"/>
		<circle class="st2" cx="230.4" cy="354.4" r="1"/>
		<circle class="st2" cx="248.3" cy="354.4" r="1"/>
		<circle class="st2" cx="266.2" cy="354.4" r="1"/>
		<circle class="st2" cx="284.1" cy="354.4" r="1"/>
		<circle class="st2" cx="302" cy="354.4" r="1"/>
		<circle class="st2" cx="-38.4" cy="372.3" r="1"/>
		<circle class="st2" cx="-20.5" cy="372.3" r="1"/>
		<circle class="st2" cx="-2.5" cy="372.3" r="1"/>
		<circle class="st2" cx="15.4" cy="372.3" r="1"/>
		<circle class="st2" cx="33.3" cy="372.3" r="1"/>
		<circle class="st2" cx="51.2" cy="372.3" r="1"/>
		<circle class="st2" cx="69.1" cy="372.3" r="1"/>
		<circle class="st2" cx="87" cy="372.3" r="1"/>
		<circle class="st2" cx="105" cy="372.3" r="1"/>
		<circle class="st2" cx="122.9" cy="372.3" r="1"/>
		<circle class="st2" cx="140.8" cy="372.3" r="1"/>
		<circle class="st2" cx="158.7" cy="372.3" r="1"/>
		<circle class="st2" cx="176.6" cy="372.3" r="1"/>
		<circle class="st2" cx="194.5" cy="372.3" r="1"/>
		<circle class="st2" cx="212.4" cy="372.3" r="1"/>
		<circle class="st2" cx="230.4" cy="372.3" r="1"/>
		<circle class="st2" cx="248.3" cy="372.3" r="1"/>
		<circle class="st2" cx="266.2" cy="372.3" r="1"/>
		<circle class="st2" cx="284.1" cy="372.3" r="1"/>
		<circle class="st2" cx="302" cy="372.3" r="1"/>
		<circle class="st2" cx="-38.4" cy="390.2" r="1"/>
		<circle class="st2" cx="-20.5" cy="390.2" r="1"/>
		<circle class="st2" cx="-2.5" cy="390.2" r="1"/>
		<circle class="st2" cx="15.4" cy="390.2" r="1"/>
		<circle class="st2" cx="33.3" cy="390.2" r="1"/>
		<circle class="st2" cx="51.2" cy="390.2" r="1"/>
		<circle class="st2" cx="69.1" cy="390.2" r="1"/>
		<circle class="st2" cx="87" cy="390.2" r="1"/>
		<circle class="st2" cx="105" cy="390.2" r="1"/>
		<circle class="st2" cx="122.9" cy="390.2" r="1"/>
		<circle class="st2" cx="140.8" cy="390.2" r="1"/>
		<circle class="st2" cx="158.7" cy="390.2" r="1"/>
		<circle class="st2" cx="176.6" cy="390.2" r="1"/>
		<circle class="st2" cx="194.5" cy="390.2" r="1"/>
		<circle class="st2" cx="212.4" cy="390.2" r="1"/>
		<circle class="st2" cx="230.4" cy="390.2" r="1"/>
		<circle class="st2" cx="248.3" cy="390.2" r="1"/>
		<circle class="st2" cx="266.2" cy="390.2" r="1"/>
		<circle class="st2" cx="284.1" cy="390.2" r="1"/>
		<circle class="st2" cx="-38.4" cy="408.2" r="1"/>
		<circle class="st2" cx="-20.5" cy="408.2" r="1"/>
		<circle class="st2" cx="-2.5" cy="408.2" r="1"/>
		<circle class="st2" cx="15.4" cy="408.2" r="1"/>
		<circle class="st2" cx="33.3" cy="408.2" r="1"/>
		<circle class="st2" cx="51.2" cy="408.2" r="1"/>
		<circle class="st2" cx="69.1" cy="408.2" r="1"/>
		<circle class="st2" cx="87" cy="408.2" r="1"/>
		<circle class="st2" cx="105" cy="408.2" r="1"/>
		<circle class="st2" cx="122.9" cy="408.2" r="1"/>
		<circle class="st2" cx="140.8" cy="408.2" r="1"/>
		<circle class="st2" cx="158.7" cy="408.2" r="1"/>
		<circle class="st2" cx="176.6" cy="408.2" r="1"/>
		<circle class="st2" cx="194.5" cy="408.2" r="1"/>
		<circle class="st2" cx="212.4" cy="408.2" r="1"/>
		<circle class="st2" cx="230.4" cy="408.2" r="1"/>
		<circle class="st2" cx="248.3" cy="408.2" r="1"/>
		<circle class="st2" cx="266.2" cy="408.2" r="1"/>
		<circle class="st2" cx="-38.4" cy="426.1" r="1"/>
		<circle class="st2" cx="-20.5" cy="426.1" r="1"/>
		<circle class="st2" cx="-2.5" cy="426.1" r="1"/>
		<circle class="st2" cx="15.4" cy="426.1" r="1"/>
		<circle class="st2" cx="33.3" cy="426.1" r="1"/>
		<circle class="st2" cx="51.2" cy="426.1" r="1"/>
		<circle class="st2" cx="69.1" cy="426.1" r="1"/>
		<circle class="st2" cx="87" cy="426.1" r="1"/>
		<circle class="st2" cx="105" cy="426.1" r="1"/>
		<circle class="st2" cx="122.9" cy="426.1" r="1"/>
		<circle class="st2" cx="140.8" cy="426.1" r="1"/>
		<circle class="st2" cx="158.7" cy="426.1" r="1"/>
		<circle class="st2" cx="176.6" cy="426.1" r="1"/>
		<circle class="st2" cx="194.5" cy="426.1" r="1"/>
		<circle class="st2" cx="212.4" cy="426.1" r="1"/>
		<circle class="st2" cx="230.4" cy="426.1" r="1"/>
		<circle class="st2" cx="248.3" cy="426.1" r="1"/>
		<circle class="st2" cx="266.2" cy="426.1" r="1"/>
		<circle class="st2" cx="-38.4" cy="444" r="1"/>
		<circle class="st2" cx="-20.5" cy="444" r="1"/>
		<circle class="st2" cx="-2.5" cy="444" r="1"/>
		<circle class="st2" cx="15.4" cy="444" r="1"/>
		<circle class="st2" cx="33.3" cy="444" r="1"/>
		<circle class="st2" cx="51.2" cy="444" r="1"/>
		<circle class="st2" cx="69.1" cy="444" r="1"/>
		<circle class="st2" cx="87" cy="444" r="1"/>
		<circle class="st2" cx="105" cy="444" r="1"/>
		<circle class="st2" cx="122.9" cy="444" r="1"/>
		<circle class="st2" cx="140.8" cy="444" r="1"/>
		<circle class="st2" cx="158.7" cy="444" r="1"/>
		<circle class="st2" cx="176.6" cy="444" r="1"/>
		<circle class="st2" cx="194.5" cy="444" r="1"/>
		<circle class="st2" cx="212.4" cy="444" r="1"/>
		<circle class="st2" cx="230.4" cy="444" r="1"/>
		<circle class="st2" cx="248.3" cy="444" r="1"/>
		<circle class="st2" cx="-38.4" cy="461.9" r="1"/>
		<circle class="st2" cx="-20.5" cy="461.9" r="1"/>
		<circle class="st2" cx="-2.5" cy="461.9" r="1"/>
		<circle class="st2" cx="15.4" cy="461.9" r="1"/>
		<circle class="st2" cx="33.3" cy="461.9" r="1"/>
		<circle class="st2" cx="51.2" cy="461.9" r="1"/>
		<circle class="st2" cx="69.1" cy="461.9" r="1"/>
		<circle class="st2" cx="87" cy="461.9" r="1"/>
		<circle class="st2" cx="105" cy="461.9" r="1"/>
		<circle class="st2" cx="122.9" cy="461.9" r="1"/>
		<circle class="st2" cx="140.8" cy="461.9" r="1"/>
		<circle class="st2" cx="158.7" cy="461.9" r="1"/>
		<circle class="st2" cx="176.6" cy="461.9" r="1"/>
		<circle class="st2" cx="194.5" cy="461.9" r="1"/>
		<circle class="st2" cx="212.4" cy="461.9" r="1"/>
		<circle class="st2" cx="230.4" cy="461.9" r="1"/>
		<circle class="st2" cx="248.3" cy="461.9" r="1"/>
		<circle class="st2" cx="-38.4" cy="479.8" r="1"/>
		<circle class="st2" cx="-20.5" cy="479.8" r="1"/>
		<circle class="st2" cx="-2.5" cy="479.8" r="1"/>
		<circle class="st2" cx="15.4" cy="479.8" r="1"/>
		<circle class="st2" cx="33.3" cy="479.8" r="1"/>
		<circle class="st2" cx="51.2" cy="479.8" r="1"/>
		<circle class="st2" cx="69.1" cy="479.8" r="1"/>
		<circle class="st2" cx="87" cy="479.8" r="1"/>
		<circle class="st2" cx="105" cy="479.8" r="1"/>
		<circle class="st2" cx="122.9" cy="479.8" r="1"/>
		<circle class="st2" cx="140.8" cy="479.8" r="1"/>
		<circle class="st2" cx="158.7" cy="479.8" r="1"/>
		<circle class="st2" cx="176.6" cy="479.8" r="1"/>
		<circle class="st2" cx="194.5" cy="479.8" r="1"/>
		<circle class="st2" cx="212.4" cy="479.8" r="1"/>
		<circle class="st2" cx="230.4" cy="479.8" r="1"/>
		<circle class="st2" cx="-38.4" cy="497.7" r="1"/>
		<circle class="st2" cx="-20.5" cy="497.7" r="1"/>
		<circle class="st2" cx="-2.5" cy="497.7" r="1"/>
		<circle class="st2" cx="15.4" cy="497.7" r="1"/>
		<circle class="st2" cx="33.3" cy="497.7" r="1"/>
		<circle class="st2" cx="51.2" cy="497.7" r="1"/>
		<circle class="st2" cx="69.1" cy="497.7" r="1"/>
		<circle class="st2" cx="87" cy="497.7" r="1"/>
		<circle class="st2" cx="105" cy="497.7" r="1"/>
		<circle class="st2" cx="122.9" cy="497.7" r="1"/>
		<circle class="st2" cx="140.8" cy="497.7" r="1"/>
		<circle class="st2" cx="158.7" cy="497.7" r="1"/>
		<circle class="st2" cx="176.6" cy="497.7" r="1"/>
		<circle class="st2" cx="194.5" cy="497.7" r="1"/>
		<circle class="st2" cx="212.4" cy="497.7" r="1"/>
		<circle class="st2" cx="-38.4" cy="515.7" r="1"/>
		<circle class="st2" cx="-20.5" cy="515.7" r="1"/>
		<circle class="st2" cx="-2.5" cy="515.7" r="1"/>
		<circle class="st2" cx="15.4" cy="515.7" r="1"/>
		<circle class="st2" cx="33.3" cy="515.7" r="1"/>
		<circle class="st2" cx="51.2" cy="515.7" r="1"/>
		<circle class="st2" cx="69.1" cy="515.7" r="1"/>
		<circle class="st2" cx="87" cy="515.7" r="1"/>
		<circle class="st2" cx="105" cy="515.7" r="1"/>
		<circle class="st2" cx="122.9" cy="515.7" r="1"/>
		<circle class="st2" cx="140.8" cy="515.7" r="1"/>
		<circle class="st2" cx="158.7" cy="515.7" r="1"/>
		<circle class="st2" cx="176.6" cy="515.7" r="1"/>
		<circle class="st2" cx="194.5" cy="515.7" r="1"/>
		<circle class="st2" cx="212.4" cy="515.7" r="1"/>
		<circle class="st2" cx="-38.4" cy="533.6" r="1"/>
		<circle class="st2" cx="-20.5" cy="533.6" r="1"/>
		<circle class="st2" cx="-2.5" cy="533.6" r="1"/>
		<circle class="st2" cx="15.4" cy="533.6" r="1"/>
		<circle class="st2" cx="33.3" cy="533.6" r="1"/>
		<circle class="st2" cx="51.2" cy="533.6" r="1"/>
		<circle class="st2" cx="69.1" cy="533.6" r="1"/>
		<circle class="st2" cx="87" cy="533.6" r="1"/>
		<circle class="st2" cx="105" cy="533.6" r="1"/>
		<circle class="st2" cx="122.9" cy="533.6" r="1"/>
		<circle class="st2" cx="140.8" cy="533.6" r="1"/>
		<circle class="st2" cx="158.7" cy="533.6" r="1"/>
		<circle class="st2" cx="176.6" cy="533.6" r="1"/>
		<circle class="st2" cx="194.5" cy="533.6" r="1"/>
		<circle class="st2" cx="-38.4" cy="551.5" r="1"/>
		<circle class="st2" cx="-20.5" cy="551.5" r="1"/>
		<circle class="st2" cx="-2.5" cy="551.5" r="1"/>
		<circle class="st2" cx="15.4" cy="551.5" r="1"/>
		<circle class="st2" cx="33.3" cy="551.5" r="1"/>
		<circle class="st2" cx="51.2" cy="551.5" r="1"/>
		<circle class="st2" cx="69.1" cy="551.5" r="1"/>
		<circle class="st2" cx="87" cy="551.5" r="1"/>
		<circle class="st2" cx="105" cy="551.5" r="1"/>
		<circle class="st2" cx="122.9" cy="551.5" r="1"/>
		<circle class="st2" cx="140.8" cy="551.5" r="1"/>
		<circle class="st2" cx="158.7" cy="551.5" r="1"/>
		<circle class="st2" cx="176.6" cy="551.5" r="1"/>
		<circle class="st2" cx="194.5" cy="551.5" r="1"/>
		<circle class="st2" cx="-38.4" cy="569.4" r="1"/>
		<circle class="st2" cx="-20.5" cy="569.4" r="1"/>
		<circle class="st2" cx="-2.5" cy="569.4" r="1"/>
		<circle class="st2" cx="15.4" cy="569.4" r="1"/>
		<circle class="st2" cx="33.3" cy="569.4" r="1"/>
		<circle class="st2" cx="51.2" cy="569.4" r="1"/>
		<circle class="st2" cx="69.1" cy="569.4" r="1"/>
		<circle class="st2" cx="87" cy="569.4" r="1"/>
		<circle class="st2" cx="105" cy="569.4" r="1"/>
		<circle class="st2" cx="122.9" cy="569.4" r="1"/>
		<circle class="st2" cx="140.8" cy="569.4" r="1"/>
		<circle class="st2" cx="158.7" cy="569.4" r="1"/>
		<circle class="st2" cx="176.6" cy="569.4" r="1"/>
		<circle class="st2" cx="-38.4" cy="587.3" r="1"/>
		<circle class="st2" cx="-20.5" cy="587.3" r="1"/>
		<circle class="st2" cx="-2.5" cy="587.3" r="1"/>
		<circle class="st2" cx="15.4" cy="587.3" r="1"/>
		<circle class="st2" cx="33.3" cy="587.3" r="1"/>
		<circle class="st2" cx="51.2" cy="587.3" r="1"/>
		<circle class="st2" cx="69.1" cy="587.3" r="1"/>
		<circle class="st2" cx="87" cy="587.3" r="1"/>
		<circle class="st2" cx="105" cy="587.3" r="1"/>
		<circle class="st2" cx="122.9" cy="587.3" r="1"/>
		<circle class="st2" cx="140.8" cy="587.3" r="1"/>
		<circle class="st2" cx="158.7" cy="587.3" r="1"/>
		<circle class="st2" cx="-38.4" cy="605.2" r="1"/>
		<circle class="st2" cx="-20.5" cy="605.2" r="1"/>
		<circle class="st2" cx="-2.5" cy="605.2" r="1"/>
		<circle class="st2" cx="15.4" cy="605.2" r="1"/>
		<circle class="st2" cx="33.3" cy="605.2" r="1"/>
		<circle class="st2" cx="51.2" cy="605.2" r="1"/>
		<circle class="st2" cx="69.1" cy="605.2" r="1"/>
		<circle class="st2" cx="87" cy="605.2" r="1"/>
		<circle class="st2" cx="105" cy="605.2" r="1"/>
		<circle class="st2" cx="122.9" cy="605.2" r="1"/>
		<circle class="st2" cx="140.8" cy="605.2" r="1"/>
		<circle class="st2" cx="158.7" cy="605.2" r="1"/>
		<circle class="st2" cx="-38.4" cy="623.1" r="1"/>
		<circle class="st2" cx="-20.5" cy="623.1" r="1"/>
		<circle class="st2" cx="-2.5" cy="623.1" r="1"/>
		<circle class="st2" cx="15.4" cy="623.1" r="1"/>
		<circle class="st2" cx="33.3" cy="623.1" r="1"/>
		<circle class="st2" cx="51.2" cy="623.1" r="1"/>
		<circle class="st2" cx="69.1" cy="623.1" r="1"/>
		<circle class="st2" cx="87" cy="623.1" r="1"/>
		<circle class="st2" cx="105" cy="623.1" r="1"/>
		<circle class="st2" cx="122.9" cy="623.1" r="1"/>
		<circle class="st2" cx="140.8" cy="623.1" r="1"/>
		<circle class="st2" cx="-38.4" cy="641.1" r="1"/>
		<circle class="st2" cx="-20.5" cy="641.1" r="1"/>
		<circle class="st2" cx="-2.5" cy="641.1" r="1"/>
		<circle class="st2" cx="15.4" cy="641.1" r="1"/>
		<circle class="st2" cx="33.3" cy="641.1" r="1"/>
		<circle class="st2" cx="51.2" cy="641.1" r="1"/>
		<circle class="st2" cx="69.1" cy="641.1" r="1"/>
		<circle class="st2" cx="87" cy="641.1" r="1"/>
		<circle class="st2" cx="105" cy="641.1" r="1"/>
		<circle class="st2" cx="122.9" cy="641.1" r="1"/>
		<circle class="st2" cx="140.8" cy="641.1" r="1"/>
		<circle class="st2" cx="-38.4" cy="659" r="1"/>
		<circle class="st2" cx="-20.5" cy="659" r="1"/>
		<circle class="st2" cx="-2.5" cy="659" r="1"/>
		<circle class="st2" cx="15.4" cy="659" r="1"/>
		<circle class="st2" cx="33.3" cy="659" r="1"/>
		<circle class="st2" cx="51.2" cy="659" r="1"/>
		<circle class="st2" cx="69.1" cy="659" r="1"/>
		<circle class="st2" cx="87" cy="659" r="1"/>
		<circle class="st2" cx="105" cy="659" r="1"/>
		<circle class="st2" cx="122.9" cy="659" r="1"/>
	</g>
	<g class="st1">
		<polygon class="st3" points="122.2,43.5 96.9,15.7 71.5,43.5 46.2,15.7 20.9,43.5 		"/>
	</g>
	<polygon class="st4" points="233.8,-16.6 -70.1,256.1 -70.1,570 31.7,570 385.5,-16.6 	"/>
</g>
</svg>
