<?xml version="1.0" encoding="utf-8"?>
<!-- Generator: Adobe Illustrator 19.2.1, SVG Export Plug-In . SVG Version: 6.00 Build 0)  -->
<svg version="1.1" id="Capa_1" xmlns="http://www.w3.org/2000/svg" xmlns:xlink="http://www.w3.org/1999/xlink" x="0px" y="0px"
	 viewBox="0 0 608.3 29.1" style="enable-background:new 0 0 608.3 29.1;" xml:space="preserve">
<style type="text/css">
	.st0{fill:#43437C;}
</style>
<title>brand_pink</title>
<path class="st0" d="M596.3,14.3c0,1.7,1.4,3.1,3.2,3.1c1.7,0,3.1-1.4,3.1-3.2c0-1.7-1.4-3.1-3.1-3.1
	C597.7,11.2,596.3,12.6,596.3,14.3C596.3,14.3,596.3,14.3,596.3,14.3z"/>
<path class="st0" d="M561.5,14.3c0,1.9,1.6,3.4,3.5,3.4c1.9,0,3.4-1.6,3.4-3.5c0-1.9-1.5-3.4-3.4-3.4
	C563.1,10.8,561.5,12.4,561.5,14.3C561.5,14.3,561.5,14.3,561.5,14.3z"/>
<circle class="st0" cx="530.5" cy="14.3" r="3.7"/>
<ellipse class="st0" cx="496" cy="14.3" rx="3.9" ry="3.9"/>
<ellipse class="st0" cx="461.5" cy="14.3" rx="4.2" ry="4.2"/>
<ellipse class="st0" cx="427.1" cy="14.3" rx="4.5" ry="4.5"/>
<ellipse class="st0" cx="392.6" cy="14.3" rx="4.8" ry="4.8"/>
<circle class="st0" cx="358.1" cy="14.3" r="5.1"/>
<circle class="st0" cx="323.7" cy="14.3" r="5.5"/>
<circle class="st0" cx="289.2" cy="14.3" r="5.7"/>
<circle class="st0" cx="254.7" cy="14.3" r="5.9"/>
<path class="st0" d="M214,14.3c0,3.4,2.8,6.2,6.2,6.2s6.2-2.8,6.2-6.2c0-3.4-2.8-6.2-6.2-6.2S214,10.9,214,14.3
	C214,14.3,214,14.3,214,14.3z"/>
<circle class="st0" cx="185.8" cy="14.3" r="6.5"/>
<ellipse class="st0" cx="151.3" cy="14.3" rx="6.8" ry="6.8"/>
<circle class="st0" cx="116.8" cy="14.3" r="7.1"/>
<circle class="st0" cx="82.4" cy="14.3" r="7.4"/>
<circle class="st0" cx="47.9" cy="14.3" r="7.7"/>
<path class="st0" d="M5.5,14.3c0,4.4,3.6,7.9,7.9,7.9s7.9-3.6,7.9-7.9s-3.6-7.9-7.9-7.9C9.1,6.4,5.5,9.9,5.5,14.3L5.5,14.3z"/>
</svg>
