<?xml version="1.0" encoding="utf-8"?>
<!-- Generator: Adobe Illustrator 19.2.1, SVG Export Plug-In . SVG Version: 6.00 Build 0)  -->
<svg version="1.1" id="Capa_1" xmlns="http://www.w3.org/2000/svg" xmlns:xlink="http://www.w3.org/1999/xlink" x="0px" y="0px"
	 viewBox="0 0 165.2 94" style="enable-background:new 0 0 165.2 94;" xml:space="preserve">
<style type="text/css">
	.st0{fill:#3F3C79;}
</style>
<g>
	<path class="st0" d="M68,25.1c0-0.2,0.2-1.2-0.5-2.6l-4.1-6.7l0,0c0,0,0-0.1-0.1-0.1c0,0,0,0,0-0.1c-0.1-0.2-0.3-0.3-0.4-0.5
		c0,0,0,0,0,0c-1.3-1-3.6-0.2-3.6-0.2l0,0l-13.7,4.4l0,0c-0.9,0.3-1.1,1.4-1,2c0,8.6-4.2,15.6-10.8,19.2l3.8-28.5l0.1-0.7
		c0-0.2,0-0.4-0.1-0.6c-0.3-0.7-1-0.9-1-0.9l-0.1,0c-0.1-0.1-0.2-0.1-0.4-0.1c-0.8-0.3-11.7-4-12.7-4.4c-1.2-0.5-2.1,0-2.4,0.1
		l-1.2,0.6c-0.5,0.2-12,6.1-13,6.6c-0.1,0.1-0.3,0.2-0.3,0.2c-0.1,0.1-0.3,0.2-0.4,0.3c-0.5,0.3-0.3,1.2-0.3,1.2L5.8,15c0,0,0,0,0,0
		l0,0.2l0,0.2l0,0l0.1,0.3l5,22.7l0.1,0.5c0,0.1,0.1,0.6,0.4,1c-0.1,0.1-0.3,0.2-0.4,0.3l-4,3.7L7,44.1c0,0-0.6,0.5-0.7,1.8
		c0,0.2,0,0.4,0,0.5v2.7c0,0.2,0,1.1,0.7,1.9l0,0c0.5,0.5,1.2,1.2,1.6,1.5c1.9,1.7,4.2,3.1,6.8,4.2c0,0,0,0.1,0,0.1L8.4,79.2l0,0
		l-0.2,0.7c0,0,0,0.1,0,0.2c0,0.1,0,0.2,0,0.3c0,0.4,0.1,0.9,0.6,1.3c0,0,0,0,0,0l0,0L9,81.8c0.4,0.3,0.6,0.5,0.8,0.6l6,4.6
		c0.2,0.2,0.5,0.4,1,0.4c0.3,0,0.6-0.1,0.9-0.3l12.2-7c0,0,0,0,0.1-0.1c0.1-0.1,0.6-0.4,0.7-1.4c0-0.1,0-0.3,0-0.4l0,0c0,0,0,0,0,0
		c0,0,0,0,0-0.1l0.1-9.9c1.1,0.4,4.2,1.5,7.6,3.9c3.8,2.7,8.8,7.5,10.8,15.1c0.2,0.6,0.7,1.2,1.4,1.2h4.2l0,0h0.6c0,0,0.1,0,0.2,0
		c0,0,0,0,0,0c0.3,0,1-0.2,1.5-0.6c0,0,0,0,0,0l4.3-3.7c0.4-0.3,0.7-0.9,0.5-1.6c-4.1-14.9-16.3-22.2-22-24.9
		c5.6-1.5,10.6-4.1,14.7-7.6C61.4,44.1,66.1,35.5,68,25.1z M7.2,13.3C8.2,12.8,20,6.8,20.1,6.7l1.3-0.6c0,0,0.7-0.5,1.7-0.1
		c1.1,0.4,12.7,4.4,12.8,4.4c0,0,0.2,0,0.3,0.2c0,0.1,0,0.3-0.6,0.7c-1.2,0.9-12,9.3-12.1,9.4c0,0-0.6,0.6-1.7,0
		C20.5,20,7.4,14.3,7.3,14.2c-0.1-0.1-0.4-0.3-0.4-0.5C6.9,13.5,7,13.4,7.2,13.3z M22.9,44.1h-0.2C22.8,44.1,22.8,44.1,22.9,44.1
		C22.9,44.1,22.9,44.1,22.9,44.1z M6.7,15.5l-0.2-0.7c0,0,0-0.1,0.1-0.1c0,0,0,0,0,0c0,0,0.1,0,0.1,0c0.1,0.1,12.7,5.7,14.3,6.4
		c1.4,0.6,1.3,1.4,1.3,1.4l0,0c0,0.2,0,20.1,0,20.6c0,0.3-0.3,0.3-0.4,0.3c-5.7-0.3-9.5-3.5-9.5-3.6c-0.6-0.4-0.7-1.1-0.7-1.1
		L6.7,15.5z M21.2,72.8L9.1,80.2c-0.1,0-0.1,0-0.1,0c0,0,0-0.1,0-0.1l7.1-23c0-0.1,0.1-0.1,0.1-0.1c0.1,0,0.2,0,0.3,0.1
		c0.1,0,0.2,0.1,0.3,0.1l0.5,0.2c1.4,0.4,2.9,0.8,4.4,1.1l0.2,0c0.8,0.1,0.8,0.3,0.7,0.8l-1,13C21.6,72.5,21.4,72.7,21.2,72.8z
		 M29.8,78.3c0,0.1,0,0.2-0.1,0.2c-0.1,0-0.1,0-0.2-0.1L22.6,73c-0.2-0.2-0.3-0.4-0.3-0.7l0.9-12.9c0-0.2,0.1-0.4,0.3-0.6
		c0.1-0.1,0.3-0.2,0.5-0.2c0,0,0.1,0,0.1,0l0.3,0.1c1.3,0.1,2.6,0.2,3.9,0.2c0,0,0,0,0,0l0.6,0c0.3,0,0.6,0,0.7,0.2
		c0.1,0.1,0.2,0.3,0.2,0.5L29.8,78.3z M24.6,52.2c0.1,0,0.1,0,0.2,0c0.1,0,0.1,0,0.2,0H24.6z M61,82.7c0.1,0.5-0.2,0.7-0.2,0.7
		l-4.4,3.8c0,0-0.1,0.1-0.1,0.1c0,0-0.1-0.1-0.1-0.2c-2.6-10.2-9.3-16.7-14.5-20.4c-5.6-4-10.7-5.5-10.8-5.6
		c-0.5-0.2-0.5-0.6-0.5-0.6l0-1.2c0-0.2,0-0.3,0.1-0.4c0.1-0.1,0.2-0.1,0.2-0.1c2.4-0.1,4.8-0.5,6.8-0.9c0.7-0.1,1.3,0.1,1.3,0.1
		C44.1,60.4,56.8,67.5,61,82.7z M24.8,52.1c-6.1,0-11.8-2-16.1-5.5c-0.3-0.3-1-0.9-1.3-1.3c-0.3-0.4-0.1-0.6,0-0.6l4.2-3.9
		c0,0,0.3-0.3,0.6-0.3c0.1,0,0.1,0,0.2,0.1c3.1,2.3,6.7,3.5,10.3,3.6l0.2,0v0c13-0.1,22.4-9.6,22.4-22.8c0,0-0.1-1,0.4-1.2l14.1-4.5
		c0,0,0.6-0.2,1,0.1c0.2,0.1,0.3,0.4,0.3,0.7c0,9.7-3.8,18.8-10.7,25.4C43.7,48.5,34.6,52.1,24.8,52.1z"/>
	<g>
		<g>
			<path class="st0" d="M75.9,62.6l-6.4-10.5l-0.1,0l0,10.4l-2.6,0l0-20.8l2.6,0l0,9.3l0.1,0l6-9.3l3.1,0L72,51.4l7.1,11.2
				L75.9,62.6z"/>
			<path class="st0" d="M87.9,54.3l0,8.3l-2.6,0l0-8.3l-5.2-12.5l2.9,0l3.6,9.8l3.7-9.8l2.8,0L87.9,54.3z"/>
			<path class="st0" d="M110.5,62.6l0-17.2h-0.1l-4.7,17.2l-2.4,0l-4.6-17.2h-0.1l0,17.2l-2.4,0l0-20.8l3.9,0l4.4,16.5l0.1,0
				l4.4-16.5l4.1,0l0,20.8L110.5,62.6z"/>
			<path class="st0" d="M118.8,62.6l0-20.8l8.8,0l0,2.4l-6.2,0l0,6.6l5.8,0l0,2.2l-5.8,0l0,7.3l6.5,0l0,2.4L118.8,62.6z"/>
			<path class="st0" d="M140.8,62.7l-3.5-9.3l-2.4,0l0,9.3l-2.6,0l0-20.8l5.4,0c0.8,0,1.5,0.1,2.2,0.3c0.7,0.2,1.3,0.5,1.8,1
				c0.5,0.5,0.9,1,1.2,1.8c0.3,0.7,0.4,1.6,0.4,2.6c0,0.8-0.1,1.6-0.3,2.2c-0.2,0.6-0.5,1.2-0.8,1.6c-0.3,0.4-0.7,0.8-1.1,1
				c-0.4,0.3-0.8,0.4-1.2,0.5l3.9,9.8L140.8,62.7z M140.7,47.6c0-0.7-0.1-1.3-0.3-1.7c-0.2-0.5-0.5-0.8-0.8-1.1
				c-0.3-0.3-0.7-0.5-1.1-0.6c-0.4-0.1-0.8-0.2-1.2-0.2l-2.4,0l0,7.3l2.4,0c1,0,1.8-0.3,2.4-1C140.3,49.7,140.7,48.8,140.7,47.6z"/>
			<path class="st0" d="M156.8,62.7l-1.2-4.9l-6,0l-1.2,4.9l-2.7,0l5.3-20.8l3.5,0l5.1,20.8L156.8,62.7z M152.7,44.3h-0.1l-2.7,11.4
				l5.3,0L152.7,44.3z"/>
		</g>
		<g>
			<path class="st0" d="M67.4,71.2c0.1,0.1,0.2,0.2,0.4,0.3c0.1,0.1,0.3,0.1,0.5,0.1c0.1,0,0.2,0,0.3,0c0.1,0,0.2-0.1,0.2-0.1
				c0.1-0.1,0.1-0.1,0.2-0.2c0-0.1,0.1-0.2,0.1-0.3c0-0.1,0-0.3-0.1-0.3c-0.1-0.1-0.2-0.1-0.3-0.2c-0.1-0.1-0.3-0.1-0.5-0.2
				c-0.2,0-0.3-0.1-0.5-0.2c-0.1-0.1-0.3-0.2-0.3-0.3c-0.1-0.1-0.1-0.3-0.1-0.6c0-0.1,0-0.2,0.1-0.4c0-0.1,0.1-0.2,0.2-0.3
				s0.2-0.2,0.4-0.3c0.2-0.1,0.4-0.1,0.6-0.1c0.2,0,0.4,0,0.6,0.1c0.2,0.1,0.4,0.2,0.5,0.4L69,69c-0.1-0.1-0.2-0.2-0.3-0.2
				c-0.1-0.1-0.3-0.1-0.4-0.1c-0.1,0-0.3,0-0.4,0.1c-0.1,0-0.2,0.1-0.2,0.1c-0.1,0.1-0.1,0.1-0.1,0.2c0,0.1,0,0.1,0,0.2
				c0,0.2,0,0.3,0.1,0.4c0.1,0.1,0.2,0.2,0.3,0.2c0.1,0.1,0.3,0.1,0.5,0.1c0.2,0,0.3,0.1,0.5,0.2c0.1,0.1,0.3,0.2,0.3,0.3
				c0.1,0.1,0.1,0.3,0.1,0.5c0,0.2,0,0.3-0.1,0.5c-0.1,0.1-0.2,0.3-0.3,0.4c-0.1,0.1-0.3,0.2-0.4,0.2c-0.2,0.1-0.3,0.1-0.5,0.1
				c-0.2,0-0.5,0-0.7-0.1c-0.2-0.1-0.4-0.2-0.5-0.4L67.4,71.2z"/>
			<path class="st0" d="M82.8,68.7h-1.2v-0.5h3v0.5h-1.2V72h-0.5V68.7z"/>
			<path class="st0" d="M97.3,68.2v2.3c0,0.1,0,0.2,0,0.4c0,0.1,0.1,0.2,0.2,0.4c0.1,0.1,0.2,0.2,0.3,0.3c0.1,0.1,0.3,0.1,0.5,0.1
				c0.2,0,0.3,0,0.5-0.1c0.1-0.1,0.2-0.2,0.3-0.3c0.1-0.1,0.1-0.2,0.2-0.4c0-0.1,0-0.3,0-0.4v-2.3h0.5v2.4c0,0.2,0,0.4-0.1,0.6
				c-0.1,0.2-0.2,0.3-0.3,0.5C99.2,71.9,99,72,98.8,72c-0.2,0.1-0.4,0.1-0.6,0.1c-0.2,0-0.4,0-0.6-0.1c-0.2-0.1-0.3-0.2-0.5-0.3
				c-0.1-0.1-0.2-0.3-0.3-0.5c-0.1-0.2-0.1-0.4-0.1-0.6v-2.4H97.3z"/>
			<path class="st0" d="M112.3,68.2h1.3c0.3,0,0.5,0,0.7,0.1c0.2,0.1,0.4,0.1,0.5,0.2c0.1,0.1,0.3,0.2,0.4,0.4
				c0.1,0.1,0.2,0.3,0.2,0.4c0.1,0.1,0.1,0.3,0.1,0.4c0,0.1,0,0.3,0,0.4c0,0.2,0,0.5-0.1,0.7c-0.1,0.2-0.2,0.4-0.4,0.6
				c-0.2,0.2-0.4,0.3-0.7,0.4c-0.3,0.1-0.6,0.2-0.9,0.2h-1.2V68.2z M112.8,71.6h0.7c0.2,0,0.4,0,0.6-0.1c0.2-0.1,0.4-0.1,0.5-0.3
				c0.1-0.1,0.3-0.3,0.4-0.4s0.1-0.4,0.1-0.6c0-0.1,0-0.3-0.1-0.4c0-0.2-0.1-0.3-0.2-0.5c-0.1-0.1-0.3-0.3-0.5-0.4
				c-0.2-0.1-0.4-0.2-0.8-0.2h-0.8V71.6z"/>
			<path class="st0" d="M128.1,68.2h0.5V72h-0.5V68.2z"/>
			<path class="st0" d="M143.1,72.1c-0.3,0-0.6-0.1-0.8-0.2c-0.2-0.1-0.5-0.2-0.6-0.4c-0.2-0.2-0.3-0.4-0.4-0.6
				c-0.1-0.2-0.1-0.5-0.1-0.8c0-0.3,0-0.5,0.1-0.8c0.1-0.2,0.2-0.5,0.4-0.6c0.2-0.2,0.4-0.3,0.6-0.4c0.2-0.1,0.5-0.2,0.8-0.2
				c0.3,0,0.6,0.1,0.8,0.2c0.2,0.1,0.5,0.2,0.6,0.4c0.2,0.2,0.3,0.4,0.4,0.6c0.1,0.2,0.1,0.5,0.1,0.8c0,0.3,0,0.5-0.1,0.8
				c-0.1,0.2-0.2,0.5-0.4,0.6c-0.2,0.2-0.4,0.3-0.6,0.4C143.7,72.1,143.4,72.1,143.1,72.1z M143.1,71.7c0.2,0,0.4,0,0.6-0.1
				c0.2-0.1,0.3-0.2,0.5-0.3c0.1-0.1,0.2-0.3,0.3-0.5s0.1-0.4,0.1-0.6c0-0.2,0-0.4-0.1-0.6s-0.2-0.3-0.3-0.5
				c-0.1-0.1-0.3-0.2-0.5-0.3c-0.2-0.1-0.4-0.1-0.6-0.1c-0.2,0-0.4,0-0.6,0.1c-0.2,0.1-0.3,0.2-0.5,0.3c-0.1,0.1-0.2,0.3-0.3,0.5
				c-0.1,0.2-0.1,0.4-0.1,0.6c0,0.2,0,0.4,0.1,0.6c0.1,0.2,0.2,0.3,0.3,0.5c0.1,0.1,0.3,0.2,0.5,0.3
				C142.7,71.6,142.9,71.7,143.1,71.7z"/>
			<path class="st0" d="M157.7,71.2c0.1,0.1,0.2,0.2,0.4,0.3c0.1,0.1,0.3,0.1,0.5,0.1c0.1,0,0.2,0,0.3,0c0.1,0,0.2-0.1,0.2-0.1
				c0.1-0.1,0.1-0.1,0.2-0.2c0-0.1,0.1-0.2,0.1-0.3c0-0.1,0-0.3-0.1-0.3c-0.1-0.1-0.2-0.1-0.3-0.2c-0.1-0.1-0.3-0.1-0.5-0.2
				c-0.2,0-0.3-0.1-0.5-0.2c-0.1-0.1-0.3-0.2-0.3-0.3c-0.1-0.1-0.1-0.3-0.1-0.6c0-0.1,0-0.2,0.1-0.4c0-0.1,0.1-0.2,0.2-0.3
				c0.1-0.1,0.2-0.2,0.4-0.3c0.2-0.1,0.4-0.1,0.6-0.1c0.2,0,0.4,0,0.6,0.1c0.2,0.1,0.4,0.2,0.5,0.4l-0.4,0.4
				c-0.1-0.1-0.2-0.2-0.3-0.2c-0.1-0.1-0.3-0.1-0.4-0.1c-0.1,0-0.3,0-0.4,0.1c-0.1,0-0.2,0.1-0.2,0.1c-0.1,0.1-0.1,0.1-0.1,0.2
				c0,0.1,0,0.1,0,0.2c0,0.2,0,0.3,0.1,0.4c0.1,0.1,0.2,0.2,0.3,0.2c0.1,0.1,0.3,0.1,0.5,0.1c0.2,0,0.3,0.1,0.5,0.2
				c0.1,0.1,0.3,0.2,0.3,0.3c0.1,0.1,0.1,0.3,0.1,0.5c0,0.2,0,0.3-0.1,0.5c-0.1,0.1-0.2,0.3-0.3,0.4c-0.1,0.1-0.3,0.2-0.4,0.2
				c-0.2,0.1-0.3,0.1-0.5,0.1c-0.2,0-0.5,0-0.7-0.1c-0.2-0.1-0.4-0.2-0.5-0.4L157.7,71.2z"/>
		</g>
	</g>
</g>
</svg>
