<?xml version="1.0" encoding="utf-8"?>
<!-- Generator: Adobe Illustrator 19.2.1, SVG Export Plug-In . SVG Version: 6.00 Build 0)  -->
<svg version="1.1" id="Layer_1" xmlns="http://www.w3.org/2000/svg" xmlns:xlink="http://www.w3.org/1999/xlink" x="0px" y="0px"
	 viewBox="0 0 9.3 8.8" style="enable-background:new 0 0 9.3 8.8;" xml:space="preserve">
<style type="text/css">
	.st0{fill:#FFFFFF;}
</style>
<path class="st0" d="M5.5,5c0,0,0.1,0,0.1,0.1l0,0c0.1,0,0.2,0.1,0.4,0.1c0.1,0,0.3,0,0.4-0.1l0,0c0.1,0,0.2-0.1,0.3-0.2l0,0l0,0
	c0.1-0.1,0.2-0.2,0.2-0.3l0,0C7,4.4,7,4.2,7,4.1C7,4,7,3.8,6.9,3.7l0,0c0,0,0-0.1-0.1-0.1l0.7-0.7c0.1-0.1,0.1-0.3,0-0.4
	c0,0-0.1-0.1-0.1-0.1L6.5,2.3l0,0L5.7,2.1L5.2,1.6L4.7,1.1C4.6,1,4.4,1,4.3,1.1l0,0v0L3.6,1.7l0,0L3,2.4C2.9,2.5,2.9,2.7,3,2.8
	l0.4,0.4l-1,1l0,0c0,0-0.1,0-0.1,0c-0.1,0-0.3,0.1-0.4,0.2C1.7,4.3,1.7,4.5,1.7,4.6c0,0.1,0.1,0.3,0.2,0.4c0.1,0.1,0.2,0.2,0.4,0.2
	c0.1,0,0.1,0,0.1,0l0,0l1.5,1.5c0,0-0.1,0-0.1,0.1C3.4,6.8,3.1,7,2.8,7.3c-0.1,0.1-0.1,0.3,0,0.4C2.9,7.7,3,7.7,3,7.7h0h0h3.5h0h0
	c0.1,0,0.1,0,0.2-0.1c0.1-0.1,0.1-0.3,0-0.4C6.5,7,6.2,6.8,5.8,6.7C5.5,6.5,5.2,6.4,4.8,6.4c-0.1,0-0.2,0-0.4,0L2.7,4.8l0,0
	c0,0,0-0.1,0-0.1c0-0.1,0-0.1,0-0.1l0,0l1-1L4,3.8l0.2,0.8l0.2,0.9c0,0.1,0.2,0.2,0.3,0.2c0.1,0,0.1,0,0.1-0.1l0,0L5.5,5L5.5,5z
	 M5.3,2.4L4.3,3.4L3.9,2.9l0,0v0l0,0l0,0L3.5,2.6L4,2.1l0,0l0.5-0.5L4.8,2L5.3,2.4L5.3,2.4z M4.5,3.6l1-1l0.9,0.2l0,0l0.4,0.1l-1,1
	l-1,1L4.7,4.5L4.5,3.6L4.5,3.6z M3.5,7.4c0.1-0.1,0.3-0.2,0.5-0.3C4.2,7,4.5,7,4.8,7C5.1,7,5.4,7,5.6,7.1C5.8,7.2,6,7.3,6.1,7.4H3.5
	L3.5,7.4z M5.7,4.7l0.4-0.4l0.4-0.4c0,0.1,0,0.2,0,0.3c0,0.1,0,0.2,0,0.3l0,0c0,0.1-0.1,0.2-0.1,0.2v0C6.4,4.6,6.3,4.7,6.3,4.7l0,0
	C6.2,4.8,6.1,4.8,6,4.8C5.9,4.8,5.8,4.8,5.7,4.7L5.7,4.7L5.7,4.7z M2.1,4.5c0,0,0.1-0.1,0.2-0.1c0.1,0,0.1,0,0.2,0.1
	c0,0,0.1,0.1,0.1,0.2c0,0.1,0,0.1-0.1,0.2c0,0-0.1,0.1-0.2,0.1c-0.1,0-0.1,0-0.2-0.1C2,4.7,2,4.7,2,4.6C2,4.6,2,4.5,2.1,4.5z"/>
</svg>
