<?xml version="1.0" encoding="utf-8"?>
<!-- Generator: Adobe Illustrator 19.2.1, SVG Export Plug-In . SVG Version: 6.00 Build 0)  -->
<svg version="1.1" id="Layer_1" xmlns="http://www.w3.org/2000/svg" xmlns:xlink="http://www.w3.org/1999/xlink" x="0px" y="0px"
	 viewBox="0 0 9.3 8.8" style="enable-background:new 0 0 9.3 8.8;" xml:space="preserve">
<style type="text/css">
	.st0{fill:#FFFFFF;}
</style>
<g>
	<path class="st0" d="M7.8,3.6L7.8,3.6C7.6,3.1,7.4,2.8,7,2.5C6.7,2.1,6.4,1.9,6,1.7C5.6,1.6,5.1,1.5,4.7,1.5c-0.9,0-1.8,0.4-2.4,1
		C2,2.8,1.7,3.1,1.6,3.5C1.4,3.9,1.3,4.4,1.3,4.8c0,0.5,0.1,0.9,0.3,1.3C1.7,6.5,2,6.9,2.3,7.2c0.1,0.1,0.3,0.1,0.4,0
		c0.1-0.1,0.1-0.3,0-0.4C2.4,6.6,2.2,6.3,2,5.9C1.9,5.6,1.8,5.2,1.8,4.8c0-0.4,0.1-0.8,0.2-1.1c0.1-0.3,0.4-0.7,0.6-0.9
		C3.2,2.3,3.9,2,4.7,2c0.4,0,0.8,0.1,1.1,0.2c0.3,0.1,0.7,0.4,0.9,0.6c0.3,0.3,0.5,0.6,0.6,0.9l0,0c0.1,0.3,0.2,0.7,0.2,1.1
		c0,0.4-0.1,0.8-0.2,1.1C7.2,6.3,6.9,6.6,6.7,6.8c-0.1,0.1-0.1,0.3,0,0.4c0.1,0.1,0.3,0.1,0.4,0c0.3-0.3,0.6-0.7,0.7-1.1
		C7.9,5.7,8,5.3,8,4.8C8,4.4,7.9,4,7.8,3.6z M6.2,3.3C6.2,3.3,6.2,3.3,6.2,3.3L6.2,3.3c0-0.1,0-0.1,0-0.1l0,0c0,0,0,0,0,0l0,0
		c0,0,0,0,0,0v0l0,0c0,0,0,0,0,0l0,0c0,0,0,0,0,0l0,0c0,0,0,0,0,0h0c0,0,0,0,0,0l0,0c0,0,0,0,0,0l0,0c0,0,0,0,0,0l0,0c0,0,0,0,0,0
		L4,4.3c0,0-0.1,0-0.1,0.1l0,0c0,0,0,0-0.1,0.1c0,0-0.1,0.1-0.1,0.1c0,0,0,0.1-0.1,0.1c0,0,0,0.1-0.1,0.1c0,0,0,0.1,0,0.1
		c0,0,0,0.1,0,0.1c0,0,0,0.1,0,0.1l0,0c0,0,0,0.1,0,0.1v0c0,0,0,0.1,0,0.1c0,0,0,0.1,0,0.1c0,0,0,0.1,0,0.1c0,0,0,0.1,0,0.1
		c0,0,0,0.1,0,0.1c0,0,0,0.1,0.1,0.1v0h0c0,0,0,0.1,0.1,0.1c0,0,0,0.1,0.1,0.1l0,0c0,0,0,0,0.1,0.1v0c0,0,0.1,0.1,0.1,0.1
		c0,0,0.1,0,0.1,0.1c0,0,0.1,0,0.1,0.1c0,0,0.1,0,0.1,0c0,0,0.1,0,0.1,0c0,0,0.1,0,0.1,0l0,0c0,0,0.1,0,0.1,0l0,0c0,0,0.1,0,0.1,0
		c0,0,0.1,0,0.1,0c0,0,0.1,0,0.1,0c0,0,0.1,0,0.1,0c0,0,0.1,0,0.1,0c0,0,0.1,0,0.1-0.1c0,0,0.1,0,0.1-0.1l0,0h0l0,0
		c0,0,0.1,0,0.1-0.1h0c0,0,0.1-0.1,0.1-0.1v0c0,0,0.1-0.1,0.1-0.1c0,0,0-0.1,0.1-0.1c0,0,0-0.1,0.1-0.1c0,0,0-0.1,0-0.1
		c0,0,0-0.1,0-0.1l0,0l0,0c0,0,0-0.1,0-0.1l0.3-2l0,0L6.2,3.3C6.2,3.3,6.2,3.3,6.2,3.3L6.2,3.3z M5.9,3.4l-0.3,2v0l0,0
		c0,0,0,0.1,0,0.1l0,0c0,0,0,0.1,0,0.1c0,0,0,0.1,0,0.1c0,0,0,0.1,0,0.1c0,0,0,0.1,0,0.1c0,0,0,0-0.1,0.1l0,0c0,0,0,0-0.1,0.1v0
		c0,0,0,0-0.1,0.1l0,0c0,0,0,0-0.1,0c0,0,0,0-0.1,0c0,0-0.1,0-0.1,0c0,0-0.1,0-0.1,0c0,0-0.1,0-0.1,0c0,0-0.1,0-0.1,0
		c0,0-0.1,0-0.1,0h0c0,0-0.1,0-0.1,0l0,0c0,0-0.1,0-0.1,0c0,0-0.1,0-0.1,0c0,0-0.1,0-0.1,0c0,0-0.1,0-0.1,0c0,0-0.1,0-0.1,0
		c0,0,0,0-0.1-0.1v0c0,0,0,0-0.1-0.1l0,0c0,0,0,0-0.1-0.1c0,0,0,0,0-0.1h0c0,0,0,0,0-0.1c0,0,0-0.1,0-0.1c0,0,0,0,0-0.1
		c0,0,0-0.1,0-0.1c0,0,0-0.1,0-0.1c0,0,0-0.1,0-0.1l0,0c0,0,0-0.1,0-0.1l0,0c0,0,0-0.1,0-0.1c0,0,0-0.1,0-0.1c0,0,0-0.1,0-0.1
		c0,0,0-0.1,0-0.1c0,0,0-0.1,0-0.1c0,0,0,0,0.1-0.1c0,0,0,0,0.1-0.1l0,0c0,0,0,0,0.1-0.1l0,0l1.5-1.2l0,0l0,0l0,0l0,0l0,0l0,0
		L5.9,3.4L5.9,3.4L5.9,3.4L5.9,3.4L5.9,3.4L5.9,3.4z M5.2,5.1c0-0.1-0.1-0.3-0.3-0.3C4.8,4.7,4.7,4.6,4.5,4.7h0
		C4.4,4.7,4.3,4.8,4.2,5C4.1,5.1,4.1,5.2,4.1,5.4c0,0.1,0.1,0.3,0.3,0.3c0.1,0.1,0.3,0.1,0.4,0.1v0c0.1,0,0.3-0.1,0.3-0.3
		C5.3,5.4,5.3,5.2,5.2,5.1L5.2,5.1z M4.9,5.2c0,0.1,0,0.1,0,0.2c0,0.1-0.1,0.1-0.2,0.1h0c-0.1,0-0.1,0-0.2,0c-0.1,0-0.1-0.1-0.1-0.2
		v0c0-0.1,0-0.1,0-0.2C4.5,5,4.6,5,4.6,5h0c0.1,0,0.1,0,0.2,0C4.9,5,4.9,5.1,4.9,5.2L4.9,5.2z"/>
</g>
</svg>
