<?xml version="1.0" encoding="utf-8"?>
<!-- Generator: Adobe Illustrator 19.2.1, SVG Export Plug-In . SVG Version: 6.00 Build 0)  -->
<svg version="1.1" id="Capa_1" xmlns="http://www.w3.org/2000/svg" xmlns:xlink="http://www.w3.org/1999/xlink" x="0px" y="0px"
	 viewBox="0 0 235.6 455.8" style="enable-background:new 0 0 235.6 455.8;" xml:space="preserve">
<style type="text/css">
	.st0{fill:none;stroke:#FFFFFF;stroke-miterlimit:10;}
	.st1{fill:none;stroke:#8FFFE1;stroke-width:2;stroke-miterlimit:10;}
	.st2{fill:#8FFFE1;stroke:#8FFFE1;stroke-miterlimit:10;}
	.st3{fill:#8FFFE1;}
</style>
<g>
	<path class="st0" d="M0.2,111.9c21.9,26.4,27.6,63.3,14.9,95.2c-3.7,9.2-8.8,17.8-15.1,25.4"/>
	<path class="st0" d="M0.1,63.1c27.5,18.3,47.5,46.9,55,79.1c8,34.1,1.8,70.7-17.1,100.3c-9.8,15.4-22.8,28.6-38,38.7"/>
	<path class="st1" d="M102.6,155.8c8.1,73.6-34.9,150.6-102.5,180.6"/>
	<path class="st1" d="M165.4,195.5c-0.8,18.7-3.6,37.5-11.5,54.6c-1.8,3.9-2.3,7.8-4.1,11.8c-1.9,4.3-3.9,8.5-6,12.7
		c-4.1,8.2-8.5,16.2-13.3,23.9c-19.6,31.8-45.6,58.9-76.9,79.3c-16.7,10.9-34.5,20.1-53.3,26.7"/>
	<polygon class="st2" points="102.6,155.8 165.4,195.5 216,150.3 152.9,113.8 	"/>
	<g>
		
			<image style="overflow:visible;opacity:0.3;" width="145" height="113" xlink:href="47A29C20B4D3FCF9.png"  transform="matrix(1 0 0 1 90.6428 53.924)">
		</image>
		<g>
			<polygon class="st3" points="99.4,104.8 162.2,144.5 212.8,99.3 149.7,62.8 			"/>
		</g>
	</g>
	<g>
		
			<image style="overflow:visible;opacity:0.3;" width="145" height="113" xlink:href="47A29C20B4D3FCFB.png"  transform="matrix(1 0 0 1 90.6428 4.924)">
		</image>
		<g>
			<polygon class="st3" points="99.4,55.8 162.2,95.5 212.8,50.3 149.7,13.8 			"/>
		</g>
	</g>
	<path class="st1" d="M216,150.3c9.7,135.2-83.3,270.2-215.6,305.5"/>
</g>
</svg>
