<?xml version="1.0" encoding="utf-8"?>
<!-- Generator: Adobe Illustrator 19.2.1, SVG Export Plug-In . SVG Version: 6.00 Build 0)  -->
<svg version="1.1" id="Layer_1" xmlns="http://www.w3.org/2000/svg" xmlns:xlink="http://www.w3.org/1999/xlink" x="0px" y="0px"
	 viewBox="0 0 8.8 8.4" style="enable-background:new 0 0 8.8 8.4;" xml:space="preserve">
<style type="text/css">
	.st0{fill:#FDFDFE;}
</style>
<path class="st0" d="M4.8,6.8c0.1-0.9,0.4-0.9,0.8-0.9c0.2,0,0.4,0,0.7,0l0,0c0.1-0.1,0.1-0.1,0.1-0.1l0,0l0,0V5.7
	c-0.1-0.1-0.1-0.2,0-0.4l0.1-0.1l0,0l0,0l0,0c0-0.1,0-0.1,0-0.1V5V4.9V4.8c0-0.1,0-0.1,0-0.1l0,0V4.6c0-0.1,0-0.1,0-0.1l0,0
	c-0.1-0.2-0.2-0.3,0-0.4l0,0c0,0,0,0,0.1,0l0,0h0.1C6.5,4,6.5,4,6.4,3.8l0,0l0,0c-0.1,0-0.2-0.1-0.2-0.2l0,0
	C6.1,3.5,6.1,3.4,6.1,3.3c0-0.1,0-0.1,0-0.2c0-0.1,0-0.2,0-0.2V2.8V2.7c0,0,0-0.1,0-0.2S6,2.3,6,2.2C5.9,1.9,5.7,1.6,5.4,1.5
	C5.1,1.3,4.6,1.3,4.2,1.3c-0.5,0-0.9,0.1-1.2,0.4c-0.4,0.2-0.6,0.6-0.8,1C2.1,3.2,2.1,3.6,2.2,4C2.4,4.4,2.7,4.8,3,5.1
	c0.1,0.1,0.2,0.2,0.2,0.3l0,0l0,0c0,0.1,0,0.2,0,0.4C3.1,6,3.1,6.3,3,6.6C2.9,6.9,2.8,7.1,2.8,7.4c0,0.1-0.1,0.1-0.2,0.1
	S2.5,7.4,2.5,7.3c0-0.3,0.1-0.5,0.2-0.8S2.8,6,2.9,5.7c0-0.1,0-0.1,0-0.2l0,0c0,0-0.1,0-0.1-0.1C2.4,5,2.1,4.6,1.9,4.1
	c-0.2-0.4-0.2-0.9,0-1.4c0.1-0.5,0.4-0.9,0.8-1.2S3.7,1,4.2,1C4.6,0.9,5,1,5.6,1.3c0.3,0.2,0.6,0.5,0.8,0.9c0,0.2,0.1,0.3,0.1,0.4
	c0,0.2,0,0.4,0,0.4v0.1v0.1v0.1v0.1c0,0,0.1,0,0.1,0.1l0,0c0.1,0.1,0.1,0.1,0.2,0.2l0,0l0,0C6.8,3.9,6.9,4,7,4.1l0,0l0,0
	c0,0.1,0,0.2-0.1,0.2l0,0C6.8,4.4,6.8,4.4,6.7,4.4l0,0l0,0l0,0l0,0c0.1,0,0.1,0.1,0.1,0.2S6.7,4.8,6.6,4.8l0,0l0,0l0,0
	c0,0.1,0,0.1,0,0.2S6.5,5.2,6.5,5.2l0,0l0,0c0,0.1,0,0.1,0,0.1l0,0C6.4,5.4,6.4,5.4,6.4,5.4v0.1c0.1,0.1,0.1,0.1,0.1,0.2l0,0l0,0
	l0,0c0,0.1,0,0.1,0,0.2C6.4,6,6.4,6,6.3,6l0,0l0,0C6.2,6.2,5.8,6.2,5.7,6.2C5.3,6.3,5.2,6.3,5.2,6.8c0,0.3,0,0.5,0,0.5
	c0,0.1-0.1,0.2-0.2,0.2S4.8,7.4,4.8,7.3C4.8,7.3,4.8,7.1,4.8,6.8z"/>
</svg>
