<?xml version="1.0" encoding="utf-8"?>
<!-- Generator: Adobe Illustrator 19.2.1, SVG Export Plug-In . SVG Version: 6.00 Build 0)  -->
<svg version="1.1" id="Capa_1" xmlns="http://www.w3.org/2000/svg" xmlns:xlink="http://www.w3.org/1999/xlink" x="0px" y="0px"
	 viewBox="0 0 200 200" style="enable-background:new 0 0 200 200;" xml:space="preserve">
<style type="text/css">
	.st0{display:none;}
	.st1{display:inline;fill:#FFFFFF;}
	.st2{fill:#FFFFFF;}
</style>
<g class="st0">
	<path class="st1" d="M80.9,73.7c7.4,0,13.4-6,13.4-13.4s-6-13.4-13.4-13.4c-7.4,0-13.4,6-13.4,13.4l0,0
		C67.6,67.7,73.5,73.7,80.9,73.7z M80.9,53.7c3.6,0,6.5,2.9,6.5,6.5c0,3.6-2.9,6.5-6.5,6.5s-6.5-2.9-6.5-6.5l0,0
		C74.4,56.7,77.3,53.7,80.9,53.7z"/>
	<path class="st1" d="M119,73.7c7.4,0,13.4-6,13.4-13.4s-6-13.4-13.4-13.4c-7.4,0-13.4,6-13.4,13.4l0,0
		C105.7,67.7,111.7,73.7,119,73.7z M119,53.7c3.6,0,6.5,2.9,6.5,6.5c0,3.6-2.9,6.5-6.5,6.5s-6.5-2.9-6.5-6.5l0,0
		C112.5,56.7,115.4,53.7,119,53.7z"/>
	<path class="st1" d="M55.2,83.9c1.1,14.6,11.9,19.9,22.2,19.9h45.3c15.3,0,21.4-9.9,22.2-19.9c10.1-1.8,16.9-11.5,15.1-21.6
		c-1.4-8-7.9-14.2-15.9-15.2c-2.2-8.1-8.6-15.1-21.3-15.1h-19.2v-7.2c5.9-1.9,9.1-8.2,7.2-14s-8.2-9.1-14-7.2
		c-5.9,1.9-9.1,8.2-7.2,14c1.1,3.4,3.8,6.1,7.2,7.2v6.8H77.3c-9,0-18.5,4.1-21.4,15.1c-10.2,1.4-17.4,10.7-16,20.9
		c1.1,8.1,7.2,14.5,15.2,15.9L55.2,83.9z M144.9,54.3c6.2,1.9,9.8,8.4,7.9,14.7c-1.1,3.8-4.1,6.8-7.9,7.9V54.3z M95.6,14.6
		c-0.1-2.4,1.8-4.4,4.1-4.5c2.4-0.1,4.4,1.8,4.5,4.1c0.1,2.4-1.8,4.4-4.1,4.5c0,0-0.1,0-0.1,0C97.7,18.8,95.7,16.9,95.6,14.6z
		 M61.9,54.3c0-13.4,9.7-15.4,15.4-15.4h45.3c13.4,0,15.4,9.7,15.4,15.4v27.4c0,5.8-2,15.4-15.4,15.4H77.3c-5.8,0-15.4-2-15.4-15.4
		L61.9,54.3z M55.1,54.3v22.5c-6.2-1.9-9.8-8.4-7.9-14.7C48.3,58.4,51.3,55.4,55.1,54.3z"/>
	<path class="st1" d="M119,82.6H80.9c-1.9,0-3.4,1.5-3.4,3.4s1.5,3.4,3.4,3.4H119c1.9,0,3.4-1.5,3.4-3.4S120.9,82.6,119,82.6z"/>
	<path class="st1" d="M109.1,133.5H97l14.2-11.6c1.5-1.2,1.6-3.4,0.4-4.8s-3.4-1.6-4.8-0.4l-21.6,17.8c-1.5,1.2-1.7,3.3-0.5,4.8
		c0.7,0.8,1.6,1.3,2.7,1.3H100l-14.8,13c-1.2,1.4-1,3.6,0.4,4.8c1.2,1,2.9,1.1,4.1,0.2l21.7-19c1.4-1.2,1.6-3.4,0.3-4.8
		C111,133.9,110.1,133.5,109.1,133.5L109.1,133.5z"/>
	<path class="st1" d="M62.3,170c-5,0-9.1,4.1-9.1,9.1c0,5,4.1,9.1,9.1,9.1s9.1-4.1,9.1-9.1C71.5,174.1,67.4,170,62.3,170L62.3,170z
		 M62.3,181.4c-1.3,0-2.3-1-2.3-2.3c0-1.3,1-2.3,2.3-2.3c1.3,0,2.3,1,2.3,2.3l0,0C64.6,180.4,63.6,181.4,62.3,181.4z"/>
	<path class="st1" d="M100,170c-5,0-9.1,4.1-9.1,9.1s4.1,9.1,9.1,9.1c5,0,9.1-4.1,9.1-9.1l0,0C109.1,174.1,105,170,100,170L100,170z
		 M100,181.4c-1.3,0-2.3-1-2.3-2.3c0-1.3,1-2.3,2.3-2.3s2.3,1,2.3,2.3v0C102.3,180.4,101.2,181.4,100,181.4L100,181.4z"/>
	<path class="st1" d="M128.4,179.1c0,5,4.1,9.1,9.1,9.1c5,0,9.1-4.1,9.1-9.1c0-5-4.1-9.1-9.1-9.1C132.6,170,128.5,174,128.4,179.1
		C128.4,179.1,128.4,179.1,128.4,179.1z M139.9,179.1c0,1.3-1,2.3-2.3,2.3c-1.3,0-2.3-1-2.3-2.3s1-2.3,2.3-2.3h0
		C138.8,176.8,139.9,177.8,139.9,179.1z"/>
	<path class="st1" d="M175.8,130.5l-2.8-5c-11.2-19.6-33.5-18.5-35.4-18.5H62.3c-2,0-24.4-1.2-35.6,18.4l-2.7,5
		c-6.2,1.1-10.8,6.6-10.7,12.9c0,1.9,1.5,3.4,3.4,3.4s3.4-1.5,3.4-3.4c0-3.4,2.7-6.1,6.1-6.1s6.1,2.7,6.1,6.1c0,1.9,1.5,3.4,3.4,3.4
		s3.4-1.5,3.4-3.4c0-5.1-3-9.8-7.7-11.9l1.4-2.5c4.7-8,12.9-13.4,22.2-14.5V161l0,0H55c-9.9,0.4-17.6,8.8-17.1,18.7
		c0.4,9.3,7.8,16.7,17.1,17.1h90.1c9.9,0.4,18.3-7.2,18.7-17.1c0.4-9.9-7.2-18.3-17.1-18.7c-0.5,0-1,0-1.6,0h-0.2l0,0v-46.7
		c9.2,1.1,17.4,6.5,22.2,14.5l1.4,2.5c-4.7,2.1-7.8,6.7-7.8,11.9c0,1.9,1.5,3.4,3.4,3.4c1.9,0,3.4-1.5,3.4-3.4
		c0-3.4,2.7-6.1,6.1-6.1c3.4,0,6.1,2.7,6.1,6.1c0,1.9,1.5,3.4,3.4,3.4c1.9,0,3.4-1.5,3.4-3.4C186.7,136.9,182.1,131.5,175.8,130.5
		L175.8,130.5z M62.1,113.8h76V161l0,0h-76V113.8z M145.1,168c6.1-0.3,11.3,4.3,11.7,10.5c0.3,6.1-4.3,11.3-10.5,11.7
		c-0.4,0-0.8,0-1.2,0H54.9c-6.1-0.3-10.8-5.6-10.5-11.7c0.3-5.6,4.8-10.1,10.5-10.5H145.1z"/>
</g>
<g class="st0">
	<path class="st1" d="M116,123c-1.1-0.8-2.7-0.6-3.5,0.5c-0.8,1.1-0.6,2.7,0.5,3.5l1,0.7c-2.2,2.6-7.1,7.4-13.5,8.4
		c-4.1,0.6-8.3-0.5-12.4-3.3l0.4-0.3c1.1-0.8,1.3-2.4,0.5-3.5c-0.8-1.1-2.4-1.3-3.5-0.5l-5.5,4.1c-1.1,0.8-1.3,2.4-0.5,3.5
		c0.5,0.7,1.2,1,2,1c0.5,0,1.1-0.2,1.5-0.5l0.9-0.7c4.6,3.5,9.4,5.3,14.3,5.3c1,0,2-0.1,3-0.2c8.2-1.2,14.2-7.2,16.8-10.3l0.5,0.4
		c0.5,0.3,1,0.5,1.5,0.5c0.8,0,1.5-0.3,2-1c0.8-1.1,0.6-2.7-0.5-3.5L116,123z M116,123"/>
	<path class="st1" d="M121.5,74.1c-8.2,0-15.2,5.4-17.7,12.8c-1-0.5-2.2-0.8-3.4-0.8c-1.2,0-2.4,0.3-3.4,0.8
		c-2.4-7.4-9.4-12.8-17.7-12.8c-10.2,0-18.6,8.3-18.6,18.6c0,10.2,8.3,18.6,18.6,18.6c10.2,0,18.6-8.3,18.6-18.6
		c0-0.7,1.1-1.5,2.5-1.5c1.4,0,2.5,0.8,2.5,1.5c0,10.2,8.3,18.6,18.6,18.6c10.2,0,18.6-8.3,18.6-18.6
		C140.1,82.5,131.7,74.1,121.5,74.1L121.5,74.1z M79.3,106.3c-7.5,0-13.6-6.1-13.6-13.6c0-7.5,6.1-13.6,13.6-13.6
		c7.5,0,13.6,6.1,13.6,13.6C92.9,100.2,86.8,106.3,79.3,106.3L79.3,106.3z M121.5,106.3c-7.5,0-13.6-6.1-13.6-13.6
		c0-7.5,6.1-13.6,13.6-13.6c7.5,0,13.6,6.1,13.6,13.6C135.1,100.2,129,106.3,121.5,106.3L121.5,106.3z M121.5,106.3"/>
	<path class="st1" d="M82.3,83.9c-1-1-2.6-1-3.5,0l-8,8c-1,1-1,2.6,0,3.5c0.5,0.5,1.1,0.7,1.8,0.7c0.6,0,1.3-0.2,1.8-0.7l8-8
		C83.2,86.5,83.2,84.9,82.3,83.9L82.3,83.9z M82.3,83.9"/>
	<path class="st1" d="M85.7,90.9l-8,8c-1,1-1,2.6,0,3.5c0.5,0.5,1.1,0.7,1.8,0.7c0.6,0,1.3-0.2,1.8-0.7l8-8c1-1,1-2.6,0-3.5
		C88.3,89.9,86.7,89.9,85.7,90.9L85.7,90.9z M85.7,90.9"/>
	<path class="st1" d="M125.3,82.9c-1-1-2.6-1-3.5,0l-8,8c-1,1-1,2.6,0,3.5c0.5,0.5,1.1,0.7,1.8,0.7c0.6,0,1.3-0.2,1.8-0.7l8-8
		C126.2,85.4,126.2,83.9,125.3,82.9L125.3,82.9z M125.3,82.9"/>
	<path class="st1" d="M126.3,90.9l-8,8c-1,1-1,2.6,0,3.5c0.5,0.5,1.1,0.7,1.8,0.7c0.6,0,1.3-0.2,1.8-0.7l8-8c1-1,1-2.6,0-3.5
		C128.9,89.9,127.3,89.9,126.3,90.9L126.3,90.9z M126.3,90.9"/>
	<path class="st1" d="M72,118.5c0.6,0,1.3-0.3,1.8-0.8c0.5-0.5,0.7-1.1,0.7-1.8c0-0.6-0.3-1.3-0.7-1.8c-1-0.9-2.6-0.9-3.6,0
		c-0.5,0.5-0.7,1.1-0.7,1.8c0,0.7,0.3,1.3,0.7,1.8C70.6,118.2,71.3,118.5,72,118.5L72,118.5z M72,118.5"/>
	<path class="st1" d="M70.7,124.9c-0.5,0.5-0.7,1.1-0.7,1.8c0,0.6,0.3,1.3,0.7,1.8c0.5,0.5,1.1,0.7,1.8,0.7c0.7,0,1.3-0.3,1.8-0.7
		c0.5-0.5,0.7-1.1,0.7-1.8c0-0.7-0.3-1.3-0.7-1.8C73.3,123.9,71.6,123.9,70.7,124.9L70.7,124.9z M70.7,124.9"/>
	<path class="st1" d="M61.9,127c-0.5,0.5-0.7,1.1-0.7,1.8c0,0.7,0.3,1.3,0.7,1.8c0.5,0.5,1.1,0.7,1.8,0.7c0.7,0,1.3-0.3,1.8-0.7
		c0.5-0.5,0.7-1.1,0.7-1.8c0-0.6-0.3-1.3-0.7-1.8C64.5,126.1,62.8,126.1,61.9,127L61.9,127z M61.9,127"/>
	<path class="st1" d="M130.1,116.4c-0.5,0.5-0.7,1.1-0.7,1.8c0,0.6,0.3,1.3,0.7,1.8c0.5,0.5,1.1,0.7,1.8,0.7c0.6,0,1.3-0.3,1.7-0.7
		c0.5-0.5,0.7-1.1,0.7-1.8c0-0.7-0.2-1.3-0.7-1.8C132.7,115.5,131,115.5,130.1,116.4L130.1,116.4z M130.1,116.4"/>
	<path class="st1" d="M129.5,127c-0.5,0.5-0.7,1.1-0.7,1.8c0,0.7,0.3,1.3,0.7,1.8c0.5,0.5,1.1,0.7,1.8,0.7c0.6,0,1.3-0.3,1.8-0.7
		c0.5-0.5,0.7-1.1,0.7-1.8c0-0.6-0.2-1.3-0.7-1.8C132.2,126.1,130.5,126.1,129.5,127L129.5,127z M129.5,127"/>
	<path class="st1" d="M138.3,129.2c-0.5,0.5-0.7,1.1-0.7,1.8c0,0.6,0.2,1.3,0.7,1.8c0.5,0.5,1.1,0.7,1.8,0.7c0.7,0,1.3-0.2,1.8-0.7
		c0.5-0.5,0.7-1.1,0.7-1.8c0-0.7-0.3-1.3-0.7-1.8C140.9,128.3,139.2,128.3,138.3,129.2L138.3,129.2z M138.3,129.2"/>
	<path class="st1" d="M142.6,48.7H120v-9.3c0-3.2-2.6-5.8-5.8-5.8H85.7c-3.2,0-5.8,2.6-5.8,5.8v9.3H57.4c-6.9,0-12.5,5.6-12.5,12.5
		v82.6c0,6.9,5.6,12.5,12.5,12.5h7.5v4.2c0,3.2,2.6,5.8,5.8,5.8h58.6c3.2,0,5.8-2.6,5.8-5.8v-4.2h7.5c6.9,0,12.5-5.6,12.5-12.5V61.2
		C155.1,54.3,149.5,48.7,142.6,48.7L142.6,48.7z M85,39.4c0-0.4,0.3-0.8,0.8-0.8h28.5c0.4,0,0.8,0.3,0.8,0.8v9.3H85V39.4z
		 M130.1,160.6c0,0.4-0.3,0.8-0.8,0.8H70.7c-0.4,0-0.8-0.3-0.8-0.8v-4.2h60.1V160.6z M150.1,143.8c0,4.1-3.4,7.5-7.5,7.5H57.4
		c-4.1,0-7.5-3.4-7.5-7.5V61.2c0-4.1,3.4-7.5,7.5-7.5h85.2c4.1,0,7.5,3.4,7.5,7.5V143.8z M150.1,143.8"/>
</g>
<path class="st2" d="M193.5,166.5c-0.2-7.1-3.2-13.7-8.5-18.5l-58.1-52.4l51.4-51.4c0.3-0.1,0.7-0.2,1-0.4l11.1-5.9
	c1.5-0.8,2.6-2.3,2.8-4c0.3-1.7-0.3-3.4-1.5-4.6l-12.5-12.5c-1.2-1.2-2.9-1.8-4.6-1.5c-1.7,0.3-3.2,1.3-4,2.8l-5.9,11.1
	c-0.2,0.3-0.3,0.7-0.4,1L140,54.6c-1.1,1.1-1.1,3,0,4.1c1.1,1.1,3,1.1,4.1,0l22.2-22.2l5.8,5.8l-56.9,56.9l-5.8-5.8l24.8-24.8
	c1.1-1.1,1.1-3,0-4.1c-1.1-1.1-3-1.1-4.1,0l-18,18L92.6,64.7c5.6-16,1.5-33.8-10.5-45.9C69.7,6.5,51.2,2.5,34.9,8.8
	c-0.9,0.4-1.6,1.1-1.8,2.1s0.1,1.9,0.8,2.6l22.6,22.6c0.7,0.7,1,1.6,1,2.5s-0.4,1.8-1,2.5L41.8,55.9c-0.7,0.7-1.6,1-2.5,1
	c-0.9,0-1.8-0.4-2.5-1L14.2,33.3c-0.7-0.7-1.7-1-2.6-0.8c-1,0.2-1.7,0.9-2.1,1.8c-6.3,16.3-2.3,34.9,10,47.2
	c11.8,11.8,29.2,15.9,45,10.8l15.2,16.6c-0.7,1.4-1.7,2.8-2.8,3.9c-4.4,4.4-10.9,5.7-16.7,3.5c-1.1-0.4-2.3-0.2-3.1,0.6l-35.3,35.3
	c-9.6,9.6-9.6,25.1,0,34.7c4.6,4.6,10.8,7.2,17.3,7.2c6.6,0,12.7-2.6,17.3-7.2l35.3-35.3c0.8-0.8,1.1-2,0.6-3.1
	c-2.2-5.8-0.9-12.3,3.5-16.7c4.4-4.4,10.9-5.7,16.7-3.5c1.1,0.4,2.3,0.2,3.1-0.6l6.7-6.7c2-2,3.1-4.7,3.1-7.5s-1.1-5.5-3.1-7.5
	l-2.8-2.8l3.5-3.5l58.3,52.6c4.1,3.7,6.4,8.8,6.6,14.3c0.1,5.5-1.9,10.7-5.8,14.6c-3.9,3.9-9.1,6-14.6,5.8
	c-5.5-0.1-10.6-2.4-14.3-6.5l-43.3-47.4c-1.1-1.2-2.9-1.3-4.1-0.2c-1.2,1.1-1.3,2.9-0.2,4.1l43.3,47.4c4.8,5.2,11.3,8.2,18.4,8.4
	c0.2,0,0.4,0,0.6,0c6.9,0,13.3-2.7,18.2-7.5C191,180.3,193.7,173.6,193.5,166.5z M67.4,87c-0.8-0.9-2-1.2-3.1-0.8
	c-14.1,5.3-30.1,1.8-40.7-8.8c-9.7-9.7-13.4-23.7-10.1-36.7L32.7,60c1.8,1.8,4.1,2.7,6.6,2.7c2.5,0,4.8-1,6.6-2.7l14.7-14.7
	c1.8-1.8,2.7-4.1,2.7-6.6s-1-4.8-2.7-6.6L41.3,12.8c13-3.3,27,0.4,36.7,10.1c10.9,10.9,14.3,27.2,8.5,41.5c-0.4,1.1-0.1,2.4,0.7,3.2
	l20.8,18.8l-2.7,2.7l-2.8-2.8c-2-2-4.7-3.1-7.5-3.1s-5.5,1.1-7.5,3.1L80.9,93c-0.8,0.8-1.1,2-0.6,3.1c0.8,2,1.1,4,1,6.1L67.4,87z
	 M118.2,117l-5.4,5.4c-7.4-2.1-15.5-0.1-21,5.4h0c-5.5,5.5-7.6,13.6-5.4,21l-34.1,34.1c-3.5,3.5-8.3,5.5-13.3,5.5s-9.7-2-13.3-5.5
	c-7.3-7.3-7.3-19.2,0-26.5l34.1-34.1c7.4,2.1,15.5,0.1,21-5.4c5.5-5.5,7.6-13.6,5.4-21l5.4-5.4c1.9-1.9,5-1.9,6.9,0l4.9,4.9l9.9,9.9
	l4.9,4.9C120,112,120,115.1,118.2,117z M175.4,21.3l11.8,11.8l-10.5,5.5l-6.9-6.9L175.4,21.3z"/>
</svg>
