<?xml version="1.0" encoding="utf-8"?>
<!-- Generator: Adobe Illustrator 19.2.1, SVG Export Plug-In . SVG Version: 6.00 Build 0)  -->
<svg version="1.1" id="Capa_1" xmlns="http://www.w3.org/2000/svg" xmlns:xlink="http://www.w3.org/1999/xlink" x="0px" y="0px"
	 viewBox="0 0 200 200" style="enable-background:new 0 0 200 200;" xml:space="preserve">
<style type="text/css">
	.st0{fill:#FFFFFF;}
	.st1{display:none;}
	.st2{display:inline;fill:#FFFFFF;}
	.st3{display:none;fill:#FFFFFF;}
</style>
<g>
	<path class="st0" d="M80.9,73.7c7.4,0,13.4-6,13.4-13.4s-6-13.4-13.4-13.4c-7.4,0-13.4,6-13.4,13.4l0,0
		C67.6,67.7,73.5,73.7,80.9,73.7z M80.9,53.7c3.6,0,6.5,2.9,6.5,6.5c0,3.6-2.9,6.5-6.5,6.5s-6.5-2.9-6.5-6.5l0,0
		C74.4,56.7,77.3,53.7,80.9,53.7z"/>
	<path class="st0" d="M119,73.7c7.4,0,13.4-6,13.4-13.4s-6-13.4-13.4-13.4c-7.4,0-13.4,6-13.4,13.4l0,0
		C105.7,67.7,111.7,73.7,119,73.7z M119,53.7c3.6,0,6.5,2.9,6.5,6.5c0,3.6-2.9,6.5-6.5,6.5s-6.5-2.9-6.5-6.5l0,0
		C112.5,56.7,115.4,53.7,119,53.7z"/>
	<path class="st0" d="M55.2,83.9c1.1,14.6,11.9,19.9,22.2,19.9h45.3c15.3,0,21.4-9.9,22.2-19.9c10.1-1.8,16.9-11.5,15.1-21.6
		c-1.4-8-7.9-14.2-15.9-15.2c-2.2-8.1-8.6-15.1-21.3-15.1h-19.2v-7.2c5.9-1.9,9.1-8.2,7.2-14s-8.2-9.1-14-7.2
		c-5.9,1.9-9.1,8.2-7.2,14c1.1,3.4,3.8,6.1,7.2,7.2v6.8H77.3c-9,0-18.5,4.1-21.4,15.1c-10.2,1.4-17.4,10.7-16,20.9
		c1.1,8.1,7.2,14.5,15.2,15.9L55.2,83.9z M144.9,54.3c6.2,1.9,9.8,8.4,7.9,14.7c-1.1,3.8-4.1,6.8-7.9,7.9V54.3z M95.6,14.6
		c-0.1-2.4,1.8-4.4,4.1-4.5c2.4-0.1,4.4,1.8,4.5,4.1c0.1,2.4-1.8,4.4-4.1,4.5c0,0-0.1,0-0.1,0C97.7,18.8,95.7,16.9,95.6,14.6z
		 M61.9,54.3c0-13.4,9.7-15.4,15.4-15.4h45.3c13.4,0,15.4,9.7,15.4,15.4v27.4c0,5.8-2,15.4-15.4,15.4H77.3c-5.8,0-15.4-2-15.4-15.4
		L61.9,54.3z M55.1,54.3v22.5c-6.2-1.9-9.8-8.4-7.9-14.7C48.3,58.4,51.3,55.4,55.1,54.3z"/>
	<path class="st0" d="M119,82.6H80.9c-1.9,0-3.4,1.5-3.4,3.4s1.5,3.4,3.4,3.4H119c1.9,0,3.4-1.5,3.4-3.4S120.9,82.6,119,82.6z"/>
	<path class="st0" d="M109.1,133.5H97l14.2-11.6c1.5-1.2,1.6-3.4,0.4-4.8s-3.4-1.6-4.8-0.4l-21.6,17.8c-1.5,1.2-1.7,3.3-0.5,4.8
		c0.7,0.8,1.6,1.3,2.7,1.3H100l-14.8,13c-1.2,1.4-1,3.6,0.4,4.8c1.2,1,2.9,1.1,4.1,0.2l21.7-19c1.4-1.2,1.6-3.4,0.3-4.8
		C111,133.9,110.1,133.5,109.1,133.5L109.1,133.5z"/>
	<path class="st0" d="M62.3,170c-5,0-9.1,4.1-9.1,9.1c0,5,4.1,9.1,9.1,9.1s9.1-4.1,9.1-9.1C71.5,174.1,67.4,170,62.3,170L62.3,170z
		 M62.3,181.4c-1.3,0-2.3-1-2.3-2.3c0-1.3,1-2.3,2.3-2.3c1.3,0,2.3,1,2.3,2.3l0,0C64.6,180.4,63.6,181.4,62.3,181.4z"/>
	<path class="st0" d="M100,170c-5,0-9.1,4.1-9.1,9.1s4.1,9.1,9.1,9.1c5,0,9.1-4.1,9.1-9.1l0,0C109.1,174.1,105,170,100,170L100,170z
		 M100,181.4c-1.3,0-2.3-1-2.3-2.3c0-1.3,1-2.3,2.3-2.3s2.3,1,2.3,2.3v0C102.3,180.4,101.2,181.4,100,181.4L100,181.4z"/>
	<path class="st0" d="M128.4,179.1c0,5,4.1,9.1,9.1,9.1c5,0,9.1-4.1,9.1-9.1c0-5-4.1-9.1-9.1-9.1C132.6,170,128.5,174,128.4,179.1
		C128.4,179.1,128.4,179.1,128.4,179.1z M139.9,179.1c0,1.3-1,2.3-2.3,2.3c-1.3,0-2.3-1-2.3-2.3s1-2.3,2.3-2.3h0
		C138.8,176.8,139.9,177.8,139.9,179.1z"/>
	<path class="st0" d="M175.8,130.5l-2.8-5c-11.2-19.6-33.5-18.5-35.4-18.5H62.3c-2,0-24.4-1.2-35.6,18.4l-2.7,5
		c-6.2,1.1-10.8,6.6-10.7,12.9c0,1.9,1.5,3.4,3.4,3.4s3.4-1.5,3.4-3.4c0-3.4,2.7-6.1,6.1-6.1s6.1,2.7,6.1,6.1c0,1.9,1.5,3.4,3.4,3.4
		s3.4-1.5,3.4-3.4c0-5.1-3-9.8-7.7-11.9l1.4-2.5c4.7-8,12.9-13.4,22.2-14.5V161l0,0H55c-9.9,0.4-17.6,8.8-17.1,18.7
		c0.4,9.3,7.8,16.7,17.1,17.1h90.1c9.9,0.4,18.3-7.2,18.7-17.1c0.4-9.9-7.2-18.3-17.1-18.7c-0.5,0-1,0-1.6,0h-0.2l0,0v-46.7
		c9.2,1.1,17.4,6.5,22.2,14.5l1.4,2.5c-4.7,2.1-7.8,6.7-7.8,11.9c0,1.9,1.5,3.4,3.4,3.4c1.9,0,3.4-1.5,3.4-3.4
		c0-3.4,2.7-6.1,6.1-6.1c3.4,0,6.1,2.7,6.1,6.1c0,1.9,1.5,3.4,3.4,3.4c1.9,0,3.4-1.5,3.4-3.4C186.7,136.9,182.1,131.5,175.8,130.5
		L175.8,130.5z M62.1,113.8h76V161l0,0h-76V113.8z M145.1,168c6.1-0.3,11.3,4.3,11.7,10.5c0.3,6.1-4.3,11.3-10.5,11.7
		c-0.4,0-0.8,0-1.2,0H54.9c-6.1-0.3-10.8-5.6-10.5-11.7c0.3-5.6,4.8-10.1,10.5-10.5H145.1z"/>
</g>
<g class="st1">
	<path class="st2" d="M122.8,132.8c-1.6-1.2-3.8-0.9-5,0.7c-1.2,1.6-0.9,3.8,0.7,5l1.4,1.1c-3.1,3.6-10.1,10.5-19.3,11.9
		c-5.9,0.9-11.8-0.7-17.7-4.7l0.6-0.4c1.6-1.2,1.9-3.4,0.7-5c-1.2-1.6-3.4-1.9-5-0.7l-7.9,5.9c-1.6,1.2-1.9,3.4-0.7,5
		c0.7,0.9,1.8,1.4,2.9,1.4c0.7,0,1.5-0.2,2.1-0.7l1.3-1c6.6,5,13.5,7.6,20.4,7.6c1.4,0,2.9-0.1,4.3-0.3c11.7-1.8,20.3-10.3,24-14.7
		l0.7,0.5c0.6,0.5,1.4,0.7,2.1,0.7c1.1,0,2.1-0.5,2.9-1.4c1.2-1.6,0.9-3.8-0.7-5L122.8,132.8z M122.8,132.8"/>
	<path class="st2" d="M130.6,63.1c-11.7,0-21.7,7.7-25.2,18.3c-1.5-0.7-3.1-1.1-4.9-1.1c-1.8,0-3.4,0.4-4.9,1.1
		c-3.5-10.6-13.4-18.3-25.2-18.3C55.9,63.1,44,75,44,89.6c0,14.6,11.9,26.5,26.5,26.5c14.6,0,26.5-11.9,26.5-26.5
		c0-1,1.5-2.1,3.6-2.1c2.1,0,3.6,1.1,3.6,2.1c0,14.6,11.9,26.5,26.5,26.5c14.6,0,26.5-11.9,26.5-26.5
		C157.1,75,145.2,63.1,130.6,63.1L130.6,63.1z M70.5,108.9c-10.7,0-19.3-8.7-19.3-19.3c0-10.7,8.7-19.3,19.3-19.3
		c10.7,0,19.3,8.7,19.3,19.3C89.8,100.2,81.2,108.9,70.5,108.9L70.5,108.9z M130.6,108.9c-10.7,0-19.3-8.7-19.3-19.3
		c0-10.7,8.7-19.3,19.3-19.3c10.7,0,19.3,8.7,19.3,19.3C150,100.2,141.3,108.9,130.6,108.9L130.6,108.9z M130.6,108.9"/>
	<path class="st2" d="M74.7,77.1c-1.4-1.4-3.7-1.4-5.1,0L58.2,88.6c-1.4,1.4-1.4,3.7,0,5.1c0.7,0.7,1.6,1,2.5,1c0.9,0,1.8-0.3,2.5-1
		l11.5-11.5C76.1,80.8,76.1,78.5,74.7,77.1L74.7,77.1z M74.7,77.1"/>
	<path class="st2" d="M79.6,87.1L68.2,98.5c-1.4,1.4-1.4,3.7,0,5.1c0.7,0.7,1.6,1,2.5,1c0.9,0,1.8-0.3,2.5-1l11.4-11.5
		c1.4-1.4,1.4-3.6,0-5C83.3,85.7,81,85.7,79.6,87.1L79.6,87.1z M79.6,87.1"/>
	<path class="st2" d="M136,75.6c-1.4-1.4-3.6-1.4-5,0l-11.5,11.5c-1.4,1.4-1.4,3.6,0,5c0.7,0.7,1.6,1,2.5,1c0.9,0,1.8-0.3,2.5-1
		L136,80.7C137.4,79.3,137.4,77,136,75.6L136,75.6z M136,75.6"/>
	<path class="st2" d="M137.5,87.1L126,98.5c-1.4,1.4-1.4,3.7,0,5.1c0.7,0.7,1.6,1,2.5,1c0.9,0,1.8-0.3,2.5-1l11.5-11.5
		c1.4-1.4,1.4-3.6,0-5C141.1,85.7,138.9,85.7,137.5,87.1L137.5,87.1z M137.5,87.1"/>
	<path class="st2" d="M60,126.4c0.9,0,1.8-0.4,2.5-1.1c0.6-0.6,1-1.6,1-2.5c0-0.9-0.4-1.9-1-2.5c-1.4-1.3-3.7-1.3-5.1,0
		c-0.7,0.7-1,1.6-1,2.5c0,0.9,0.4,1.9,1,2.5C58.1,126,59.1,126.4,60,126.4L60,126.4z M60,126.4"/>
	<path class="st2" d="M58.2,135.4c-0.7,0.6-1.1,1.6-1.1,2.5c0,0.9,0.4,1.9,1,2.5c0.6,0.7,1.6,1,2.5,1c1,0,1.8-0.4,2.5-1
		c0.6-0.6,1-1.6,1-2.5c0-1-0.4-1.9-1-2.5C61.9,134.1,59.5,134.1,58.2,135.4L58.2,135.4z M58.2,135.4"/>
	<path class="st2" d="M45.7,138.5c-0.6,0.7-1,1.6-1,2.5c0,0.9,0.4,1.9,1,2.5c0.7,0.6,1.6,1,2.5,1c1,0,1.8-0.4,2.5-1
		c0.7-0.7,1-1.6,1-2.5c0-0.9-0.4-1.8-1-2.5C49.5,137.2,47,137.2,45.7,138.5L45.7,138.5z M45.7,138.5"/>
	<path class="st2" d="M142.8,123.4c-0.7,0.7-1.1,1.6-1.1,2.5c0,0.9,0.4,1.9,1.1,2.5c0.6,0.7,1.6,1,2.5,1c0.9,0,1.8-0.4,2.5-1
		c0.7-0.7,1-1.6,1-2.5c0-1-0.4-1.8-1-2.5C146.5,122.1,144.2,122.1,142.8,123.4L142.8,123.4z M142.8,123.4"/>
	<path class="st2" d="M142.1,138.5c-0.6,0.7-1,1.6-1,2.5c0,0.9,0.4,1.9,1,2.5c0.7,0.6,1.6,1,2.5,1c0.9,0,1.8-0.4,2.5-1
		c0.7-0.7,1-1.6,1-2.5c0-0.9-0.3-1.8-1-2.5C145.8,137.2,143.4,137.2,142.1,138.5L142.1,138.5z M142.1,138.5"/>
	<path class="st2" d="M154.6,141.7c-0.7,0.7-1,1.6-1,2.5c0,0.9,0.3,1.8,1,2.5c0.7,0.7,1.6,1,2.5,1c0.9,0,1.9-0.4,2.5-1
		c0.6-0.7,1-1.6,1-2.5c0-1-0.4-1.9-1-2.5C158.3,140.3,155.9,140.3,154.6,141.7L154.6,141.7z M154.6,141.7"/>
	<path class="st2" d="M160.7,26.8h-32.1V13.6c0-4.5-3.7-8.2-8.2-8.2H79.7c-4.5,0-8.2,3.7-8.2,8.2v13.2H39.3c-9.8,0-17.8,8-17.8,17.8
		v117.8c0,9.8,8,17.8,17.8,17.8H50v6.1c0,4.5,3.7,8.2,8.2,8.2h83.5c4.5,0,8.2-3.7,8.2-8.2v-6.1h10.7c9.8,0,17.8-8,17.8-17.8V44.7
		C178.5,34.8,170.5,26.8,160.7,26.8L160.7,26.8z M78.6,13.6c0-0.6,0.5-1.1,1.1-1.1h40.7c0.6,0,1.1,0.5,1.1,1.1v13.2H78.6V13.6z
		 M142.8,186.4c0,0.6-0.5,1.1-1.1,1.1H58.3c-0.6,0-1.1-0.5-1.1-1.1v-6.1h85.7V186.4z M171.4,162.5c0,5.9-4.8,10.7-10.7,10.7H39.3
		c-5.9,0-10.7-4.8-10.7-10.7V44.7c0-5.9,4.8-10.7,10.7-10.7h121.4c5.9,0,10.7,4.8,10.7,10.7V162.5z M171.4,162.5"/>
</g>
<path class="st3" d="M193.5,166.5c-0.2-7.1-3.2-13.7-8.5-18.5l-58.1-52.4l51.4-51.4c0.3-0.1,0.7-0.2,1-0.4l11.1-5.9
	c1.5-0.8,2.6-2.3,2.8-4c0.3-1.7-0.3-3.4-1.5-4.6l-12.5-12.5c-1.2-1.2-2.9-1.8-4.6-1.5c-1.7,0.3-3.2,1.3-4,2.8l-5.9,11.1
	c-0.2,0.3-0.3,0.7-0.4,1L140,54.6c-1.1,1.1-1.1,3,0,4.1c1.1,1.1,3,1.1,4.1,0l22.2-22.2l5.8,5.8l-56.9,56.9l-5.8-5.8l24.8-24.8
	c1.1-1.1,1.1-3,0-4.1c-1.1-1.1-3-1.1-4.1,0l-18,18L92.6,64.7c5.6-16,1.5-33.8-10.5-45.9C69.7,6.5,51.2,2.5,34.9,8.8
	c-0.9,0.4-1.6,1.1-1.8,2.1s0.1,1.9,0.8,2.6l22.6,22.6c0.7,0.7,1,1.6,1,2.5s-0.4,1.8-1,2.5L41.8,55.9c-0.7,0.7-1.6,1-2.5,1
	c-0.9,0-1.8-0.4-2.5-1L14.2,33.3c-0.7-0.7-1.7-1-2.6-0.8c-1,0.2-1.7,0.9-2.1,1.8c-6.3,16.3-2.3,34.9,10,47.2
	c11.8,11.8,29.2,15.9,45,10.8l15.2,16.6c-0.7,1.4-1.7,2.8-2.8,3.9c-4.4,4.4-10.9,5.7-16.7,3.5c-1.1-0.4-2.3-0.2-3.1,0.6l-35.3,35.3
	c-9.6,9.6-9.6,25.1,0,34.7c4.6,4.6,10.8,7.2,17.3,7.2c6.6,0,12.7-2.6,17.3-7.2l35.3-35.3c0.8-0.8,1.1-2,0.6-3.1
	c-2.2-5.8-0.9-12.3,3.5-16.7c4.4-4.4,10.9-5.7,16.7-3.5c1.1,0.4,2.3,0.2,3.1-0.6l6.7-6.7c2-2,3.1-4.7,3.1-7.5s-1.1-5.5-3.1-7.5
	l-2.8-2.8l3.5-3.5l58.3,52.6c4.1,3.7,6.4,8.8,6.6,14.3c0.1,5.5-1.9,10.7-5.8,14.6c-3.9,3.9-9.1,6-14.6,5.8
	c-5.5-0.1-10.6-2.4-14.3-6.5l-43.3-47.4c-1.1-1.2-2.9-1.3-4.1-0.2c-1.2,1.1-1.3,2.9-0.2,4.1l43.3,47.4c4.8,5.2,11.3,8.2,18.4,8.4
	c0.2,0,0.4,0,0.6,0c6.9,0,13.3-2.7,18.2-7.5C191,180.3,193.7,173.6,193.5,166.5z M67.4,87c-0.8-0.9-2-1.2-3.1-0.8
	c-14.1,5.3-30.1,1.8-40.7-8.8c-9.7-9.7-13.4-23.7-10.1-36.7L32.7,60c1.8,1.8,4.1,2.7,6.6,2.7c2.5,0,4.8-1,6.6-2.7l14.7-14.7
	c1.8-1.8,2.7-4.1,2.7-6.6s-1-4.8-2.7-6.6L41.3,12.8c13-3.3,27,0.4,36.7,10.1c10.9,10.9,14.3,27.2,8.5,41.5c-0.4,1.1-0.1,2.4,0.7,3.2
	l20.8,18.8l-2.7,2.7l-2.8-2.8c-2-2-4.7-3.1-7.5-3.1s-5.5,1.1-7.5,3.1L80.9,93c-0.8,0.8-1.1,2-0.6,3.1c0.8,2,1.1,4,1,6.1L67.4,87z
	 M118.2,117l-5.4,5.4c-7.4-2.1-15.5-0.1-21,5.4h0c-5.5,5.5-7.6,13.6-5.4,21l-34.1,34.1c-3.5,3.5-8.3,5.5-13.3,5.5s-9.7-2-13.3-5.5
	c-7.3-7.3-7.3-19.2,0-26.5l34.1-34.1c7.4,2.1,15.5,0.1,21-5.4c5.5-5.5,7.6-13.6,5.4-21l5.4-5.4c1.9-1.9,5-1.9,6.9,0l4.9,4.9l9.9,9.9
	l4.9,4.9C120,112,120,115.1,118.2,117z M175.4,21.3l11.8,11.8l-10.5,5.5l-6.9-6.9L175.4,21.3z"/>
</svg>
