<?xml version="1.0" encoding="utf-8"?>
<!-- Generator: Adobe Illustrator 19.2.1, SVG Export Plug-In . SVG Version: 6.00 Build 0)  -->
<svg version="1.1" id="Layer_1" xmlns="http://www.w3.org/2000/svg" xmlns:xlink="http://www.w3.org/1999/xlink" x="0px" y="0px"
	 viewBox="0 0 8.8 8.4" style="enable-background:new 0 0 8.8 8.4;" xml:space="preserve">
<style type="text/css">
	.st0{fill:#FDFDFE;}
</style>
<path class="st0" d="M2.6,1.1c0.3,0.4,0.7,0.9,1,1.3c0,0,0,0,0,0c0,0.1,0.1,0.1,0.1,0.2c0,0.1,0,0.2,0,0.3c0,0.1,0,0.2-0.1,0.2
	c0,0,0,0,0,0c0,0.1-0.1,0.1-0.2,0.2c0,0,0,0,0,0C3.2,3.4,3.1,3.5,2.9,3.6C2.9,3.7,2.9,3.9,3,4c0.2,0.3,0.5,0.6,0.7,0.8v0l0,0
	C4,5.2,4.2,5.4,4.5,5.6C4.7,5.7,4.9,5.7,5,5.7c0.1-0.2,0.2-0.3,0.4-0.5c0,0,0,0,0,0C5.4,5.1,5.4,5,5.5,5c0,0,0,0,0,0
	c0.1,0,0.2-0.1,0.2-0.1c0,0,0,0,0,0c0.1,0,0.2,0,0.2,0c0,0,0,0,0,0C6.1,5,6.2,5,6.2,5v0c0.4,0.3,0.9,0.7,1.3,1c0,0,0,0,0,0
	c0.1,0.1,0.1,0.1,0.2,0.2h0c0,0.1,0.1,0.2,0.1,0.3c0,0.1,0,0.2,0,0.3h0c0,0.1-0.1,0.2-0.2,0.2C7.5,7.1,7.4,7.2,7.2,7.2c0,0,0,0,0,0
	C7.1,7.3,7,7.4,6.8,7.4c-0.7,0.2-1.5,0.2-2.2,0C3.9,7.1,3.1,6.7,2.5,6.1C1.9,5.5,1.5,4.7,1.2,4C1,3.2,0.9,2.5,1.2,1.8
	c0.1-0.2,0.1-0.3,0.2-0.4c0,0,0,0,0,0c0,0,0,0,0,0c0.1-0.1,0.2-0.2,0.2-0.3C1.7,1,1.7,0.9,1.8,0.9c0,0,0,0,0,0c0.1,0,0.2,0,0.2,0
	C2.3,0.9,2.4,0.9,2.6,1.1L2.6,1.1z M3.1,2.7c-0.3-0.4-0.7-0.9-1-1.3c0,0,0,0,0,0c0,0,0,0,0,0c0,0,0,0,0,0c0,0,0,0,0,0c0,0,0,0,0,0
	c0,0,0,0,0,0c0,0,0,0,0,0C1.9,1.5,1.9,1.5,1.8,1.6h0C1.7,1.7,1.7,1.8,1.7,2c-0.2,0.6-0.2,1.2,0,1.8c0.2,0.7,0.7,1.3,1.2,1.9
	c0.5,0.5,1.2,1,1.9,1.2c0.6,0.2,1.3,0.2,1.8,0c0.1,0,0.2-0.1,0.3-0.1c0,0,0,0,0,0c0.1-0.1,0.2-0.1,0.2-0.2c0,0,0,0,0,0c0,0,0,0,0,0
	c0,0,0,0,0,0c0,0,0,0,0,0c0,0,0,0,0,0l0,0c0,0,0,0,0,0c0,0,0,0,0,0c0,0,0,0,0,0c-0.4-0.3-0.9-0.7-1.3-1v0v0c0,0,0,0,0,0c0,0,0,0,0,0
	c0,0,0,0,0,0c0,0,0,0,0,0c0,0,0,0,0,0c0,0,0,0,0,0v0c0,0,0,0,0,0l0,0v0C5.6,5.7,5.5,5.8,5.3,6c0,0,0,0.1-0.1,0.1c0,0-0.5,0.3-1-0.1
	C3.9,5.8,3.6,5.5,3.3,5.3c0,0,0,0,0,0C3,5,2.8,4.7,2.6,4.3c-0.4-0.6-0.1-1-0.1-1v0c0,0,0-0.1,0.1-0.1C2.7,3.1,2.9,3,3.1,2.9
	c0,0,0,0,0,0c0,0,0,0,0,0c0,0,0,0,0,0C3.2,2.8,3.2,2.8,3.1,2.7C3.2,2.8,3.2,2.7,3.1,2.7C3.2,2.7,3.1,2.7,3.1,2.7
	C3.1,2.7,3.1,2.7,3.1,2.7z"/>
</svg>
