<?xml version="1.0" encoding="utf-8"?>
<!-- Generator: Adobe Illustrator 19.2.1, SVG Export Plug-In . SVG Version: 6.00 Build 0)  -->
<svg version="1.1" id="Layer_1" xmlns="http://www.w3.org/2000/svg" xmlns:xlink="http://www.w3.org/1999/xlink" x="0px" y="0px"
	 viewBox="0 0 9.3 8.8" style="enable-background:new 0 0 9.3 8.8;" xml:space="preserve">
<style type="text/css">
	.st0{fill:#FFFFFF;}
</style>
<path class="st0" d="M2.6,5.8c-0.1,0-0.2-0.1-0.2-0.2c0-0.1,0.1-0.2,0.2-0.2h0.6L4,4c0,0-0.1-0.1-0.1-0.1l0,0v0
	C3.6,3.6,3.5,3.3,3.5,3s0.1-0.6,0.3-0.8l0,0C4,2,4.2,1.9,4.4,1.8V1.3c0-0.1,0.1-0.3,0.3-0.3c0.1,0,0.3,0.1,0.3,0.3v0.5
	C5.1,1.9,5.3,2,5.5,2.2v0C5.7,2.4,5.9,2.7,5.9,3S5.7,3.6,5.5,3.9l0,0c0,0-0.1,0.1-0.1,0.1l0.7,1.5h0.6c0.1,0,0.2,0.1,0.2,0.2
	c0,0.1-0.1,0.2-0.2,0.2H6.2l0.5,1.1c0,0.1,0,0.2,0,0.2l0.1,0.1l0.1,0.2c0,0.1,0,0.2-0.1,0.2c-0.1,0-0.2,0-0.2-0.1L6.6,7.4L6.5,7.3
	c-0.1,0-0.1-0.1-0.2-0.1L5.7,5.8H4.9V6c0,0.1-0.1,0.3-0.3,0.3C4.5,6.2,4.4,6.1,4.4,6V5.8H3.7L3,7.1c0,0.1-0.1,0.1-0.2,0.1L2.8,7.4
	L2.7,7.6c0,0.1-0.1,0.1-0.2,0.1c-0.1,0-0.1-0.1-0.1-0.2l0.1-0.2l0.1-0.1c0-0.1,0-0.2,0-0.2l0.5-1.1H2.6L2.6,5.8z M4.4,5.5V5.3
	C4.4,5.1,4.5,5,4.7,5c0.1,0,0.3,0.1,0.3,0.3v0.2h0.6L4.9,4.2c-0.2,0-0.3,0-0.5,0L3.8,5.5H4.4L4.4,5.5z M5.1,2.5
	c-0.3-0.3-0.7-0.3-0.9,0l0,0C4.1,2.7,4,2.8,4,3c0,0.2,0.1,0.4,0.2,0.5l0,0c0.2,0.2,0.5,0.3,0.7,0.1l0,0l0,0c0.1,0,0.1-0.1,0.2-0.1
	l0,0C5.3,3.4,5.3,3.2,5.3,3C5.3,2.8,5.3,2.7,5.1,2.5L5.1,2.5L5.1,2.5z"/>
</svg>
