<?xml version="1.0" encoding="utf-8"?>
<!-- Generator: Adobe Illustrator 19.2.1, SVG Export Plug-In . SVG Version: 6.00 Build 0)  -->
<svg version="1.1" id="Layer_1" xmlns="http://www.w3.org/2000/svg" xmlns:xlink="http://www.w3.org/1999/xlink" x="0px" y="0px"
	 viewBox="0 0 6 5.9" style="enable-background:new 0 0 6 5.9;" xml:space="preserve">
<style type="text/css">
	.st0{display:none;fill:#FFFFFF;}
	.st1{fill:#FFFFFF;}
</style>
<path class="st0" d="M2.5,0.6h1.1c0.2,0,0.3,0.1,0.4,0.2C4,0.8,4.1,1,4.1,1.1v0.2h0.4c0.3,0,0.5,0.1,0.7,0.3C5.3,1.8,5.5,2,5.5,2.3
	v2.1c0,0.3-0.1,0.5-0.3,0.7C5,5.2,4.7,5.3,4.5,5.3h-3C1.2,5.3,1,5.2,0.8,5l0,0C0.6,4.8,0.5,4.6,0.5,4.3V2.3c0-0.3,0.1-0.5,0.3-0.7
	l0,0h0C1,1.4,1.2,1.3,1.5,1.3h0.4V1.1C1.9,1,2,0.8,2.1,0.7C2.2,0.6,2.3,0.6,2.5,0.6L2.5,0.6z M4,1.7L4,1.7C4,1.7,4,1.7,4,1.7L4,1.7
	L2,1.7c0,0,0,0,0,0H1.5c-0.2,0-0.3,0.1-0.4,0.2l0,0C1,2,0.9,2.1,0.9,2.3v0.9h0.5V2.9c0-0.1,0.1-0.1,0.1-0.1h0h0.8
	c0.1,0,0.1,0.1,0.1,0.1v0v0.3h1V2.9c0-0.1,0.1-0.1,0.1-0.1h0h0.8c0.1,0,0.1,0.1,0.1,0.1v0v0.3h0.5V2.3C5.1,2.1,5,2,4.9,1.9
	C4.8,1.7,4.6,1.7,4.5,1.7H4L4,1.7z M2.1,1.3L2.1,1.3h1.7V1.1c0-0.1,0-0.2-0.1-0.2C3.7,0.8,3.6,0.8,3.5,0.8H2.5c-0.1,0-0.2,0-0.2,0.1
	C2.2,1,2.1,1,2.1,1.1V1.3L2.1,1.3z M0.9,3.4L0.9,3.4v0.9c0,0.2,0.1,0.3,0.2,0.4l0,0c0.1,0.1,0.3,0.2,0.4,0.2h3
	c0.2,0,0.3-0.1,0.4-0.2C5,4.6,5.1,4.5,5.1,4.3V3.4H4.5v0.3c0,0.1-0.1,0.1-0.1,0.1h0H3.6c-0.1,0-0.1-0.1-0.1-0.1v0V3.4h-1v0.3
	c0,0.1-0.1,0.1-0.1,0.1h0H1.6c-0.1,0-0.1-0.1-0.1-0.1v0V3.4H0.9L0.9,3.4z M2.3,3L2.3,3H1.7v0.3v0v0v0.3h0.6V3.3v0v0V3L2.3,3z M4.3,3
	L4.3,3H3.7v0.3v0v0v0.3h0.6V3.3v0v0V3L4.3,3z"/>
<path class="st0" d="M5.3,0.9H0.7C0.6,0.9,0.5,1,0.5,1.1v2.5c0,0.1,0.1,0.2,0.2,0.2h0.1c0,0,0,0,0,0C0.9,3.9,0.9,4,0.9,4
	C1,4.1,1,4.1,1,4.2c0,0-0.1,0-0.1,0.1c-0.1,0-0.2,0.1-0.2,0.2c0,0.1-0.1,0.1-0.1,0.2l0,0c0,0.1,0,0.1,0,0.2v0.1
	c0,0.1,0.1,0.1,0.1,0.1h4.6c0.1,0,0.1-0.1,0.1-0.1V4.8c0,0,0-0.1,0-0.1c0,0,0-0.1-0.1-0.1c0,0-0.1-0.1-0.1-0.1c0,0-0.1-0.1-0.1-0.1
	l0,0c0,0-0.1-0.1-0.2-0.1l0,0C5,4.1,5,4.1,5,4c0-0.1,0.1-0.1,0.1-0.2h0.1c0.1,0,0.2-0.1,0.2-0.2V1.1C5.5,1,5.4,0.9,5.3,0.9L5.3,0.9z
	 M5,4.4L5,4.4L5,4.4C5,4.5,5,4.5,5,4.4L5,4.4c0.1,0.1,0.1,0.1,0.1,0.1c0,0,0,0.1,0,0.1h0c0,0,0,0,0,0.1H0.8c0,0,0,0,0-0.1l0,0
	c0,0,0-0.1,0-0.1C0.9,4.5,1,4.5,1,4.4c0.1,0,0.1,0,0.2,0h0.7c0,0,0.1,0,0.1,0h0c0,0,0.1,0,0.1,0c0,0,0,0,0,0c0,0,0,0,0,0
	c0,0,0,0,0,0c0,0,0.1,0,0.2,0c0,0,0.1-0.1,0.1-0.1c0,0,0.1,0,0.2,0h0.7c0,0,0.1,0,0.1,0c0,0,0.1,0,0.1,0c0,0,0,0,0,0c0,0,0,0,0,0
	c0,0,0,0,0,0c0,0,0.1,0,0.2,0c0,0,0.1-0.1,0.1-0.1c0,0,0.1,0,0.2,0h0.7C4.8,4.4,4.9,4.4,5,4.4L5,4.4C4.9,4.4,5,4.4,5,4.4L5,4.4z
	 M1,3.6L1,3.6C1,3.6,1,3.6,1,3.6c0-0.1,0-0.2,0-0.2c0.1-0.2,0.3-0.3,0.5-0.3C1.8,3.1,2,3.4,2,3.6C2,3.7,2,3.8,2,3.9
	C1.9,4,1.8,4.1,1.7,4.1c-0.1,0-0.1,0-0.2,0c-0.1,0-0.1,0-0.2,0C1.3,4.1,1.2,4,1.1,3.9C1.1,3.8,1,3.7,1,3.6L1,3.6z M2.1,4.2L2.1,4.2
	c0,0,0.1-0.1,0.1-0.1C2.2,4,2.3,3.9,2.3,3.8C2.3,3.9,2.3,4,2.4,4c0,0,0.1,0.1,0.1,0.1c0,0-0.1,0-0.1,0c0,0-0.1,0-0.1,0.1
	c0,0,0,0,0,0C2.2,4.2,2.1,4.2,2.1,4.2L2.1,4.2L2.1,4.2z M2.5,3.6L2.5,3.6C2.5,3.6,2.5,3.6,2.5,3.6c0-0.1,0-0.2,0-0.2
	C2.6,3.3,2.8,3.1,3,3.1c0.3,0,0.5,0.2,0.5,0.5c0,0.1,0,0.2-0.1,0.3C3.4,4,3.3,4.1,3.2,4.1l0,0c-0.1,0-0.1,0-0.2,0
	c-0.1,0-0.1,0-0.2,0C2.7,4.1,2.6,4,2.6,3.9C2.5,3.8,2.5,3.7,2.5,3.6L2.5,3.6z M3.5,4.2L3.5,4.2c0,0,0.1-0.1,0.1-0.1
	C3.7,4,3.7,3.9,3.7,3.8C3.7,3.9,3.8,4,3.8,4c0,0,0.1,0.1,0.1,0.1c0,0-0.1,0-0.1,0c0,0-0.1,0-0.1,0.1c0,0,0,0,0,0
	C3.6,4.2,3.6,4.2,3.5,4.2L3.5,4.2L3.5,4.2z M3.9,3.6L3.9,3.6C3.9,3.6,3.9,3.6,3.9,3.6L3.9,3.6C4,3.3,4.2,3.1,4.4,3.1
	c0.3,0,0.5,0.2,0.5,0.5c0,0.1,0,0.2-0.1,0.3C4.8,4,4.7,4.1,4.6,4.1l0,0c-0.1,0-0.1,0-0.2,0c-0.1,0-0.1,0-0.2,0h0
	C4.1,4.1,4.1,4,4,3.9C4,3.8,3.9,3.7,3.9,3.6L3.9,3.6z M5.1,3.3L5.1,3.3C5,3.2,5,3.2,4.9,3.1C4.8,3,4.6,2.9,4.4,2.9
	c-0.3,0-0.6,0.2-0.7,0.5c0,0,0,0.1,0,0.1l0,0l0,0C3.7,3.2,3.3,2.9,3,2.9c-0.3,0-0.6,0.2-0.7,0.5c0,0,0,0.1,0,0.1l0,0
	C2.2,3.2,1.9,2.9,1.5,2.9C1.3,2.9,1,3.1,0.9,3.3v-2h4.2V3.3L5.1,3.3z"/>
<path class="st1" d="M4.1,2.5h0.6c0.1,0,0.1-0.1,0.1-0.1c0-0.1-0.1-0.1-0.1-0.1H4.1C4.1,2.3,4,2.4,4,2.4C4,2.5,4.1,2.5,4.1,2.5
	L4.1,2.5z M1.2,3.4L1.2,3.4h0.6C1.9,3.4,2,3.4,2,3.3c0-0.1-0.1-0.1-0.1-0.1H1.2c-0.1,0-0.1,0.1-0.1,0.1C1.1,3.4,1.2,3.4,1.2,3.4
	L1.2,3.4z M4.1,3.4L4.1,3.4h0.6c0.1,0,0.1-0.1,0.1-0.1c0-0.1-0.1-0.1-0.1-0.1H4.1C4.1,3.2,4,3.3,4,3.3C4,3.4,4.1,3.4,4.1,3.4
	L4.1,3.4z M4.1,1.6L4.1,1.6h0.6c0.1,0,0.1-0.1,0.1-0.1c0-0.1-0.1-0.1-0.1-0.1H4.1C4.1,1.4,4,1.4,4,1.5C4,1.6,4.1,1.6,4.1,1.6
	L4.1,1.6z M2.9,1.6L2.9,1.6h0.6c0.1,0,0.1-0.1,0.1-0.1c0-0.1-0.1-0.1-0.1-0.1H2.9c-0.1,0-0.1,0.1-0.1,0.1C2.8,1.6,2.9,1.6,2.9,1.6
	L2.9,1.6z M5.2,0.5L5.2,0.5H2.5c-0.1,0-0.2,0.1-0.2,0.2v1.7H0.7c-0.1,0-0.2,0.1-0.2,0.2v2.7c0,0.1,0.1,0.2,0.2,0.2h4.5
	c0.1,0,0.2-0.1,0.2-0.2V0.7C5.4,0.6,5.3,0.5,5.2,0.5L5.2,0.5z M2.3,5L2.3,5H0.9V2.7h1.3V5L2.3,5z M5,5L5,5H2.6V0.9H5V5L5,5z
	 M2.9,4.3L2.9,4.3h0.6c0.1,0,0.1-0.1,0.1-0.1c0-0.1-0.1-0.1-0.1-0.1H2.9c-0.1,0-0.1,0.1-0.1,0.1C2.8,4.3,2.9,4.3,2.9,4.3L2.9,4.3z
	 M4.1,4.3L4.1,4.3h0.6c0.1,0,0.1-0.1,0.1-0.1c0-0.1-0.1-0.1-0.1-0.1H4.1C4.1,4.1,4,4.2,4,4.2C4,4.3,4.1,4.3,4.1,4.3L4.1,4.3z
	 M2.9,3.4L2.9,3.4h0.6c0.1,0,0.1-0.1,0.1-0.1c0-0.1-0.1-0.1-0.1-0.1H2.9c-0.1,0-0.1,0.1-0.1,0.1C2.8,3.4,2.9,3.4,2.9,3.4L2.9,3.4z
	 M2.9,2.5L2.9,2.5h0.6c0.1,0,0.1-0.1,0.1-0.1c0-0.1-0.1-0.1-0.1-0.1H2.9c-0.1,0-0.1,0.1-0.1,0.1C2.8,2.5,2.9,2.5,2.9,2.5L2.9,2.5z
	 M1.2,4.3L1.2,4.3h0.6C1.9,4.3,2,4.3,2,4.2c0-0.1-0.1-0.1-0.1-0.1H1.2c-0.1,0-0.1,0.1-0.1,0.1C1.1,4.3,1.2,4.3,1.2,4.3L1.2,4.3z"/>
</svg>
