<?xml version="1.0" encoding="utf-8"?>
<!-- Generator: Adobe Illustrator 19.2.1, SVG Export Plug-In . SVG Version: 6.00 Build 0)  -->
<svg version="1.1" id="Layer_1" xmlns="http://www.w3.org/2000/svg" xmlns:xlink="http://www.w3.org/1999/xlink" x="0px" y="0px"
	 viewBox="0 0 9.3 8.8" style="enable-background:new 0 0 9.3 8.8;" xml:space="preserve">
<style type="text/css">
	.st0{fill:#FFFFFF;}
</style>
<path class="st0" d="M1.7,1.2L1.7,1.2h2C3.9,1.2,4,1.3,4,1.4v0V5h3.6c0.1,0,0.3,0.1,0.3,0.3v0v2c0,0.1-0.1,0.3-0.3,0.3h0H1.7
	c-0.1,0-0.3-0.1-0.3-0.3v0V1.4C1.5,1.3,1.6,1.2,1.7,1.2L1.7,1.2z M2.7,5C2.7,5,2.6,4.9,2.6,4.8c0-0.1,0.1-0.2,0.2-0.2h0.7V4.3H3.1
	C3,4.3,2.9,4.2,2.9,4.2C2.9,4.1,3,4,3.1,4h0.4V3.7H2.7c-0.1,0-0.2-0.1-0.2-0.2c0-0.1,0.1-0.2,0.2-0.2h0.7V3H3.1C3,3,2.9,3,2.9,2.9
	c0-0.1,0.1-0.2,0.2-0.2h0.4V2.4H2.7c-0.1,0-0.2-0.1-0.2-0.2c0-0.1,0.1-0.2,0.2-0.2h0.7V1.7H2v5.4h5.4V5.6H7v0.7
	c0,0.1-0.1,0.2-0.2,0.2c-0.1,0-0.2-0.1-0.2-0.2V5.6H6.3V6c0,0.1-0.1,0.2-0.2,0.2C6.1,6.1,6,6,6,6V5.6H5.7v0.7c0,0.1-0.1,0.2-0.2,0.2
	c-0.1,0-0.2-0.1-0.2-0.2V5.6H5V6C5,6,5,6.1,4.9,6.1C4.8,6.1,4.7,6,4.7,6V5.6H4.4v0.7c0,0.1-0.1,0.2-0.2,0.2c-0.1,0-0.2-0.1-0.2-0.2
	V5.6H3.8h0c-0.1,0-0.3-0.1-0.3-0.3V5H2.7z"/>
</svg>
