<?xml version="1.0" encoding="utf-8"?>
<!-- Generator: Adobe Illustrator 19.2.1, SVG Export Plug-In . SVG Version: 6.00 Build 0)  -->
<svg version="1.1" id="Layer_1" xmlns="http://www.w3.org/2000/svg" xmlns:xlink="http://www.w3.org/1999/xlink" x="0px" y="0px"
	 viewBox="0 0 9.3 8.8" style="enable-background:new 0 0 9.3 8.8;" xml:space="preserve">
<style type="text/css">
	.st0{fill:#FFFFFF;}
</style>
<path class="st0" d="M4.7,1C5.6,1,6.4,1.4,7,2l0,0c0.6,0.6,1,1.4,1,2.4c0,0.4-0.1,0.7-0.2,1C7.8,5.7,7.6,6,7.4,6.3v1.2
	c0,0.1-0.1,0.3-0.3,0.3h0H4.7c-0.9,0-1.8-0.4-2.4-1v0l0,0c-0.6-0.6-1-1.5-1-2.4c0-0.9,0.4-1.8,1-2.4l0,0C2.9,1.4,3.7,1,4.7,1L4.7,1z
	 M3,3.7h3.4c0.1,0,0.2-0.1,0.2-0.2c0-0.1-0.1-0.2-0.2-0.2H3c-0.1,0-0.2,0.1-0.2,0.2C2.8,3.6,2.9,3.7,3,3.7L3,3.7z M3,4.5h3.4
	c0.1,0,0.2-0.1,0.2-0.2c0-0.1-0.1-0.2-0.2-0.2H3c-0.1,0-0.2,0.1-0.2,0.2C2.8,4.5,2.9,4.5,3,4.5L3,4.5z M3,5.4h3.4
	c0.1,0,0.2-0.1,0.2-0.2c0-0.1-0.1-0.2-0.2-0.2H3c-0.1,0-0.2,0.1-0.2,0.2C2.8,5.3,2.9,5.4,3,5.4L3,5.4z M6.7,2.4
	c-0.5-0.5-1.2-0.8-2-0.8c-0.8,0-1.5,0.3-2,0.8l0,0l0,0c-0.5,0.5-0.8,1.2-0.8,2c0,0.8,0.3,1.5,0.8,2l0,0c0.5,0.5,1.2,0.8,2,0.8h2.3
	v-1h0c0-0.1,0-0.1,0-0.2c0.2-0.2,0.3-0.5,0.4-0.8C7.5,5,7.5,4.7,7.5,4.4C7.5,3.6,7.2,2.9,6.7,2.4L6.7,2.4z"/>
</svg>
