<?xml version="1.0" encoding="utf-8"?>
<!-- Generator: Adobe Illustrator 19.2.1, SVG Export Plug-In . SVG Version: 6.00 Build 0)  -->
<svg version="1.1" id="Layer_1" xmlns="http://www.w3.org/2000/svg" xmlns:xlink="http://www.w3.org/1999/xlink" x="0px" y="0px"
	 viewBox="0 0 9.3 8.8" style="enable-background:new 0 0 9.3 8.8;" xml:space="preserve">
<style type="text/css">
	.st0{fill:#FFFFFF;}
</style>
<g>
	<path class="st0" d="M5.2,5.7c-0.4,0-0.7-0.1-0.9-0.4C4,5.1,3.8,4.7,3.8,4.4C3.8,4,4,3.7,4.2,3.4C4.5,3.2,4.8,3,5.2,3
		C5.2,3,5.3,3,5.3,2.9c0-0.1-0.1-0.2-0.2-0.2C4.7,2.7,4.3,2.9,4,3.2C3.7,3.5,3.5,3.9,3.5,4.4S3.7,5.2,4,5.5C4.3,5.8,4.7,6,5.2,6
		C5.6,6,6,5.8,6.3,5.5c0.3-0.3,0.5-0.7,0.5-1.2c0-0.1,0-0.3-0.1-0.4c0-0.1-0.1-0.3-0.2-0.4c0-0.1-0.1-0.1-0.2-0.1
		c-0.1,0-0.1,0.1-0.1,0.2C6.4,3.8,6.4,3.9,6.5,4c0,0.1,0,0.2,0,0.3c0,0.4-0.1,0.7-0.4,0.9C5.9,5.6,5.5,5.7,5.2,5.7z M5.2,6.5
		C4.6,6.5,4,6.3,3.6,5.9C3.3,5.5,3,5,3,4.4c0-0.6,0.2-1.1,0.6-1.5C4,2.5,4.6,2.2,5.2,2.2c0.1,0,0.2-0.1,0.2-0.2
		c0-0.1-0.1-0.2-0.2-0.2c-0.7,0-1.3,0.3-1.7,0.7C3,3.1,2.7,3.7,2.7,4.4c0,0.7,0.3,1.3,0.7,1.7v0c0.4,0.4,1.1,0.7,1.7,0.7
		c0.6,0,1.1-0.2,1.5-0.5C7.1,6,7.4,5.5,7.5,5c0-0.1,0-0.2-0.1-0.2c-0.1,0-0.2,0-0.2,0.1C7.1,5.4,6.8,5.8,6.5,6.1
		C6.1,6.4,5.6,6.5,5.2,6.5z M6.6,6.8C6.4,7,6.1,7.1,5.9,7.1C5.7,7.2,5.4,7.2,5.2,7.2c-0.8,0-1.5-0.3-2-0.8c-0.5-0.5-0.8-1.2-0.8-2
		c0-0.8,0.3-1.5,0.8-2s1.2-0.8,2-0.8c0.1,0,0.3-0.1,0.3-0.3C5.4,1.1,5.3,1,5.2,1C4.2,1,3.4,1.4,2.8,2c-0.6,0.6-1,1.5-1,2.4
		s0.4,1.8,1,2.4c0.6,0.6,1.5,1,2.4,1c0.3,0,0.6,0,0.9-0.1c0.3-0.1,0.6-0.2,0.8-0.3C7,7.2,7,7.1,6.9,6.9C6.9,6.8,6.7,6.8,6.6,6.8z
		 M5.2,3.5c-0.2,0-0.4,0.1-0.6,0.2h0v0C4.4,3.9,4.3,4.1,4.3,4.4c0,0.2,0.1,0.4,0.2,0.6l0,0h0c0.2,0.2,0.4,0.2,0.6,0.2
		c0.2,0,0.4-0.1,0.6-0.2l0,0C5.9,4.8,6,4.6,6,4.4c0-0.2-0.1-0.4-0.2-0.6h0v0C5.6,3.6,5.4,3.5,5.2,3.5z M5.5,4.7L5.5,4.7
		C5.4,4.8,5.3,4.9,5.2,4.9C5,4.9,4.9,4.8,4.8,4.7l0,0C4.7,4.7,4.6,4.5,4.6,4.4c0-0.1,0.1-0.3,0.2-0.4l0,0C4.9,3.9,5,3.9,5.2,3.9
		c0.1,0,0.3,0.1,0.4,0.2l0,0c0.1,0.1,0.2,0.2,0.2,0.4C5.7,4.5,5.6,4.7,5.5,4.7z"/>
</g>
</svg>
