<?xml version="1.0" encoding="utf-8"?>
<!-- Generator: Adobe Illustrator 19.2.1, SVG Export Plug-In . SVG Version: 6.00 Build 0)  -->
<svg version="1.1" id="Capa_1" xmlns="http://www.w3.org/2000/svg" xmlns:xlink="http://www.w3.org/1999/xlink" x="0px" y="0px"
	 viewBox="0 0 67.1 64.4" style="enable-background:new 0 0 67.1 64.4;" xml:space="preserve">
<style type="text/css">
	.st0{fill:#C94B5F;}
	.st1{fill:#E1E7EC;}
	.st2{fill:#20344F;}
	.st3{opacity:0.25;clip-path:url(#SVGID_2_);}
	.st4{fill:none;}
	.st5{fill:#E1E7EC;stroke:#222221;stroke-width:0.25;stroke-miterlimit:10;}
	.st6{fill:#20344F;stroke:#FFFFFF;stroke-width:0.2851;stroke-miterlimit:10;}
	.st7{fill:none;stroke:#222221;stroke-width:0.5;stroke-miterlimit:10;}
	.st8{fill:url(#SVGID_3_);}
	.st9{fill:url(#SVGID_4_);}
	.st10{fill:url(#SVGID_5_);}
	.st11{fill:url(#SVGID_6_);}
	.st12{fill:#20344F;stroke:#FFFFFF;stroke-width:0.2368;stroke-miterlimit:10;}
	.st13{fill:url(#SVGID_7_);}
	.st14{fill:url(#SVGID_8_);}
	.st15{fill:url(#SVGID_9_);}
	.st16{fill:url(#SVGID_10_);}
	.st17{fill:none;stroke:#E1E7EC;stroke-miterlimit:10;}
	.st18{fill:#FFFFFF;}
	.st19{opacity:0.2;}
	.st20{fill:none;stroke:#000000;stroke-width:0.8035;stroke-miterlimit:10;}
	.st21{fill:none;stroke:#20344F;stroke-width:2.1426;stroke-miterlimit:10;}
	.st22{clip-path:url(#SVGID_12_);}
	.st23{fill:#D6DFE8;}
	.st24{fill:url(#SVGID_15_);}
	.st25{fill:#20344F;stroke:#FFFFFF;stroke-width:0.4015;stroke-miterlimit:10;}
	.st26{fill:url(#SVGID_24_);}
	.st27{fill:url(#SVGID_25_);}
	.st28{fill:url(#SVGID_26_);}
	.st29{fill:url(#SVGID_27_);}
	.st30{fill:none;stroke:#E1E7EC;stroke-width:0.5;stroke-miterlimit:10;}
	.st31{opacity:0.35;}
</style>
<g>
	<path class="st1" d="M14.9,34.2C14.9,34.2,14.9,34.2,14.9,34.2c-0.6-0.9-1.7-1.4-2.7-1c-0.7,0.2-1.2,0.8-1.4,1.4c0,0,0,0,0,0
		c0,0,0,0,0,0.1c0,0,0,0,0,0c-0.4,1.1-1.2,1.9-2.3,2.3c1.2,1.1,2.9,1.5,4.4,0.9c0.6-0.2,1.1-0.5,1.6-0.9c0,0,0,0,0,0
		c0.7-0.6,0.9-1.6,0.7-2.4C15.1,34.5,15,34.3,14.9,34.2z M13.8,36.3l-0.2,0.1c0,0,0,0,0,0c-0.3,0.3-0.7,0.5-1.1,0.6
		c-0.2,0.1-0.3,0.1-0.5,0.1c0,0,0,0,0,0l-0.2,0c-0.1,0-0.2,0-0.3,0c-0.3-0.1-0.5-0.3-0.5-0.5c-0.1-0.4,0.2-0.7,0.5-0.8l0.2,0
		c0,0,0,0,0,0c0.1,0,0.2,0,0.3-0.1c0.2-0.1,0.5-0.2,0.6-0.3l0.1-0.1c0.3-0.2,0.7-0.2,0.9,0.1C14.1,35.6,14.1,36,13.8,36.3z"/>
	<path class="st1" d="M32,33.3l0.4-2.6c0-0.2,0.1-0.5,0-0.7C32.1,31.4,31.9,32.5,32,33.3z"/>
	<path class="st1" d="M59.7,23.2c0.8-0.8,1.1-1.9,0.7-2.9c-0.3-1-1.2-1.8-2.3-1.9l-9.5-1.4c-0.2,0-0.3-0.1-0.4-0.3L44,8
		c-0.5-1-1.5-1.6-2.6-1.6S39.4,7,38.9,8l-4.2,8.6c-0.1,0.2-0.2,0.3-0.4,0.3l-9.5,1.4c-1.1,0.2-2,0.9-2.3,1.9c-0.3,1-0.1,2.2,0.7,2.9
		l1.1,1.1c0.5-0.3,1-0.6,1.5-1c0.2-0.1,0.3-0.2,0.5-0.3l-1.4-1.4c-0.2-0.2-0.2-0.5-0.1-0.6c0-0.1,0.1-0.3,0.5-0.4l7.2-1
		c0.9-0.4,1.7-0.8,2.5-1.1c0.7-0.3,1.3-0.5,1.9-0.7c0,0,0-0.1,0.1-0.1L40.9,9c0.1-0.3,0.4-0.3,0.5-0.3c0.1,0,0.4,0,0.5,0.3v0
		l4.2,8.6c0.4,0.8,1.2,1.4,2.1,1.6l9.5,1.4c0.3,0,0.4,0.3,0.5,0.4c0,0.1,0.1,0.4-0.1,0.6l-6.9,6.7c-0.7,0.7-1,1.6-0.8,2.5l1.6,9.4
		c0.1,0.3-0.1,0.5-0.2,0.6c-0.1,0.1-0.3,0.2-0.6,0l-8.5-4.5c-0.4-0.2-0.9-0.3-1.3-0.3c-0.5,0-0.9,0.1-1.3,0.3l-4.3,2.3
		c0.4,0.8,0.5,1.6,0.4,2.4l4.9-2.6c0.2-0.1,0.4-0.1,0.5,0l8.5,4.5c0.4,0.2,0.9,0.3,1.3,0.3c0.6,0,1.2-0.2,1.7-0.5
		c0.9-0.6,1.3-1.7,1.1-2.8l-1.6-9.4c0-0.2,0-0.4,0.2-0.5L59.7,23.2z"/>
	<path class="st1" d="M32.1,35.6C32.1,35.6,32.1,35.6,32.1,35.6c0.1,0.1,0.1,0.1,0.2,0.1C32.2,35.7,32.1,35.7,32.1,35.6z"/>
	<path class="st1" d="M32.4,34.6c-0.3-0.3-0.4-0.7-0.4-1.2l-0.2,1.2C32,34.4,32.3,34.4,32.4,34.6z"/>
	<path class="st1" d="M25.4,55.1c0.2,0.3,0.3,0.7,0.5,1c0,0.1,0.2,0.5,0.5,0.9c-0.3-0.4-0.5-0.7-0.5-0.9
		C25.8,55.7,25.6,55.4,25.4,55.1z"/>
	<path class="st1" d="M31.8,28.4c0.4,0.5,0.6,1,0.6,1.6c0-0.1,0.1-0.3,0.1-0.4c0.5-1.7,1.2-3.3,1.5-3.9c-0.5,0.4-1.1,0.8-1.7,1.2
		C32.2,27.4,32,27.9,31.8,28.4z"/>
	<path class="st1" d="M34.9,41.7C34.9,41.7,34.9,41.6,34.9,41.7L34.9,41.7C34.9,41.6,34.9,41.7,34.9,41.7z"/>
	<path class="st1" d="M24.3,52.2c0-0.1-0.1-0.3-0.1-0.4C24.2,51.9,24.2,52,24.3,52.2z"/>
	<path class="st1" d="M24.6,53.2c-0.1-0.2-0.1-0.3-0.2-0.5C24.5,52.8,24.5,53,24.6,53.2z"/>
	<path class="st1" d="M24.2,51.1c0.2-0.2,0.4-0.4,0.6-0.6c-1.1-3.9-1.3-7.9-1.1-11.7L23,38.6c-0.1,0-0.3-0.2-0.3-0.3
		c-0.2,4-0.1,8.8,1.3,13.3C24,51.4,24.1,51.2,24.2,51.1z"/>
	<path class="st1" d="M25,54.1c-0.1-0.1-0.1-0.3-0.2-0.4C24.9,53.8,24.9,53.9,25,54.1z"/>
	<path class="st1" d="M31,51.7c-0.6-3.5,1.3-6.7,3.6-9.6C32.4,45,30.4,48.2,31,51.7z"/>
	<path class="st1" d="M23.9,36.7c0.2-1.7,0.4-3.4,0.7-4.8c-0.4,0.2-0.8,0.4-1.2,0.6c-0.2,1.1-0.3,2.2-0.5,3.4
		c-0.1,0.6-0.1,1.3-0.2,1.9c0,0,0.1-0.1,0.1-0.1L23.9,36.7z"/>
	<path class="st1" d="M31.6,29.3c0,0.1,0,0.1-0.1,0.2l0.3,0c0.2,0,0.4,0.2,0.4,0.4c0.1,0.2,0,0.4-0.1,0.5l-1,1
		c-0.3,1.5-0.2,2.7,0.3,3.4c0.1-0.1,0.3-0.2,0.4-0.3c0,0,0,0,0,0l0.2-1.2c-0.1-0.8,0.1-1.9,0.5-3.3c0-0.6-0.3-1.1-0.6-1.6
		C31.7,28.7,31.7,29,31.6,29.3z"/>
	<path class="st1" d="M31.6,29.3c0,0.1,0,0.1-0.1,0.2l0.3,0c0.2,0,0.4,0.2,0.4,0.4c0.1,0.2,0,0.4-0.1,0.5l-1,1
		c-0.3,1.5-0.2,2.7,0.3,3.4c0.1-0.1,0.3-0.2,0.4-0.3c0,0,0,0,0,0l0.2-1.2c-0.1-0.8,0.1-1.9,0.5-3.3c0-0.6-0.3-1.1-0.6-1.6
		C31.7,28.7,31.7,29,31.6,29.3z"/>
	<path class="st1" d="M34.9,41.6c0,0,0.1-0.1,0.1-0.1C35,41.5,34.9,41.6,34.9,41.6L34.9,41.6z"/>
	<path class="st1" d="M34.9,41.6c0,0,0.1-0.1,0.1-0.1C35,41.5,34.9,41.6,34.9,41.6L34.9,41.6z"/>
	<path class="st1" d="M28.1,39.7c0-0.2,0.1-0.4,0.2-0.5l-4-1.3l5.6-5.2l0.3-1.7l-6.2,5.8c-0.1,0.7-0.1,1.4-0.2,2.2l4.2,1.4
		C28,40,28.1,39.9,28.1,39.7z"/>
	<path class="st1" d="M30,29.8l-0.7-0.7l-0.2,0c-0.5,0.3-0.9,0.6-1.4,0.9l2.4,0.4l0,0C30.2,30.2,30.2,30,30,29.8z"/>
	<path class="st1" d="M22.7,38.2c0,0,0,0.1,0,0.1c0-0.2,0-0.3,0-0.5C22.7,37.9,22.7,38,22.7,38.2z"/>
	<path class="st1" d="M31.5,29.5l-2.2-0.3l0.7,0.7c0.1,0.1,0.2,0.3,0.2,0.5l0,0l0.4,0.1l-0.5,0.4l-0.3,1.7l1.3-1.2
		C31.2,30.9,31.3,30.2,31.5,29.5z"/>
	<path class="st1" d="M31.5,29.5l-2.2-0.3l0.7,0.7c0.1,0.1,0.2,0.3,0.2,0.5l0,0l0.4,0.1l-0.5,0.4l-0.3,1.7l1.3-1.2
		C31.2,30.9,31.3,30.2,31.5,29.5z"/>
	<path class="st1" d="M23,38.6l0.7,0.2c0-0.7,0.1-1.5,0.2-2.2l-1.1,1c0,0-0.1,0.1-0.1,0.1c0,0.2,0,0.3,0,0.5
		C22.8,38.4,22.9,38.5,23,38.6z"/>
	<path class="st1" d="M23,38.6l0.7,0.2c0-0.7,0.1-1.5,0.2-2.2l-1.1,1c0,0-0.1,0.1-0.1,0.1c0,0.2,0,0.3,0,0.5
		C22.8,38.4,22.9,38.5,23,38.6z"/>
	<path class="st1" d="M32.1,30.5c0.1-0.1,0.2-0.4,0.1-0.5c-0.1-0.2-0.2-0.3-0.4-0.4l-0.3,0c-0.2,0.7-0.4,1.3-0.5,1.9L32.1,30.5z"/>
	<path class="st1" d="M32.1,30.5c0.1-0.1,0.2-0.4,0.1-0.5c-0.1-0.2-0.2-0.3-0.4-0.4l-0.3,0c-0.2,0.7-0.4,1.3-0.5,1.9L32.1,30.5z"/>
	<path class="st1" d="M32.1,30.5c0.1-0.1,0.2-0.4,0.1-0.5c-0.1-0.2-0.2-0.3-0.4-0.4l-0.3,0c-0.2,0.7-0.4,1.3-0.5,1.9L32.1,30.5z"/>
	<path class="st1" d="M34.9,39.1L34.9,39.1C34.9,39,34.9,39,34.9,39.1C34.9,39,34.9,39,34.9,39.1z"/>
	<path class="st1" d="M32,51.5c-0.6-3.1,1.3-6,3.4-8.7C33.3,45.5,31.5,48.4,32,51.5z"/>
	<path class="st1" d="M28.5,43.3c0.1-0.6,0.2-1.2,0.3-1.8c-0.2-0.3-0.3-0.7-0.3-1.1c0,0-0.1,0-0.1,0L28,40.2c-0.2,1-0.4,2-0.5,2.9
		c-0.4,2.8-0.9,5.4-2.6,7.3c0.2,0.8,0.5,1.7,0.8,2.5c-0.2-0.4-0.3-0.9-0.5-1.3C27.5,49.4,28,46.3,28.5,43.3z"/>
	<path class="st1" d="M26,53.8c-0.1-0.1-0.1-0.3-0.2-0.4C25.9,53.5,25.9,53.6,26,53.8z"/>
	<path class="st1" d="M32.4,34.6C32.4,34.6,32.4,34.6,32.4,34.6C32.5,34.6,32.5,34.6,32.4,34.6C32.5,34.6,32.5,34.6,32.4,34.6z"/>
	<path class="st1" d="M32.1,35.6c-0.1-0.1-0.2-0.1-0.3-0.2c-0.1,0-0.1-0.1-0.1-0.1l-0.1,0.8C31.7,36,31.9,35.8,32.1,35.6z"/>
	<path class="st1" d="M28.9,37.7c-0.3,0.5-0.5,1-0.6,1.5l0.4,0.1L28.9,37.7z"/>
	<path class="st1" d="M28.9,37.7l-0.3,1.6l0.1,0c0.3,0.1,0.4,0.4,0.3,0.7c-0.1,0.2-0.3,0.4-0.5,0.4c0,0-0.1,0-0.1,0
		c0,0.4,0.1,0.8,0.3,1.1c0.1-0.5,0.2-1,0.3-1.5c0.4-1.4,1.2-2.7,2.4-3.9l0.1-0.8c-0.1-0.1-0.2-0.3-0.3-0.4
		C30.3,35.7,29.5,36.7,28.9,37.7z"/>
	<path class="st1" d="M28.9,37.7l-0.3,1.6l0.1,0c0.3,0.1,0.4,0.4,0.3,0.7c-0.1,0.2-0.3,0.4-0.5,0.4c0,0-0.1,0-0.1,0
		c0,0.4,0.1,0.8,0.3,1.1c0.1-0.5,0.2-1,0.3-1.5c0.4-1.4,1.2-2.7,2.4-3.9l0.1-0.8c-0.1-0.1-0.2-0.3-0.3-0.4
		C30.3,35.7,29.5,36.7,28.9,37.7z"/>
	<path class="st1" d="M34.9,39.2c0,0,0-0.1-0.1-0.1l0,0C34.9,39.1,34.9,39.2,34.9,39.2z"/>
	<path class="st1" d="M34.9,39.2c0,0,0-0.1-0.1-0.1l0,0C34.9,39.1,34.9,39.2,34.9,39.2z"/>
	<path class="st1" d="M34.9,41.7c0,0,0,0.1-0.1,0.1c-0.1,0.1-0.1,0.2-0.2,0.3c-2.2,2.9-4.2,6-3.6,9.6c0.6,3-1,4.5-1.1,4.5
		c0,0-0.1,0.1-0.1,0.1c0,0-0.4,0.6-1.5,0.6c-1,0-1.5-1.3-1.5-1.3c0,0,0,0,0-0.1c-0.2-0.3-0.3-0.6-0.5-0.9c0,0,0,0,0,0
		c-0.1-0.3-0.3-0.6-0.4-0.8c-0.1-0.1-0.1-0.3-0.2-0.4c-0.1-0.1-0.1-0.3-0.2-0.4c-0.3-0.8-0.6-1.6-0.8-2.5c-0.2,0.2-0.4,0.4-0.6,0.6
		c-0.2,0.1-0.2,0.3-0.2,0.5c0,0,0,0.1,0,0.1c0,0.1,0.1,0.3,0.1,0.4c0.1,0.2,0.1,0.3,0.2,0.5c0.1,0.2,0.1,0.3,0.2,0.5
		c0.1,0.2,0.1,0.3,0.2,0.5c0.1,0.1,0.1,0.3,0.2,0.4c0.1,0.3,0.3,0.6,0.4,0.9c0,0,0,0.1,0,0.1c0.2,0.3,0.3,0.7,0.5,1
		c0,0.1,0.2,0.5,0.5,0.9c0,0,0,0.1,0.1,0.1c0.1,0.1,0.2,0.2,0.3,0.3c0.1,0.1,0.2,0.2,0.4,0.3c0.1,0.1,0.3,0.2,0.4,0.2
		c0.2,0.1,0.5,0.2,0.8,0.2c1.4,0,2.1-0.8,2.3-1c0.3-0.3,2-2.1,1.4-5.4c-0.6-3.1,1.3-6,3.4-8.7c0.5-0.6,0.7-1.2,0.8-1.9L34.9,41.7
		C34.9,41.6,34.9,41.7,34.9,41.7z"/>
	<path class="st1" d="M34.9,41.7c0,0,0,0.1-0.1,0.1c-0.1,0.1-0.1,0.2-0.2,0.3c-2.2,2.9-4.2,6-3.6,9.6c0.6,3-1,4.5-1.1,4.5
		c0,0-0.1,0.1-0.1,0.1c0,0-0.4,0.6-1.5,0.6c-1,0-1.5-1.3-1.5-1.3c0,0,0,0,0-0.1c-0.2-0.3-0.3-0.6-0.5-0.9c0,0,0,0,0,0
		c-0.1-0.3-0.3-0.6-0.4-0.8c-0.1-0.1-0.1-0.3-0.2-0.4c-0.1-0.1-0.1-0.3-0.2-0.4c-0.3-0.8-0.6-1.6-0.8-2.5c-0.2,0.2-0.4,0.4-0.6,0.6
		c-0.2,0.1-0.2,0.3-0.2,0.5c0,0,0,0.1,0,0.1c0,0.1,0.1,0.3,0.1,0.4c0.1,0.2,0.1,0.3,0.2,0.5c0.1,0.2,0.1,0.3,0.2,0.5
		c0.1,0.2,0.1,0.3,0.2,0.5c0.1,0.1,0.1,0.3,0.2,0.4c0.1,0.3,0.3,0.6,0.4,0.9c0,0,0,0.1,0,0.1c0.2,0.3,0.3,0.7,0.5,1
		c0,0.1,0.2,0.5,0.5,0.9c0,0,0,0.1,0.1,0.1c0.1,0.1,0.2,0.2,0.3,0.3c0.1,0.1,0.2,0.2,0.4,0.3c0.1,0.1,0.3,0.2,0.4,0.2
		c0.2,0.1,0.5,0.2,0.8,0.2c1.4,0,2.1-0.8,2.3-1c0.3-0.3,2-2.1,1.4-5.4c-0.6-3.1,1.3-6,3.4-8.7c0.5-0.6,0.7-1.2,0.8-1.9L34.9,41.7
		C34.9,41.6,34.9,41.7,34.9,41.7z"/>
	<path class="st1" d="M24.4,52.7c-0.1-0.2-0.1-0.3-0.2-0.5C24.3,52.3,24.4,52.5,24.4,52.7z"/>
	<path class="st1" d="M24.4,52.7c-0.1-0.2-0.1-0.3-0.2-0.5C24.3,52.3,24.4,52.5,24.4,52.7z"/>
	<path class="st1" d="M24.4,52.7c-0.1-0.2-0.1-0.3-0.2-0.5C24.3,52.3,24.4,52.5,24.4,52.7z"/>
	<path class="st1" d="M24.8,53.7c-0.1-0.2-0.1-0.3-0.2-0.5C24.7,53.3,24.7,53.5,24.8,53.7z"/>
	<path class="st1" d="M24.8,53.7c-0.1-0.2-0.1-0.3-0.2-0.5C24.7,53.3,24.7,53.5,24.8,53.7z"/>
	<path class="st1" d="M24.8,53.7c-0.1-0.2-0.1-0.3-0.2-0.5C24.7,53.3,24.7,53.5,24.8,53.7z"/>
	<path class="st1" d="M25.4,55c-0.1-0.3-0.3-0.6-0.4-0.9C25.1,54.4,25.2,54.7,25.4,55z"/>
	<path class="st1" d="M25.4,55c-0.1-0.3-0.3-0.6-0.4-0.9C25.1,54.4,25.2,54.7,25.4,55z"/>
	<path class="st1" d="M25.4,55c-0.1-0.3-0.3-0.6-0.4-0.9C25.1,54.4,25.2,54.7,25.4,55z"/>
	<path class="st1" d="M24.1,51.6c0,0,0,0.1,0,0.1C24.1,51.7,24.1,51.6,24.1,51.6C24.1,51.6,24.1,51.6,24.1,51.6z"/>
	<path class="st1" d="M24.1,51.6c0,0,0,0.1,0,0.1C24.1,51.7,24.1,51.6,24.1,51.6C24.1,51.6,24.1,51.6,24.1,51.6z"/>
	<path class="st1" d="M24.1,51.6c0,0,0,0.1,0,0.1C24.1,51.7,24.1,51.6,24.1,51.6C24.1,51.6,24.1,51.6,24.1,51.6z"/>
	<path class="st1" d="M25.8,53.4c-0.1-0.1-0.1-0.3-0.2-0.4C25.7,53.1,25.8,53.2,25.8,53.4z"/>
	<path class="st1" d="M25.8,53.4c-0.1-0.1-0.1-0.3-0.2-0.4C25.7,53.1,25.8,53.2,25.8,53.4z"/>
	<path class="st1" d="M25.8,53.4c-0.1-0.1-0.1-0.3-0.2-0.4C25.7,53.1,25.8,53.2,25.8,53.4z"/>
	<path class="st1" d="M26.4,54.6c-0.1-0.3-0.3-0.6-0.4-0.8C26.1,54.1,26.3,54.4,26.4,54.6z"/>
	<path class="st1" d="M26.4,54.6c-0.1-0.3-0.3-0.6-0.4-0.8C26.1,54.1,26.3,54.4,26.4,54.6z"/>
	<path class="st1" d="M26.4,54.6c-0.1-0.3-0.3-0.6-0.4-0.8C26.1,54.1,26.3,54.4,26.4,54.6z"/>
	<path class="st1" d="M32.5,34.6C32.5,34.6,32.5,34.6,32.5,34.6c-0.2-0.2-0.5-0.2-0.7-0.1l-0.1,0.8c0,0,0.1,0.1,0.1,0.1
		c0.1,0.1,0.2,0.1,0.3,0.2c0,0,0,0,0,0c0.1,0,0.1,0.1,0.2,0.1c0.1,0.1,0.2,0.2,0.3,0.2c0.1,0.1,0.2,0.2,0.3,0.2
		c0.1,0.1,0.2,0.2,0.2,0.2c0.1,0.1,0.2,0.2,0.2,0.2c0.1,0.1,0.1,0.2,0.2,0.2c0.1,0.1,0.1,0.2,0.2,0.2c0.1,0.1,0.1,0.2,0.2,0.2
		c0.1,0.1,0.1,0.2,0.2,0.2c0.1,0.1,0.1,0.1,0.2,0.2c0.1,0.1,0.1,0.2,0.2,0.2c0,0.1,0.1,0.1,0.1,0.2c0,0.1,0.1,0.1,0.1,0.2
		c0,0.1,0.1,0.1,0.1,0.2c0,0.1,0.1,0.1,0.1,0.2c0,0,0,0,0,0.1l0.9-0.5C35.3,37.3,34.1,36,32.5,34.6z"/>
	<path class="st1" d="M32.5,34.6C32.5,34.6,32.5,34.6,32.5,34.6c-0.2-0.2-0.5-0.2-0.7-0.1l-0.1,0.8c0,0,0.1,0.1,0.1,0.1
		c0.1,0.1,0.2,0.1,0.3,0.2c0,0,0,0,0,0c0.1,0,0.1,0.1,0.2,0.1c0.1,0.1,0.2,0.2,0.3,0.2c0.1,0.1,0.2,0.2,0.3,0.2
		c0.1,0.1,0.2,0.2,0.2,0.2c0.1,0.1,0.2,0.2,0.2,0.2c0.1,0.1,0.1,0.2,0.2,0.2c0.1,0.1,0.1,0.2,0.2,0.2c0.1,0.1,0.1,0.2,0.2,0.2
		c0.1,0.1,0.1,0.2,0.2,0.2c0.1,0.1,0.1,0.1,0.2,0.2c0.1,0.1,0.1,0.2,0.2,0.2c0,0.1,0.1,0.1,0.1,0.2c0,0.1,0.1,0.1,0.1,0.2
		c0,0.1,0.1,0.1,0.1,0.2c0,0.1,0.1,0.1,0.1,0.2c0,0,0,0,0,0.1l0.9-0.5C35.3,37.3,34.1,36,32.5,34.6z"/>
	<path class="st1" d="M35.8,38.6l-0.9,0.5c0,0,0,0.1,0.1,0.1c0,0.1,0.1,0.1,0.1,0.2c0,0.1,0,0.1,0.1,0.2c0,0.1,0,0.1,0,0.2
		c0,0.1,0,0.1,0,0.2c0,0.1,0,0.1,0,0.2c0,0.1,0,0.1,0,0.2c0,0.1,0,0.1,0,0.2c0,0.1,0,0.1,0,0.2c0,0.1,0,0.1,0,0.2c0,0.1,0,0.1,0,0.2
		c0,0.1,0,0.1-0.1,0.2c0,0,0,0.1-0.1,0.1c0,0,0,0.1-0.1,0.1l1.3-0.7C36.3,40.2,36.2,39.4,35.8,38.6z"/>
	<path class="st1" d="M35.8,38.6l-0.9,0.5c0,0,0,0.1,0.1,0.1c0,0.1,0.1,0.1,0.1,0.2c0,0.1,0,0.1,0.1,0.2c0,0.1,0,0.1,0,0.2
		c0,0.1,0,0.1,0,0.2c0,0.1,0,0.1,0,0.2c0,0.1,0,0.1,0,0.2c0,0.1,0,0.1,0,0.2c0,0.1,0,0.1,0,0.2c0,0.1,0,0.1,0,0.2c0,0.1,0,0.1,0,0.2
		c0,0.1,0,0.1-0.1,0.2c0,0,0,0.1-0.1,0.1c0,0,0,0.1-0.1,0.1l1.3-0.7C36.3,40.2,36.2,39.4,35.8,38.6z"/>
	<path class="st1" d="M35.8,38.6l-0.9,0.5c0,0,0,0.1,0.1,0.1c0,0.1,0.1,0.1,0.1,0.2c0,0.1,0,0.1,0.1,0.2c0,0.1,0,0.1,0,0.2
		c0,0.1,0,0.1,0,0.2c0,0.1,0,0.1,0,0.2c0,0.1,0,0.1,0,0.2c0,0.1,0,0.1,0,0.2c0,0.1,0,0.1,0,0.2c0,0.1,0,0.1,0,0.2c0,0.1,0,0.1,0,0.2
		c0,0.1,0,0.1-0.1,0.2c0,0,0,0.1-0.1,0.1c0,0,0,0.1-0.1,0.1l1.3-0.7C36.3,40.2,36.2,39.4,35.8,38.6z"/>
	<path class="st1" d="M31.3,34.9c0.1,0.2,0.2,0.3,0.3,0.4l0.1-0.8c0,0,0,0,0,0C31.6,34.6,31.5,34.7,31.3,34.9z"/>
	<path class="st1" d="M31.3,34.9c0.1,0.2,0.2,0.3,0.3,0.4l0.1-0.8c0,0,0,0,0,0C31.6,34.6,31.5,34.7,31.3,34.9z"/>
	<path class="st1" d="M31.3,34.9c0.1,0.2,0.2,0.3,0.3,0.4l0.1-0.8c0,0,0,0,0,0C31.6,34.6,31.5,34.7,31.3,34.9z"/>
	<path class="st1" d="M28.6,39.3l-0.4-0.1c-0.1,0.2-0.1,0.3-0.2,0.5c0,0.2-0.1,0.3-0.1,0.5l0.5,0.2c0,0,0.1,0,0.1,0
		c0-0.2,0-0.4,0-0.6L28.6,39.3z"/>
	<path class="st1" d="M28.6,39.3l-0.4-0.1c-0.1,0.2-0.1,0.3-0.2,0.5c0,0.2-0.1,0.3-0.1,0.5l0.5,0.2c0,0,0.1,0,0.1,0
		c0-0.2,0-0.4,0-0.6L28.6,39.3z"/>
	<path class="st1" d="M29.1,40c0.1-0.3-0.1-0.6-0.3-0.7l-0.1,0l-0.1,0.5c0,0.2,0,0.4,0,0.6c0,0,0.1,0,0.1,0
		C28.8,40.4,29.1,40.3,29.1,40z"/>
	<path class="st1" d="M29.1,40c0.1-0.3-0.1-0.6-0.3-0.7l-0.1,0l-0.1,0.5c0,0.2,0,0.4,0,0.6c0,0,0.1,0,0.1,0
		C28.8,40.4,29.1,40.3,29.1,40z"/>
	<path class="st1" d="M29.1,40c0.1-0.3-0.1-0.6-0.3-0.7l-0.1,0l-0.1,0.5c0,0.2,0,0.4,0,0.6c0,0,0.1,0,0.1,0
		C28.8,40.4,29.1,40.3,29.1,40z"/>
	<path class="st1" d="M25.7,29.7c-0.3,0.1-0.5,0.3-0.8,0.4c-0.1,0.5-0.2,1.1-0.3,1.7c1-0.6,2.1-1.2,3.2-1.8L25.7,29.7z"/>
	<path class="st1" d="M34.9,19.8c2.7-1.1,3.9-1.1,4.1-1c0,0.3-0.5,1.3-2.6,3.3c-0.9,0.9-2,1.8-3.3,2.7h0.5c0.2,0,0.4,0.1,0.4,0.2
		c0.1,0.2,0.1,0.3,0,0.5c0,0,0,0.1-0.1,0.2c1.3-1,2.5-2,3.5-3c2.4-2.3,3.2-3.8,2.6-4.7c-0.5-0.7-1.6-0.8-3.5-0.3
		c-0.4,0.8-1.2,1.3-2.1,1.4l-2.3,0.3c-1.9,0.9-4,2.1-6.1,3.4l1,1C29.9,22.2,32.7,20.7,34.9,19.8z"/>
	<path class="st1" d="M22.7,26.9c0.7-0.5,1.5-1.1,2.3-1.6c0-0.1,0-0.1,0-0.1c0,0,0,0,0-0.1l-0.9-0.9c-2.7,1.8-5,3.6-6.7,5.3
		c-1.2,1.2-2,2.1-2.4,2.9c-0.9-0.7-2.1-0.9-3.3-0.5c-1.1,0.4-1.9,1.2-2.2,2.2c0,0,0,0.1,0,0.1c0,0,0,0,0,0c0,0,0,0,0,0
		C9.3,35,8.7,35.5,8,35.8c-0.3,0.1-0.5,0.1-0.8,0.1c-0.2,0-0.5,0.1-0.6,0.3c-0.1,0.2-0.1,0.5,0,0.7c0.9,1.3,2.2,2.2,3.6,2.5
		c1,0.2,2,0.2,3-0.2c0.8-0.3,1.5-0.7,2.1-1.2c0,0,0,0,0,0c0.9-0.8,1.3-2,1.2-3.1c0.9,0,2.2-0.4,3.8-1c0.9-0.4,2-0.9,3-1.4
		c0.2-1.3,0.5-2.5,0.7-3.5L22.7,26.9z M14.5,37C14.5,37,14.5,37.1,14.5,37c-0.5,0.4-1,0.7-1.6,0.9c-1.6,0.5-3.3,0.1-4.4-0.9
		c1.1-0.4,1.9-1.2,2.3-2.3c0,0,0,0,0,0c0,0,0,0,0-0.1c0,0,0,0,0,0c0.2-0.7,0.8-1.2,1.4-1.4c1-0.3,2.1,0.1,2.7,1c0,0,0,0,0,0
		c0.1,0.1,0.1,0.3,0.2,0.4C15.4,35.5,15.2,36.4,14.5,37z M20.2,32.5c-2.7,1.1-3.9,1.1-4.1,1c0-0.3,0.5-1.3,2.6-3.3
		c0.1-0.1,0.3-0.2,0.4-0.4l1.6,2.4C20.5,32.3,20.4,32.4,20.2,32.5z M20.2,28.9c0.5-0.4,1-0.8,1.5-1.2l2,3.1
		c-0.6,0.3-1.2,0.6-1.7,0.9L20.2,28.9z"/>
	<path class="st1" d="M27.1,28.8l2,0.3c0.1-0.1,0.2-0.1,0.3-0.2c1-0.7,2-1.3,3-2c0.2-0.4,0.3-0.8,0.5-1.1h-1.2c-1,0.7-2,1.4-3,2
		C28.2,28.2,27.7,28.5,27.1,28.8z"/>
	<path class="st1" d="M36.6,17.7c-0.6,0.2-1.2,0.4-1.9,0.7c-0.8,0.3-1.6,0.7-2.5,1.1l2.3-0.3C35.4,19,36.2,18.5,36.6,17.7z"/>
	<path class="st1" d="M36.6,17.7c-0.6,0.2-1.2,0.4-1.9,0.7c-0.8,0.3-1.6,0.7-2.5,1.1l2.3-0.3C35.4,19,36.2,18.5,36.6,17.7z"/>
	<path class="st1" d="M25.6,24.8h0.2c0.2-0.1,0.4-0.3,0.6-0.4c0.3-0.2,0.5-0.3,0.8-0.5l-1-1c-0.2,0.1-0.3,0.2-0.5,0.3
		c-0.5,0.3-1,0.6-1.5,1l0.9,0.9C25.2,24.9,25.4,24.8,25.6,24.8z"/>
	<path class="st1" d="M25.6,24.8h0.2c0.2-0.1,0.4-0.3,0.6-0.4c0.3-0.2,0.5-0.3,0.8-0.5l-1-1c-0.2,0.1-0.3,0.2-0.5,0.3
		c-0.5,0.3-1,0.6-1.5,1l0.9,0.9C25.2,24.9,25.4,24.8,25.6,24.8z"/>
	<path class="st1" d="M32.8,25.8c-0.1,0.3-0.3,0.7-0.5,1.1c0.6-0.4,1.1-0.8,1.7-1.2c0.1-0.1,0.1-0.2,0.1-0.2c0.1-0.2,0.1-0.4,0-0.5
		c-0.1-0.2-0.3-0.2-0.4-0.2h-0.5c-0.5,0.4-0.9,0.7-1.4,1.1H32.8z"/>
	<path class="st1" d="M32.8,25.8c-0.1,0.3-0.3,0.7-0.5,1.1c0.6-0.4,1.1-0.8,1.7-1.2c0.1-0.1,0.1-0.2,0.1-0.2c0.1-0.2,0.1-0.4,0-0.5
		c-0.1-0.2-0.3-0.2-0.4-0.2h-0.5c-0.5,0.4-0.9,0.7-1.4,1.1H32.8z"/>
	<path class="st1" d="M25.1,25.1C25.1,25.1,25.1,25.1,25.1,25.1c0,0.1,0,0.1-0.1,0.2C25.1,25.2,25.2,25.2,25.1,25.1L25.1,25.1z"/>
	<path class="st1" d="M25.1,25.1C25.1,25.1,25.1,25.1,25.1,25.1c0,0.1,0,0.1-0.1,0.2C25.1,25.2,25.2,25.2,25.1,25.1L25.1,25.1z"/>
	<path class="st1" d="M24.9,30.1C24.9,30.1,24.9,30.2,24.9,30.1L24.1,29c-0.2,1-0.5,2.2-0.7,3.5c0.4-0.2,0.8-0.4,1.2-0.6
		C24.7,31.2,24.8,30.7,24.9,30.1z"/>
	<path class="st1" d="M24.9,30.1C24.9,30.1,24.9,30.2,24.9,30.1L24.1,29c-0.2,1-0.5,2.2-0.7,3.5c0.4-0.2,0.8-0.4,1.2-0.6
		C24.7,31.2,24.8,30.7,24.9,30.1z"/>
	<path class="st1" d="M25.8,24.8h-0.2c-0.2,0-0.4,0.1-0.5,0.3l0.1,0.1C25.4,25,25.6,24.9,25.8,24.8z"/>
	<path class="st1" d="M25.8,24.8h-0.2c-0.2,0-0.4,0.1-0.5,0.3l0.1,0.1C25.4,25,25.6,24.9,25.8,24.8z"/>
	<path class="st1" d="M25.8,24.8h-0.2c-0.2,0-0.4,0.1-0.5,0.3l0.1,0.1C25.4,25,25.6,24.9,25.8,24.8z"/>
	<path class="st1" d="M27.1,28.8c-0.5,0.3-1,0.6-1.4,0.9l2.1,0.3c0.5-0.3,0.9-0.6,1.4-0.9L27.1,28.8z"/>
	<path class="st1" d="M27.1,28.8c-0.5,0.3-1,0.6-1.4,0.9l2.1,0.3c0.5-0.3,0.9-0.6,1.4-0.9L27.1,28.8z"/>
</g>
</svg>
