<?xml version="1.0" encoding="utf-8"?>
<!-- Generator: Adobe Illustrator 19.2.1, SVG Export Plug-In . SVG Version: 6.00 Build 0)  -->
<svg version="1.1" id="Layer_1" xmlns="http://www.w3.org/2000/svg" xmlns:xlink="http://www.w3.org/1999/xlink" x="0px" y="0px"
	 viewBox="0 0 9.3 8.8" style="enable-background:new 0 0 9.3 8.8;" xml:space="preserve">
<style type="text/css">
	.st0{fill:#FFFFFF;}
</style>
<path class="st0" d="M4.7,1.2L4.7,1.2l2.8,1.4c0,0,0.1,0.1,0.1,0.1v0l0.8,1.4c0.1,0.1,0,0.3-0.1,0.4c0,0,0,0,0,0L7.6,4.7v1.5
	c0,0.1-0.1,0.2-0.2,0.2L4.7,7.9c-0.1,0-0.2,0-0.2,0l0,0L1.7,6.5c-0.1,0-0.1-0.1-0.1-0.2h0V4.7L1,4.4C0.8,4.4,0.8,4.2,0.9,4.1l0,0h0
	l0.8-1.4c0-0.1,0.1-0.1,0.1-0.1l2.7-1.4C4.6,1.2,4.7,1.2,4.7,1.2L4.7,1.2z M4.5,7.3V4.8L4,5.6c0,0.1-0.1,0.1-0.2,0.1l0,0L2.1,4.8
	v1.4L4.5,7.3L4.5,7.3z M4.5,3.9V1.8L2.3,2.9L4.5,3.9L4.5,3.9z M4.8,1.8v2.1l2.1-1.1L4.8,1.8L4.8,1.8z M4.8,4.8v2.5l2.3-1.2V4.8
	L5.4,5.6l0,0c-0.1,0-0.2,0-0.2-0.1L4.8,4.8L4.8,4.8z M7.2,3.1L4.8,4.3l0.6,1l2.4-1.2L7.2,3.1L7.2,3.1z M2,4.4l1.8,0.9l0.6-1L2,3.1
	l-0.6,1L2,4.4C2,4.3,2,4.3,2,4.4z"/>
</svg>
