<?xml version="1.0" encoding="utf-8"?>
<!-- Generator: Adobe Illustrator 19.2.1, SVG Export Plug-In . SVG Version: 6.00 Build 0)  -->
<svg version="1.1" id="Layer_1" xmlns="http://www.w3.org/2000/svg" xmlns:xlink="http://www.w3.org/1999/xlink" x="0px" y="0px"
	 viewBox="0 0 8.8 8.4" style="enable-background:new 0 0 8.8 8.4;" xml:space="preserve">
<style type="text/css">
	.st0{fill:#FDFDFE;}
</style>
<path class="st0" d="M1.3,1.6L1.3,1.6h6.2c0.1,0,0.3,0.1,0.3,0.3v0v4.7c0,0.1-0.1,0.3-0.3,0.3h0H1.3C1.1,6.8,1,6.7,1,6.6v0V1.8
	C1,1.7,1.1,1.6,1.3,1.6L1.3,1.6z M7.2,2.3L4.5,5.1c-0.1,0.1-0.2,0.1-0.2,0L1.5,2.3v4h5.7V2.3L7.2,2.3z M7,2.1H1.7l2.6,2.6L7,2.1z"/>
</svg>
