<?xml version="1.0" encoding="utf-8"?>
<!-- Generator: Adobe Illustrator 19.2.1, SVG Export Plug-In . SVG Version: 6.00 Build 0)  -->
<svg version="1.1" id="Capa_1" xmlns="http://www.w3.org/2000/svg" xmlns:xlink="http://www.w3.org/1999/xlink" x="0px" y="0px"
	 viewBox="0 0 130.8 101.4" style="enable-background:new 0 0 130.8 101.4;" xml:space="preserve">
<style type="text/css">
	.st0{fill:#222A40;}
	.st1{fill:#FFFFFF;}
</style>
<g>
	<path class="st0" d="M69.6,2.3c0,7.8-0.1,13.1-0.1,20.9c-7.1,0-14.2,0.1-21.3,0.5c-12.7,0.7-25.1,14.1-25.1,26.8
		c0,12.8,12.4,27.9,25.1,28.6c7.1,0.4,14.3,0.4,21.4,0.4c0,7.8-0.1,11.4-0.1,19.3c-8.1,0-16.1,0.9-27.9-0.9
		C18.2,94.4,1.3,73.1,1.8,49.6C2.3,26.2,19.9,6.2,43.3,3.2C52,2.1,60.9,2.6,69.6,2.3z"/>
	<g id="Layer_x0020_1">
		<path class="st1" d="M107.7,38.2c12.3,4.2,20.9,16.1,20.9,29.4c0,17.1-14,31.2-31.2,31.2H69.6V79.5h29.9c6.3,0,11.4-5.2,11.4-11.5
			c0-6.3-5.1-11.4-11.4-11.4h-20V37.9l14.7-14.7H69.6V2.3h51.5v21.6L107.7,38.2z"/>
	</g>
</g>
</svg>
