<?xml version="1.0" encoding="utf-8"?>
<!-- Generator: Adobe Illustrator 19.2.1, SVG Export Plug-In . SVG Version: 6.00 Build 0)  -->
<svg version="1.1" id="Capa_1" xmlns="http://www.w3.org/2000/svg" xmlns:xlink="http://www.w3.org/1999/xlink" x="0px" y="0px"
	 viewBox="0 0 64.4 101.4" style="enable-background:new 0 0 64.4 101.4;" xml:space="preserve">
<style type="text/css">
	.st0{display:none;}
	.st1{display:inline;fill:url(#SVGID_1_);}
	.st2{fill:#FEFEFE;}
	.st3{display:inline;fill:#222A40;}
	.st4{display:inline;fill:#DE4341;}
</style>
<g id="Layer_x0020_1" class="st0">
	
		<linearGradient id="SVGID_1_" gradientUnits="userSpaceOnUse" x1="1310.7299" y1="-557.0261" x2="1310.7299" y2="-1897.0261" gradientTransform="matrix(7.198171e-02 0 0 -7.198171e-02 -62.1549 -37.6482)">
		<stop  offset="0" style="stop-color:#F63814"/>
		<stop  offset="1" style="stop-color:#D1265B"/>
	</linearGradient>
	<path class="st1" d="M40.8,38.4c12.3,4.2,20.9,16.1,20.9,29.4c0,17.1-14,31.2-31.2,31.2H2.6V79.7h29.9c6.3,0,11.4-5.2,11.4-11.5
		c0-6.3-5.1-11.4-11.4-11.4h-20V38.1l14.7-14.7H2.6V2.4h51.5V24L40.8,38.4z"/>
</g>
<g id="Layer_x0020_1_1_">
	<path class="st2" d="M40.8,38.4c12.3,4.2,20.9,16.1,20.9,29.4c0,17.1-14,31.2-31.2,31.2H2.6V79.7h29.9c6.3,0,11.4-5.2,11.4-11.5
		c0-6.3-5.1-11.4-11.4-11.4h-20V38.1l14.7-14.7H2.6V2.4h51.5V24L40.8,38.4z"/>
</g>
<g id="Layer_x0020_1_3_" class="st0">
	<path class="st3" d="M40.8,38.4c12.3,4.2,20.9,16.1,20.9,29.4c0,17.1-14,31.2-31.2,31.2H2.6V79.7h29.9c6.3,0,11.4-5.2,11.4-11.5
		c0-6.3-5.1-11.4-11.4-11.4h-20V38.1l14.7-14.7H2.6V2.4h51.5V24L40.8,38.4z"/>
</g>
<g id="Layer_x0020_1_2_" class="st0">
	<path class="st4" d="M68.2,75.7c12.3,4.2,20.9,16.1,20.9,29.4c0,17.1-14,31.2-31.2,31.2H30.1V117h29.9c6.3,0,11.4-5.2,11.4-11.5
		c0-6.3-5.1-11.4-11.4-11.4h-20V75.4l14.7-14.7H30.1V39.8h51.5v21.6L68.2,75.7z"/>
</g>
</svg>
