<?xml version="1.0" encoding="utf-8"?>
<!-- Generator: Adobe Illustrator 19.2.1, SVG Export Plug-In . SVG Version: 6.00 Build 0)  -->
<svg version="1.1" id="Capa_1" xmlns="http://www.w3.org/2000/svg" xmlns:xlink="http://www.w3.org/1999/xlink" x="0px" y="0px"
	 viewBox="0 0 170.7 67.4" style="enable-background:new 0 0 170.7 67.4;" xml:space="preserve">
<style type="text/css">
	.st0{fill:#FFFFFF;}
</style>
<g>
	<g>
		<g>
			<path class="st0" d="M21.1,42.3l-10.9-18l-0.1,0l0,18l-4.5,0l0-35.9l4.5,0l0,16l0.1,0l10.4-16l5.3,0L14.3,23l12.2,19.3L21.1,42.3
				z"/>
			<path class="st0" d="M41.7,28l0,14.4l-4.6,0l0-14.4L28.3,6.4l5,0l6.3,16.9l6.4-16.9l4.9,0L41.7,28z"/>
			<path class="st0" d="M80.8,42.4l0-29.7h-0.2l-8,29.7l-4.1,0l-7.9-29.7h-0.2l0,29.7l-4.2,0l0-35.9l6.7,0l7.7,28.5l0.2,0l7.5-28.5
				l7,0l0,35.9L80.8,42.4z"/>
			<path class="st0" d="M94.9,42.4l0-35.9l15.1,0l0,4.1l-10.7,0l0,11.3l10,0l0,3.8l-10,0l0,12.6l11.2,0l0,4.1L94.9,42.4z"/>
			<path class="st0" d="M133,42.4l-6.1-16l-4.2,0l0,16l-4.5,0l0-35.9l9.3,0c1.3,0,2.6,0.2,3.7,0.5c1.2,0.4,2.2,0.9,3.1,1.7
				c0.9,0.8,1.6,1.8,2.1,3c0.5,1.3,0.8,2.8,0.8,4.5c0,1.5-0.2,2.7-0.6,3.8c-0.4,1.1-0.9,2-1.5,2.8c-0.6,0.8-1.3,1.4-2,1.8
				c-0.7,0.4-1.4,0.7-2.1,0.9l6.7,16.9L133,42.4z M132.7,16.4c0-1.2-0.2-2.2-0.5-3c-0.3-0.8-0.8-1.4-1.3-1.9c-0.5-0.5-1.2-0.8-1.9-1
				c-0.7-0.2-1.4-0.3-2.1-0.3l-4.1,0l0,12.5l4.2,0c1.7,0,3.1-0.5,4.2-1.7C132.2,20.1,132.7,18.5,132.7,16.4z"/>
			<path class="st0" d="M160.5,42.4l-2-8.4l-10.4,0l-2.1,8.4l-4.6,0l9-35.9l6,0l8.8,35.9L160.5,42.4z M153.5,10.8h-0.2l-4.6,19.6
				l9.2,0L153.5,10.8z"/>
		</g>
		<g>
			<path class="st0" d="M6.4,57.2c0.2,0.2,0.4,0.4,0.6,0.5c0.3,0.1,0.5,0.2,0.8,0.2c0.1,0,0.3,0,0.5-0.1c0.2,0,0.3-0.1,0.4-0.2
				s0.2-0.2,0.3-0.3C9,57.1,9.1,57,9.1,56.8c0-0.3-0.1-0.4-0.2-0.6S8.5,56,8.2,55.9c-0.2-0.1-0.5-0.2-0.8-0.3
				c-0.3-0.1-0.5-0.2-0.8-0.3c-0.2-0.1-0.4-0.3-0.6-0.6c-0.2-0.3-0.2-0.6-0.2-1c0-0.2,0-0.4,0.1-0.6c0.1-0.2,0.2-0.4,0.4-0.6
				C6.5,52.3,6.8,52.1,7,52c0.3-0.1,0.6-0.2,1-0.2c0.4,0,0.7,0,1,0.1c0.3,0.1,0.6,0.3,0.9,0.6l-0.7,0.7c-0.1-0.2-0.3-0.3-0.5-0.4
				c-0.2-0.1-0.4-0.2-0.7-0.2c-0.2,0-0.5,0-0.6,0.1S7.1,52.9,7,53c-0.1,0.1-0.2,0.2-0.2,0.3c0,0.1-0.1,0.2-0.1,0.3
				c0,0.3,0.1,0.5,0.2,0.6c0.2,0.1,0.4,0.3,0.6,0.4c0.2,0.1,0.5,0.2,0.8,0.3c0.3,0.1,0.5,0.2,0.8,0.3c0.2,0.1,0.4,0.3,0.6,0.5
				C9.9,56,10,56.3,10,56.7c0,0.3-0.1,0.6-0.2,0.9c-0.1,0.3-0.3,0.5-0.5,0.6c-0.2,0.2-0.4,0.3-0.7,0.4c-0.3,0.1-0.6,0.1-0.9,0.1
				c-0.4,0-0.8-0.1-1.2-0.2c-0.4-0.1-0.7-0.4-0.9-0.7L6.4,57.2z"/>
			<path class="st0" d="M33,52.8h-2.1V52H36v0.8h-2.1v5.7H33V52.8z"/>
			<path class="st0" d="M57.9,52v4c0,0.2,0,0.4,0.1,0.6c0.1,0.2,0.1,0.4,0.3,0.6c0.1,0.2,0.3,0.3,0.5,0.5c0.2,0.1,0.5,0.2,0.8,0.2
				c0.3,0,0.6-0.1,0.8-0.2c0.2-0.1,0.4-0.3,0.5-0.5c0.1-0.2,0.2-0.4,0.3-0.6c0.1-0.2,0.1-0.4,0.1-0.6v-4h0.9v4.2
				c0,0.4-0.1,0.7-0.2,1c-0.1,0.3-0.3,0.6-0.5,0.8c-0.2,0.2-0.5,0.4-0.8,0.5c-0.3,0.1-0.6,0.2-1,0.2c-0.4,0-0.7-0.1-1-0.2
				c-0.3-0.1-0.6-0.3-0.8-0.5c-0.2-0.2-0.4-0.5-0.5-0.8s-0.2-0.7-0.2-1V52H57.9z"/>
			<path class="st0" d="M83.8,52h2.3c0.5,0,0.9,0.1,1.2,0.2c0.4,0.1,0.7,0.2,0.9,0.4c0.3,0.2,0.5,0.4,0.6,0.6
				c0.2,0.2,0.3,0.5,0.4,0.7c0.1,0.2,0.2,0.5,0.2,0.7c0,0.2,0.1,0.5,0.1,0.7c0,0.4-0.1,0.8-0.2,1.2c-0.2,0.4-0.4,0.7-0.7,1.1
				c-0.3,0.3-0.7,0.6-1.1,0.7c-0.4,0.2-1,0.3-1.6,0.3h-2.1V52z M84.7,57.7h1.1c0.4,0,0.7-0.1,1.1-0.2c0.3-0.1,0.6-0.3,0.9-0.5
				c0.3-0.2,0.5-0.5,0.6-0.8s0.2-0.7,0.2-1.1c0-0.2,0-0.5-0.1-0.7c-0.1-0.3-0.2-0.6-0.4-0.8c-0.2-0.3-0.5-0.5-0.8-0.6
				c-0.3-0.2-0.8-0.3-1.3-0.3h-1.3V57.7z"/>
			<path class="st0" d="M111.1,52h0.9v6.6h-0.9V52z"/>
			<path class="st0" d="M137,58.7c-0.5,0-1-0.1-1.4-0.3c-0.4-0.2-0.8-0.4-1.1-0.7c-0.3-0.3-0.5-0.7-0.7-1.1
				c-0.2-0.4-0.3-0.9-0.3-1.4c0-0.5,0.1-0.9,0.3-1.4c0.2-0.4,0.4-0.8,0.7-1.1c0.3-0.3,0.7-0.6,1.1-0.7c0.4-0.2,0.9-0.3,1.4-0.3
				c0.5,0,1,0.1,1.4,0.3c0.4,0.2,0.8,0.4,1.1,0.7s0.5,0.7,0.7,1.1c0.2,0.4,0.3,0.9,0.3,1.4c0,0.5-0.1,0.9-0.3,1.4
				c-0.2,0.4-0.4,0.8-0.7,1.1c-0.3,0.3-0.7,0.6-1.1,0.7C137.9,58.6,137.5,58.7,137,58.7z M137,57.9c0.4,0,0.7-0.1,1-0.2
				c0.3-0.1,0.6-0.3,0.8-0.6c0.2-0.2,0.4-0.5,0.5-0.8c0.1-0.3,0.2-0.7,0.2-1c0-0.4-0.1-0.7-0.2-1c-0.1-0.3-0.3-0.6-0.5-0.8
				c-0.2-0.2-0.5-0.4-0.8-0.6c-0.3-0.1-0.6-0.2-1-0.2c-0.4,0-0.7,0.1-1,0.2c-0.3,0.1-0.6,0.3-0.8,0.6c-0.2,0.2-0.4,0.5-0.5,0.8
				c-0.1,0.3-0.2,0.7-0.2,1c0,0.4,0.1,0.7,0.2,1c0.1,0.3,0.3,0.6,0.5,0.8c0.2,0.2,0.5,0.4,0.8,0.6C136.2,57.8,136.6,57.9,137,57.9z"
				/>
			<path class="st0" d="M162.1,57.2c0.2,0.2,0.4,0.4,0.6,0.5c0.3,0.1,0.5,0.2,0.8,0.2c0.1,0,0.3,0,0.5-0.1c0.2,0,0.3-0.1,0.4-0.2
				c0.1-0.1,0.2-0.2,0.3-0.3c0.1-0.1,0.1-0.3,0.1-0.5c0-0.3-0.1-0.4-0.2-0.6c-0.2-0.1-0.4-0.2-0.6-0.3c-0.2-0.1-0.5-0.2-0.8-0.3
				c-0.3-0.1-0.5-0.2-0.8-0.3c-0.2-0.1-0.4-0.3-0.6-0.6c-0.2-0.3-0.2-0.6-0.2-1c0-0.2,0-0.4,0.1-0.6c0.1-0.2,0.2-0.4,0.4-0.6
				c0.2-0.2,0.4-0.3,0.7-0.5c0.3-0.1,0.6-0.2,1-0.2c0.4,0,0.7,0,1,0.1c0.3,0.1,0.6,0.3,0.9,0.6l-0.7,0.7c-0.1-0.2-0.3-0.3-0.5-0.4
				c-0.2-0.1-0.4-0.2-0.7-0.2c-0.2,0-0.5,0-0.6,0.1c-0.2,0.1-0.3,0.1-0.4,0.3c-0.1,0.1-0.2,0.2-0.2,0.3c0,0.1-0.1,0.2-0.1,0.3
				c0,0.3,0.1,0.5,0.2,0.6c0.2,0.1,0.4,0.3,0.6,0.4c0.2,0.1,0.5,0.2,0.8,0.3c0.3,0.1,0.5,0.2,0.8,0.3c0.2,0.1,0.4,0.3,0.6,0.5
				c0.2,0.2,0.2,0.5,0.2,0.9c0,0.3-0.1,0.6-0.2,0.9c-0.1,0.3-0.3,0.5-0.5,0.6c-0.2,0.2-0.4,0.3-0.7,0.4c-0.3,0.1-0.6,0.1-0.9,0.1
				c-0.4,0-0.8-0.1-1.2-0.2c-0.4-0.1-0.7-0.4-0.9-0.7L162.1,57.2z"/>
		</g>
	</g>
</g>
</svg>
