<?xml version="1.0" encoding="utf-8"?>
<!-- Generator: Adobe Illustrator 19.2.1, SVG Export Plug-In . SVG Version: 6.00 Build 0)  -->
<svg version="1.1" id="Capa_1" xmlns="http://www.w3.org/2000/svg" xmlns:xlink="http://www.w3.org/1999/xlink" x="0px" y="0px"
	 viewBox="0 0 71.8 94" style="enable-background:new 0 0 71.8 94;" xml:space="preserve">
<style type="text/css">
	.st0{fill:#FFFFFF;}
</style>
<g>
	<path class="st0" d="M68,25.1c0-0.2,0.2-1.2-0.5-2.6l-4.1-6.7l0,0c0,0,0-0.1-0.1-0.1c0,0,0,0,0-0.1c-0.1-0.2-0.3-0.3-0.4-0.5l0,0
		c-1.3-1-3.6-0.2-3.6-0.2l0,0l-13.7,4.4l0,0c-0.9,0.3-1.1,1.4-1,2c0,8.6-4.2,15.6-10.8,19.2L37.6,12l0.1-0.7c0-0.2,0-0.4-0.1-0.6
		c-0.3-0.7-1-0.9-1-0.9h-0.1c-0.1-0.1-0.2-0.1-0.4-0.1c-0.8-0.3-11.7-4-12.7-4.4c-1.2-0.5-2.1,0-2.4,0.1L19.8,6
		c-0.5,0.2-12,6.1-13,6.6c-0.1,0.1-0.3,0.2-0.3,0.2c-0.1,0.1-0.3,0.2-0.4,0.3c-0.5,0.3-0.3,1.2-0.3,1.2l0,0.7l0,0v0.2v0.2l0,0
		l0.1,0.3l5,22.7l0.1,0.5c0,0.1,0.1,0.6,0.4,1c-0.1,0.1-0.3,0.2-0.4,0.3l-4,3.7v0.2c0,0-0.6,0.5-0.7,1.8c0,0.2,0,0.4,0,0.5v2.7
		c0,0.2,0,1.1,0.7,1.9l0,0c0.5,0.5,1.2,1.2,1.6,1.5c1.9,1.7,4.2,3.1,6.8,4.2v0.1l-7,22.4l0,0l-0.2,0.7c0,0,0,0.1,0,0.2s0,0.2,0,0.3
		c0,0.4,0.1,0.9,0.6,1.3l0,0l0,0L9,81.8c0.4,0.3,0.6,0.5,0.8,0.6l6,4.6c0.2,0.2,0.5,0.4,1,0.4c0.3,0,0.6-0.1,0.9-0.3l12.2-7
		c0,0,0,0,0.1-0.1s0.6-0.4,0.7-1.4c0-0.1,0-0.3,0-0.4l0,0l0,0c0,0,0,0,0-0.1l0.1-9.9c1.1,0.4,4.2,1.5,7.6,3.9
		c3.8,2.7,8.8,7.5,10.8,15.1c0.2,0.6,0.7,1.2,1.4,1.2h4.2l0,0h0.6c0,0,0.1,0,0.2,0l0,0c0.3,0,1-0.2,1.5-0.6l0,0l4.3-3.7
		c0.4-0.3,0.7-0.9,0.5-1.6c-4.1-14.9-16.3-22.2-22-24.9c5.6-1.5,10.6-4.1,14.7-7.6C61.4,44.1,66.1,35.5,68,25.1z M7.2,13.3
		c1-0.5,12.8-6.5,12.9-6.6l1.3-0.6c0,0,0.7-0.5,1.7-0.1c1.1,0.4,12.7,4.4,12.8,4.4c0,0,0.2,0,0.3,0.2c0,0.1,0,0.3-0.6,0.7
		c-1.2,0.9-12,9.3-12.1,9.4c0,0-0.6,0.6-1.7,0C20.5,20,7.4,14.3,7.3,14.2s-0.4-0.3-0.4-0.5S7,13.4,7.2,13.3z M22.9,44.1h-0.2
		C22.8,44.1,22.8,44.1,22.9,44.1L22.9,44.1z M6.7,15.5l-0.2-0.7c0,0,0-0.1,0.1-0.1l0,0h0.1c0.1,0.1,12.7,5.7,14.3,6.4
		c1.4,0.6,1.3,1.4,1.3,1.4l0,0c0,0.2,0,20.1,0,20.6c0,0.3-0.3,0.3-0.4,0.3c-5.7-0.3-9.5-3.5-9.5-3.6c-0.6-0.4-0.7-1.1-0.7-1.1
		L6.7,15.5z M21.2,72.8L9.1,80.2c-0.1,0-0.1,0-0.1,0v-0.1l7.1-23c0-0.1,0.1-0.1,0.1-0.1c0.1,0,0.2,0,0.3,0.1c0.1,0,0.2,0.1,0.3,0.1
		l0.5,0.2c1.4,0.4,2.9,0.8,4.4,1.1h0.2c0.8,0.1,0.8,0.3,0.7,0.8l-1,13C21.6,72.5,21.4,72.7,21.2,72.8z M29.8,78.3
		c0,0.1,0,0.2-0.1,0.2s-0.1,0-0.2-0.1L22.6,73c-0.2-0.2-0.3-0.4-0.3-0.7l0.9-12.9c0-0.2,0.1-0.4,0.3-0.6c0.1-0.1,0.3-0.2,0.5-0.2
		h0.1l0.3,0.1c1.3,0.1,2.6,0.2,3.9,0.2l0,0h0.6c0.3,0,0.6,0,0.7,0.2c0.1,0.1,0.2,0.3,0.2,0.5L29.8,78.3z M24.6,52.2
		c0.1,0,0.1,0,0.2,0s0.1,0,0.2,0H24.6z M61,82.7c0.1,0.5-0.2,0.7-0.2,0.7l-4.4,3.8l-0.1,0.1c0,0-0.1-0.1-0.1-0.2
		c-2.6-10.2-9.3-16.7-14.5-20.4c-5.6-4-10.7-5.5-10.8-5.6c-0.5-0.2-0.5-0.6-0.5-0.6v-1.2c0-0.2,0-0.3,0.1-0.4
		c0.1-0.1,0.2-0.1,0.2-0.1c2.4-0.1,4.8-0.5,6.8-0.9c0.7-0.1,1.3,0.1,1.3,0.1C44.1,60.4,56.8,67.5,61,82.7z M24.8,52.1
		c-6.1,0-11.8-2-16.1-5.5c-0.3-0.3-1-0.9-1.3-1.3c-0.3-0.4-0.1-0.6,0-0.6l4.2-3.9c0,0,0.3-0.3,0.6-0.3c0.1,0,0.1,0,0.2,0.1
		c3.1,2.3,6.7,3.5,10.3,3.6h0.2l0,0c13-0.1,22.4-9.6,22.4-22.8c0,0-0.1-1,0.4-1.2l14.1-4.5c0,0,0.6-0.2,1,0.1
		c0.2,0.1,0.3,0.4,0.3,0.7c0,9.7-3.8,18.8-10.7,25.4C43.7,48.5,34.6,52.1,24.8,52.1z"/>
</g>
</svg>
