<svg id="Capa_1" data-name="Capa 1" xmlns="http://www.w3.org/2000/svg" viewBox="0 0 460.11 323.65"><defs><style>.cls-1{fill:#43437c;}.cls-10,.cls-11,.cls-2,.cls-3,.cls-4,.cls-9{fill:none;}.cls-10,.cls-11,.cls-2,.cls-3,.cls-4,.cls-5,.cls-6,.cls-7,.cls-8,.cls-9{stroke:#fff;}.cls-10,.cls-11,.cls-2,.cls-5,.cls-6,.cls-9{stroke-miterlimit:10;}.cls-3,.cls-7{stroke-linecap:square;}.cls-3,.cls-4,.cls-7,.cls-8{stroke-linejoin:round;}.cls-5{fill:#fff;}.cls-6,.cls-7,.cls-8{fill:#3f3c79;}.cls-10,.cls-11,.cls-9{stroke-width:0.5px;}.cls-10{stroke-dasharray:7.95 7.95;}.cls-11{stroke-dasharray:8;}</style></defs><title>brand_pink</title><circle class="cls-1" cx="56.29" cy="46.68" r="0.1"/><path class="cls-1" d="M92.12,46.68a0.39,0.39,0,1,0-.39.39A0.39,0.39,0,0,0,92.12,46.68Z"/><circle class="cls-1" cx="127.18" cy="46.68" r="0.59"/><circle class="cls-1" cx="42.84" cy="56.57" r="0.06"/><circle class="cls-1" cx="101.67" cy="37.86" r="0.06"/><circle class="cls-1" cx="65.13" cy="56.57" r="0.25"/><circle class="cls-1" cx="123.96" cy="37.86" r="0.25"/><polygon class="cls-2" points="101.07 117.11 34.35 50.38 34.14 50.37 12.63 50.37 12.63 117.32 101.07 117.11"/><polygon class="cls-2" points="125.74 127.11 59.02 60.38 58.81 60.37 37.3 60.37 37.3 127.32 125.74 127.11"/><line class="cls-2" x1="12.63" y1="50.37" x2="37.3" y2="60.37"/><line class="cls-2" x1="34.35" y1="50.38" x2="59.02" y2="60.38"/><line class="cls-2" x1="12.63" y1="117.32" x2="37.3" y2="127.32"/><line class="cls-2" x1="101.07" y1="117.11" x2="125.74" y2="127.11"/><polygon class="cls-2" points="183.8 174.86 179.46 176.73 170.31 180.68 159.85 185.18 148.9 180.68 139.74 176.91 134.76 174.86 159.85 164.53 183.8 174.86"/><path class="cls-3" d="M160.28,156.81l-43.81,18,14.13,5.82,9.15,3.77,20.53,8.45,19.19-8.28,9.15-3.94,13.49-5.82Zm19.19,19.91-9.15,4-10.46,4.51-11-4.51-9.15-3.77-5-2,25.08-10.33,24,10.33Z"/><polygon class="cls-3" points="183.8 174.86 179.46 176.73 170.31 180.68 159.85 185.18 148.9 180.68 139.74 176.91 134.76 174.86 159.85 164.53 183.8 174.86"/><polygon class="cls-2" points="170.31 180.68 159.85 185.18 148.9 180.68 159.85 176.17 170.31 180.68"/><polyline class="cls-4" points="202.11 186.5 160.28 204.53 116.46 186.5"/><polyline class="cls-4" points="139.74 184.45 160.28 192.9 179.46 184.62"/><line class="cls-2" x1="116.46" y1="174.86" x2="116.46" y2="186.54"/><line class="cls-2" x1="202.11" y1="174.86" x2="202.11" y2="186.5"/><line class="cls-2" x1="183.8" y1="174.86" x2="202.09" y2="174.86"/><line class="cls-2" x1="134.76" y1="174.86" x2="116.55" y2="174.86"/><line class="cls-4" x1="159.85" y1="164.53" x2="159.85" y2="176.17"/><line class="cls-4" x1="160.28" y1="192.9" x2="160.28" y2="204.54"/><polygon class="cls-3" points="182.19 227.02 177.85 228.89 168.69 232.84 158.23 237.34 147.28 232.84 138.13 229.07 133.15 227.02 158.23 216.69 182.19 227.02"/><polygon class="cls-3" points="301.79 133.06 297.45 134.93 288.3 138.88 277.84 143.38 266.89 138.88 257.73 135.11 252.75 133.06 277.84 122.73 301.79 133.06"/><polygon class="cls-5" points="419.36 163.63 415.02 165.5 405.86 169.45 395.4 173.96 384.45 169.45 375.3 165.68 370.32 163.63 395.4 153.3 419.36 163.63"/><polygon class="cls-5" points="436.21 288.63 428.89 291.78 413.44 298.45 395.79 306.05 377.31 298.45 361.86 292.09 353.46 288.63 395.79 271.2 436.21 288.63"/><polygon class="cls-6" points="183.8 151.09 179.46 152.96 170.31 156.91 159.85 161.42 148.9 156.91 139.74 153.14 134.76 151.09 159.85 140.76 183.8 151.09"/><path class="cls-7" d="M160.27,133l-43.81,18,14.13,5.82,9.15,3.77,20.53,8.45,19.19-8.28,9.15-3.94,13.49-5.82ZM179.46,153l-9.15,4-10.46,4.51-11-4.51-9.15-3.77-5-2,25.08-10.33,24,10.33Z"/><polygon class="cls-7" points="183.8 151.09 179.46 152.96 170.31 156.91 159.85 161.42 148.9 156.91 139.74 153.14 134.76 151.09 159.85 140.76 183.8 151.09"/><polygon class="cls-6" points="170.31 156.91 159.85 161.42 148.9 156.91 159.85 152.4 170.31 156.91"/><polygon class="cls-6" points="160.27 169.13 160.27 180.77 116.46 162.73 116.46 151.09 130.59 156.91 139.74 160.68 160.27 169.13"/><line class="cls-6" x1="116.46" y1="162.77" x2="116.46" y2="162.73"/><polygon class="cls-6" points="202.11 151.09 202.11 162.73 160.27 180.77 160.27 169.13 179.46 160.85 188.62 156.91 202.11 151.09"/><line class="cls-6" x1="202.11" y1="162.74" x2="202.11" y2="162.73"/><line class="cls-6" x1="183.8" y1="151.09" x2="202.09" y2="151.09"/><line class="cls-6" x1="134.76" y1="151.09" x2="116.54" y2="151.09"/><line class="cls-8" x1="159.85" y1="140.76" x2="159.85" y2="152.4"/><line class="cls-8" x1="160.27" y1="180.77" x2="160.27" y2="180.77"/><path class="cls-2" d="M133.15,227c5.27,45.06,40.89,79.91,84,79.91,46.79,0,84.72-41,84.72-91.48l-0.11-82.39"/><path class="cls-2" d="M182.18,227c4.22,22.86,18.14,39.63,34.65,39.63,19.86,0,36-24.26,36-54.19l0-79.39"/><path class="cls-2" d="M158.2,237.35c3.93,28.52,29.09,50.51,59.54,50.51,33.18,0,60.07-26.11,60.07-58.33V143.38"/><line class="cls-9" x1="277.17" y1="114.81" x2="277.17" y2="110.81"/><path class="cls-10" d="M277.17,102.86V73.92c0-32.21,26.51-58.33,59.2-58.33,30,0,54.8,22,58.68,50.51v44.77"/><line class="cls-9" x1="395.05" y1="114.85" x2="395.05" y2="118.85"/><line class="cls-3" x1="370.32" y1="133.89" x2="370.32" y2="163.63"/><line class="cls-3" x1="419.36" y1="133.89" x2="419.36" y2="163.51"/><line class="cls-3" x1="395.4" y1="123.56" x2="395.4" y2="147.35"/><circle class="cls-2" cx="50.36" cy="17.26" r="11.74"/><line class="cls-11" x1="395.7" y1="181.08" x2="395.7" y2="288.62"/><polygon class="cls-3" points="419.36 133.89 415.02 135.76 405.86 139.71 395.4 144.22 384.45 139.71 375.3 135.94 370.32 133.89 395.4 123.56 419.36 133.89"/><line class="cls-3" x1="395.4" y1="144.22" x2="395.4" y2="173.96"/></svg>