<?xml version="1.0" encoding="UTF-8"?>
<svg width="57px" height="46px" viewBox="0 0 57 46" version="1.1" xmlns="http://www.w3.org/2000/svg" xmlns:xlink="http://www.w3.org/1999/xlink">
    <!-- Generator: Sketch 49.3 (51167) - http://www.bohemiancoding.com/sketch -->
    <title>“</title>
    <desc>Created with Sketch.</desc>
    <defs></defs>
    <g id="Internals" stroke="none" stroke-width="1" fill="none" fill-rule="evenodd">
        <g id="05-News-Story" transform="translate(-162.000000, -2026.000000)" fill="#011335">
            <path d="M185.765625,2027.65625 C184.151034,2029.27084 182.549487,2030.97655 180.960938,2032.77344 C179.372388,2034.57032 177.953131,2036.48436 176.703125,2038.51562 C175.453119,2040.54689 174.437504,2042.68228 173.65625,2044.92188 C172.874996,2047.16147 172.484375,2049.53124 172.484375,2052.03125 C172.484375,2052.60417 172.510416,2053.15104 172.5625,2053.67188 C172.614584,2054.19271 172.640625,2054.66146 172.640625,2055.07812 L182.71875,2055.07812 C183.135419,2055.54688 183.52604,2056.09375 183.890625,2056.71875 C184.203127,2057.29167 184.489582,2057.96875 184.75,2058.75 C185.010418,2059.53125 185.140625,2060.41666 185.140625,2061.40625 C185.140625,2062.76042 184.906252,2064.03645 184.4375,2065.23438 C183.968748,2066.4323 183.317712,2067.47395 182.484375,2068.35938 C181.651038,2069.2448 180.648443,2069.93489 179.476562,2070.42969 C178.304682,2070.92448 176.989591,2071.17188 175.53125,2071.17188 C171.416646,2071.17188 168.174491,2069.84376 165.804688,2067.1875 C163.434884,2064.53124 162.25,2060.91148 162.25,2056.32812 C162.25,2052.42186 162.966139,2048.84116 164.398438,2045.58594 C165.830736,2042.33071 167.523428,2039.45314 169.476562,2036.95312 C171.429697,2034.45311 173.382803,2032.33074 175.335938,2030.58594 C177.289072,2028.84114 178.786453,2027.5 179.828125,2026.5625 L185.765625,2027.65625 Z M218.734375,2027.65625 C217.588536,2029.01042 216.260424,2030.52083 214.75,2032.1875 C213.239576,2033.85417 211.794278,2035.70311 210.414062,2037.73438 C209.033847,2039.76564 207.861984,2041.95311 206.898438,2044.29688 C205.934891,2046.64064 205.453125,2049.16665 205.453125,2051.875 C205.453125,2052.44792 205.479166,2053.02083 205.53125,2053.59375 C205.583334,2054.16667 205.609375,2054.66146 205.609375,2055.07812 L215.6875,2055.07812 C216.104169,2055.65104 216.49479,2056.25 216.859375,2056.875 C217.171877,2057.44792 217.458332,2058.09895 217.71875,2058.82812 C217.979168,2059.5573 218.109375,2060.36458 218.109375,2061.25 C218.109375,2062.60417 217.875002,2063.89322 217.40625,2065.11719 C216.937498,2066.34115 216.286462,2067.39583 215.453125,2068.28125 C214.619788,2069.16667 213.604173,2069.86979 212.40625,2070.39062 C211.208327,2070.91146 209.906257,2071.17188 208.5,2071.17188 C204.281229,2071.17188 201.013032,2069.79168 198.695312,2067.03125 C196.377593,2064.27082 195.21875,2060.59898 195.21875,2056.01562 C195.21875,2052.16144 195.934889,2048.63283 197.367188,2045.42969 C198.799486,2042.22655 200.492178,2039.37501 202.445312,2036.875 C204.398447,2034.37499 206.351553,2032.26563 208.304688,2030.54688 C210.257822,2028.82812 211.755203,2027.5 212.796875,2026.5625 L218.734375,2027.65625 Z" id="“"></path>
        </g>
    </g>
</svg>